<svg width="13" height="13" viewBox="0 0 13 13" fill="none" xmlns="http://www.w3.org/2000/svg">
<circle cx="6.5" cy="6.5" r="6.5" fill="white"/>
<g clip-path="url(#clip0_720_1696)">
<path d="M7.45588 6.47313C7.45588 6.79908 7.32639 7.11168 7.09591 7.34216C6.86543 7.57264 6.55283 7.70212 6.22689 7.70212C5.90094 7.70212 5.58834 7.57264 5.35786 7.34216C5.12738 7.11168 4.99789 6.79908 4.99789 6.47313C4.99789 6.14718 5.12738 5.83458 5.35786 5.6041C5.58834 5.37362 5.90094 5.24414 6.22689 5.24414C6.55283 5.24414 6.86543 5.37362 7.09591 5.6041C7.32639 5.83458 7.45588 6.14718 7.45588 6.47313Z" fill="#888888"/>
<path d="M3.27731 4.26054C3.01655 4.26054 2.76647 4.36412 2.58208 4.54851C2.3977 4.73289 2.29411 4.98297 2.29411 5.24373V8.19331C2.29411 8.45407 2.3977 8.70415 2.58208 8.88853C2.76647 9.07292 3.01655 9.1765 3.27731 9.1765H9.17647C9.43723 9.1765 9.6873 9.07292 9.87169 8.88853C10.0561 8.70415 10.1597 8.45407 10.1597 8.19331V5.24373C10.1597 4.98297 10.0561 4.73289 9.87169 4.54851C9.6873 4.36412 9.43723 4.26054 9.17647 4.26054H8.60032C8.33958 4.26048 8.08954 4.15686 7.9052 3.97246L7.49816 3.56542C7.31381 3.38102 7.06378 3.2774 6.80304 3.27734H5.65074C5.39 3.2774 5.13996 3.38102 4.95562 3.56542L4.54858 3.97246C4.36423 4.15686 4.1142 4.26048 3.85346 4.26054H3.27731ZM3.5231 5.24373C3.45791 5.24373 3.3954 5.21783 3.3493 5.17174C3.3032 5.12564 3.27731 5.06312 3.27731 4.99793C3.27731 4.93274 3.3032 4.87022 3.3493 4.82413C3.3954 4.77803 3.45791 4.75213 3.5231 4.75213C3.58829 4.75213 3.65081 4.77803 3.69691 4.82413C3.74301 4.87022 3.7689 4.93274 3.7689 4.99793C3.7689 5.06312 3.74301 5.12564 3.69691 5.17174C3.65081 5.21783 3.58829 5.24373 3.5231 5.24373ZM7.94747 6.47272C7.94747 6.92905 7.7662 7.36669 7.44353 7.68936C7.12085 8.01203 6.68321 8.19331 6.22689 8.19331C5.77056 8.19331 5.33292 8.01203 5.01025 7.68936C4.68757 7.36669 4.5063 6.92905 4.5063 6.47272C4.5063 6.01639 4.68757 5.57876 5.01025 5.25608C5.33292 4.93341 5.77056 4.75213 6.22689 4.75213C6.68321 4.75213 7.12085 4.93341 7.44353 5.25608C7.7662 5.57876 7.94747 6.01639 7.94747 6.47272Z" fill="#888888"/>
</g>
<defs>
<clipPath id="clip0_720_1696">
<rect width="7.86555" height="7.86555" fill="white" transform="translate(2.29412 2.29395)"/>
</clipPath>
</defs>
</svg>
