<svg width="21" height="21" viewBox="0 0 21 21" fill="none" xmlns="http://www.w3.org/2000/svg">
<path d="M15 18.75V17C15 16.0717 14.6313 15.1815 13.9749 14.5251C13.3185 13.8687 12.4283 13.5 11.5 13.5H4.5C3.57174 13.5 2.6815 13.8687 2.02513 14.5251C1.36875 15.1815 1 16.0717 1 17V18.75" stroke="#7A7A7A" stroke-width="1.5" stroke-linecap="round" stroke-linejoin="round"/>
<path d="M8 10C9.933 10 11.5 8.433 11.5 6.5C11.5 4.567 9.933 3 8 3C6.067 3 4.5 4.567 4.5 6.5C4.5 8.433 6.067 10 8 10Z" stroke="#7A7A7A" stroke-width="1.5" stroke-linecap="round" stroke-linejoin="round"/>
<path d="M20.25 18.75V17C20.2494 16.2245 19.9913 15.4712 19.5162 14.8583C19.0411 14.2454 18.3759 13.8076 17.625 13.6138" stroke="#7A7A7A" stroke-width="1.5" stroke-linecap="round" stroke-linejoin="round"/>
<path d="M14.125 3.11377C14.8779 3.30653 15.5452 3.74438 16.0217 4.35829C16.4982 4.9722 16.7569 5.72725 16.7569 6.50439C16.7569 7.28154 16.4982 8.03659 16.0217 8.6505C15.5452 9.26441 14.8779 9.70226 14.125 9.89502" stroke="#7A7A7A" stroke-width="1.5" stroke-linecap="round" stroke-linejoin="round"/>
</svg>
