<svg width="18" height="18" viewBox="0 0 18 18" fill="none" xmlns="http://www.w3.org/2000/svg">
<path d="M8.81187 15.4999H8.42181C8.36593 15.4772 8.30584 15.4662 8.24539 15.4677C7.00928 15.4153 5.81018 15.0368 4.7736 14.3718C3.58606 13.6243 2.65156 12.5455 2.08919 11.2732C1.52683 10.0008 1.36207 8.59241 1.61593 7.22752C2.24195 3.79678 5.38622 1.29443 8.97935 1.48642C10.0695 1.54467 11.1008 1.80809 12.0447 2.343C14.1662 3.54435 15.3896 5.34325 15.6922 7.74227C15.7164 7.93242 15.687 8.12733 15.7499 8.31309V8.64282C15.7281 8.69832 15.7173 8.75737 15.7179 8.81685C15.6762 9.87531 15.4056 10.8762 14.8786 11.7977C13.6667 13.915 11.8333 15.135 9.3776 15.4413C9.18852 15.4633 8.99536 15.4358 8.81187 15.4999ZM8.81745 2.42837C5.51649 2.2961 2.56688 4.88931 2.46266 8.30576C2.36329 11.576 5.00919 14.4484 8.4635 14.536C11.7808 14.6202 14.6724 12.0237 14.7695 8.64392C14.8652 5.33592 12.1854 2.50714 8.81745 2.42653V2.42837Z" fill="#7A7A7A"/>
<path d="M8.41957 4.97342C9.01098 4.97342 9.47324 5.06795 9.88302 5.34493C10.4413 5.72376 10.6486 6.35796 10.4145 6.98739C10.25 7.43107 9.94034 7.76704 9.58006 8.06307C9.45585 8.1588 9.33718 8.2613 9.22462 8.37009C9.04306 8.55221 8.94125 8.79712 8.94101 9.05228C8.94269 9.1436 8.93971 9.23494 8.93208 9.32596C8.90863 9.52454 8.82042 9.61906 8.62278 9.66156C8.48597 9.69 8.34478 9.69137 8.20742 9.66559C8.13482 9.65581 8.06773 9.62214 8.01705 9.57006C7.96636 9.51797 7.93508 9.45054 7.92828 9.37872C7.84639 8.82549 7.93795 8.31403 8.32652 7.88098C8.4754 7.71538 8.6574 7.58788 8.83121 7.45159C8.95694 7.35735 9.07121 7.24917 9.17177 7.12918C9.54842 6.65912 9.35005 6.12531 8.75528 6.0143C8.58094 5.98425 8.40261 5.98425 8.22826 6.0143C7.93349 6.06009 7.75186 6.25244 7.59182 6.48326C7.54584 6.54883 7.48401 6.6021 7.4119 6.63827C7.33979 6.67444 7.25966 6.69237 7.17875 6.69044C7.09784 6.68852 7.01869 6.66679 6.94844 6.62723C6.87819 6.58767 6.81904 6.53152 6.77634 6.46384C6.68367 6.32352 6.6833 6.16817 6.72387 6.0143C6.81133 5.68053 7.03576 5.44788 7.32495 5.27312C7.65442 5.07497 8.03349 4.97119 8.41957 4.97342Z" fill="#7A7A7A"/>
<path d="M8.39989 11.7378C8.30793 11.7374 8.21697 11.719 8.1323 11.6836C8.04764 11.6483 7.97095 11.5968 7.90671 11.532C7.84246 11.4672 7.79194 11.3905 7.75808 11.3063C7.72422 11.2222 7.7077 11.1322 7.70948 11.0417C7.71395 10.672 8.03291 10.3566 8.40362 10.3547C8.78586 10.3525 9.11264 10.6797 9.10817 11.0589C9.10755 11.1494 9.08867 11.239 9.05262 11.3222C9.01658 11.4055 8.96408 11.4809 8.89819 11.5441C8.8323 11.6073 8.75432 11.6569 8.66878 11.6902C8.58324 11.7234 8.49184 11.7396 8.39989 11.7378Z" fill="#7A7A7A"/>
</svg>
