<svg width="18" height="17" viewBox="0 0 18 17" fill="none" xmlns="http://www.w3.org/2000/svg">
<path fill-rule="evenodd" clip-rule="evenodd" d="M8.62562 0.757573C7.73109 0.84735 6.89546 1.14201 6.16237 1.62617C5.74523 1.90166 5.0671 2.58993 4.78456 3.02459C4.20379 3.91804 3.93809 4.81067 3.93809 5.86849C3.93809 6.68147 4.09783 7.40035 4.43147 8.0889C4.58794 8.41186 4.85795 8.85889 4.89688 8.85948C4.90861 8.85967 4.95824 8.77255 5.00718 8.66593C5.14703 8.36134 5.6195 7.90333 5.96016 7.74217C6.27711 7.59223 6.60175 7.50549 6.97506 7.47099L7.23627 7.44688L7.063 7.19417C6.96513 7.05147 6.8444 6.80843 6.78568 6.63578C6.68473 6.3392 6.6812 6.30297 6.66645 5.41621C6.65381 4.65446 6.6616 4.45467 6.71344 4.21599C6.90451 3.3361 7.57098 2.6359 8.43382 2.40856C8.73191 2.33001 9.2914 2.33001 9.58949 2.40856C10.4527 2.63601 11.1321 3.35035 11.307 4.21433C11.3853 4.60117 11.3872 5.92799 11.3101 6.33303C11.2486 6.65584 11.0951 7.01177 10.9056 7.27113L10.7778 7.44599L11.042 7.47066C11.7112 7.53315 12.1821 7.7309 12.5911 8.12111C12.7393 8.26251 12.9186 8.48121 12.9976 8.61696C13.0754 8.75054 13.1428 8.85982 13.1473 8.85982C13.1752 8.85982 13.4433 8.4123 13.5815 8.13507C14.6798 5.93157 14.0251 3.2167 12.0402 1.74397C11.4635 1.31614 10.622 0.952527 9.92732 0.831101C9.59559 0.773084 8.87588 0.732461 8.62562 0.757573ZM8.53371 3.20282C8.2661 3.29196 8.07426 3.4183 7.86617 3.64243C7.65245 3.87261 7.55017 4.07155 7.48381 4.38598C7.41771 4.69929 7.41646 4.68681 7.51348 4.68636C7.66951 4.6857 7.96775 4.51468 8.09599 4.35233C8.51547 3.82135 8.60967 3.79698 8.99941 4.11831C9.30055 4.36655 9.66342 4.55704 9.97659 4.63119C10.2198 4.6888 10.593 4.70568 10.5919 4.65904C10.5887 4.51841 10.4655 4.09334 10.3848 3.94444C10.2407 3.67858 9.87354 3.34618 9.61155 3.24444C9.31533 3.12944 8.81235 3.11001 8.53371 3.20282ZM8.58536 4.98782C8.39169 5.20767 8.02845 5.37729 7.53186 5.47973C7.43558 5.4996 7.43076 5.51083 7.43076 5.71468C7.43076 6.24784 7.58613 6.65706 7.91374 6.98688C8.80577 7.8849 10.3222 7.40275 10.5524 6.1479C10.5745 6.0274 10.5925 5.83448 10.5925 5.71922V5.50961L10.2318 5.46843C9.70265 5.40798 9.16552 5.22092 8.82217 4.97748C8.69798 4.88944 8.67099 4.89062 8.58536 4.98782ZM6.73223 8.28231C6.25505 8.38645 5.85512 8.70024 5.64942 9.13192C5.44372 9.56363 5.44236 9.55137 5.72167 9.78347C6.40608 10.3522 7.14524 10.7147 7.99201 10.8969C8.49246 11.0046 9.45478 11.0138 9.94453 10.9154C10.8449 10.7347 11.6327 10.3584 12.314 9.78366C12.5814 9.55801 12.5807 9.56599 12.3739 9.13192C12.1612 8.68547 11.7375 8.36477 11.2384 8.27237C10.9248 8.21435 7.00407 8.223 6.73223 8.28231ZM3.23955 9.38079C2.88569 9.64539 2.57341 9.87506 2.54558 9.89116C2.50672 9.91369 2.53422 9.96875 2.66451 10.1295C2.75775 10.2444 2.85981 10.3886 2.89128 10.4498C2.92716 10.5194 2.96517 10.551 2.99297 10.5343C3.04014 10.5059 3.67058 10.047 4.11011 9.72121L4.37401 9.52555L4.16526 9.2125C4.0504 9.04033 3.93992 8.89952 3.9197 8.89959C3.89948 8.89966 3.59342 9.11622 3.23955 9.38079ZM13.8584 9.21194L13.65 9.52444L14.318 10.0156C14.6854 10.2858 15.0059 10.519 15.0303 10.5339C15.0583 10.551 15.0959 10.5199 15.132 10.4498C15.1635 10.3886 15.2648 10.2454 15.3571 10.1315C15.4495 10.0176 15.5195 9.92015 15.5128 9.91487C15.2592 9.71519 14.1218 8.89715 14.099 8.89811C14.0813 8.89885 13.9731 9.04007 13.8584 9.21194ZM0.739533 10.2935C0.505083 10.381 0.150889 10.7449 0.0680575 10.9833C-0.181834 11.7023 0.28225 12.4626 1.03781 12.572C1.36957 12.6201 1.82079 12.4433 2.04443 12.1777C2.45918 11.685 2.42859 10.9886 1.97263 10.5435C1.66873 10.2468 1.1474 10.1411 0.739533 10.2935ZM16.427 10.299C16.1502 10.4076 15.9433 10.6015 15.8069 10.8798C15.7048 11.088 15.6867 11.165 15.6874 11.3867C15.691 12.4346 16.9455 12.9664 17.6781 12.2306C17.9206 11.987 18.0008 11.7774 18 11.3895C17.9994 11.1016 17.9861 11.0319 17.9009 10.8685C17.7697 10.6169 17.4872 10.3665 17.2463 10.2884C16.9956 10.207 16.6499 10.2115 16.427 10.299ZM5.71214 11.1203C5.40935 11.6786 4.48956 13.4283 4.48956 13.446C4.48956 13.4561 4.55452 13.4839 4.6339 13.5078C4.71331 13.5317 4.86453 13.6096 4.96993 13.6808C5.07537 13.7521 5.16578 13.8058 5.17085 13.8002C5.20174 13.766 6.51164 11.2843 6.51164 11.26C6.51164 11.2436 6.40344 11.1704 6.27123 11.0974C6.13899 11.0244 5.99196 10.9391 5.9445 10.9078C5.85931 10.8517 5.85626 10.8545 5.71214 11.1203ZM11.8164 11.0689C11.6504 11.164 11.5138 11.2563 11.5131 11.274C11.511 11.3211 12.8401 13.8085 12.8673 13.8083C12.88 13.8082 12.9648 13.7583 13.0558 13.6974C13.1468 13.6365 13.2921 13.5593 13.3787 13.5259C13.4654 13.4924 13.5315 13.4523 13.5258 13.4367C13.4658 13.2736 12.1825 10.8934 12.1551 10.8945C12.1348 10.8954 11.9824 10.9739 11.8164 11.0689ZM8.61952 11.8353C8.61121 11.857 8.60919 12.0371 8.61503 12.2353L8.62562 12.5958L9.01165 12.5957L9.39769 12.5956V12.2008V11.8059L9.01614 11.8008C8.7743 11.7976 8.62908 11.8102 8.61952 11.8353ZM8.73592 13.3973C8.39757 13.4866 8.10051 13.7313 7.94525 14.0485C7.82113 14.302 7.81793 14.7784 7.93867 15.0283C8.06477 15.2892 8.21426 15.4463 8.46661 15.583C8.67974 15.6984 8.72526 15.7089 9.01165 15.7081C9.27721 15.7074 9.35236 15.6926 9.51192 15.6093C9.78898 15.4647 9.90434 15.3528 10.0435 15.0936C10.1575 14.8811 10.1684 14.8337 10.1684 14.547C10.1684 14.2601 10.1576 14.213 10.043 13.9995C9.8364 13.6147 9.51684 13.408 9.08934 13.3826C8.95562 13.3747 8.79658 13.3813 8.73592 13.3973ZM3.67139 14.1789C3.11356 14.319 2.74642 14.7803 2.74642 15.341C2.74642 15.6673 2.86848 15.9518 3.1094 16.187C3.34863 16.4206 3.61705 16.5163 3.97485 16.4956C4.2911 16.4773 4.50232 16.3874 4.7225 16.1773C5.05096 15.8639 5.16784 15.34 5.00563 14.9082C4.81236 14.3937 4.18382 14.0501 3.67139 14.1789ZM13.8253 14.1913C13.2919 14.3357 12.9458 14.7846 12.9453 15.3322C12.9451 15.6369 13.0384 15.8856 13.2357 16.1062C13.4622 16.3595 13.7043 16.4755 14.0485 16.4955C14.269 16.5083 14.3663 16.4956 14.5345 16.4318C15.1391 16.2026 15.4503 15.4581 15.1833 14.8794C15.0081 14.4996 14.7712 14.2955 14.39 14.1957C14.1424 14.1309 14.0507 14.1302 13.8253 14.1913Z" fill="#42C2FF"/>
</svg>
