<svg width="21" height="21" viewBox="0 0 21 21" fill="none" xmlns="http://www.w3.org/2000/svg">
<path d="M16.125 6.25C16.125 4.85761 15.5719 3.52226 14.5873 2.53769C13.6027 1.55312 12.2674 1 10.875 1C9.48261 1 8.14726 1.55312 7.16269 2.53769C6.17812 3.52226 5.625 4.85761 5.625 6.25C5.625 12.375 3 14.125 3 14.125H18.75C18.75 14.125 16.125 12.375 16.125 6.25Z" stroke="#7A7A7A" stroke-width="1.5" stroke-linecap="round" stroke-linejoin="round"/>
<path d="M12.3888 17.625C12.2349 17.8902 12.0141 18.1103 11.7485 18.2633C11.4828 18.4164 11.1816 18.4969 10.875 18.4969C10.5684 18.4969 10.2672 18.4164 10.0016 18.2633C9.7359 18.1103 9.5151 17.8902 9.36127 17.625" stroke="#7A7A7A" stroke-width="1.5" stroke-linecap="round" stroke-linejoin="round"/>
</svg>
