<svg width="13" height="9" viewBox="0 0 13 9" fill="none" xmlns="http://www.w3.org/2000/svg">
<path d="M8.66669 3.95801C9.56585 3.95801 10.2863 3.23217 10.2863 2.33301C10.2863 1.43384 9.56585 0.708008 8.66669 0.708008C7.76752 0.708008 7.04169 1.43384 7.04169 2.33301C7.04169 3.23217 7.76752 3.95801 8.66669 3.95801ZM4.33335 3.95801C5.23252 3.95801 5.95294 3.23217 5.95294 2.33301C5.95294 1.43384 5.23252 0.708008 4.33335 0.708008C3.43419 0.708008 2.70835 1.43384 2.70835 2.33301C2.70835 3.23217 3.43419 3.95801 4.33335 3.95801ZM4.33335 5.04134C3.07127 5.04134 0.541687 5.67509 0.541687 6.93717V8.29134H8.12502V6.93717C8.12502 5.67509 5.59544 5.04134 4.33335 5.04134ZM8.66669 5.04134C8.5096 5.04134 8.33085 5.05217 8.14127 5.06842C8.7696 5.52342 9.20835 6.13551 9.20835 6.93717V8.29134H12.4584V6.93717C12.4584 5.67509 9.92877 5.04134 8.66669 5.04134Z" fill="#7A7A7A"/>
</svg>
