<svg width="15" height="14" viewBox="0 0 15 14" fill="none" xmlns="http://www.w3.org/2000/svg">
<path d="M13.75 2.5H10.75C10.5511 2.5 10.3603 2.57902 10.2197 2.71967C10.079 2.86032 10 3.05109 10 3.25C10 3.44891 10.079 3.63968 10.2197 3.78033C10.3603 3.92098 10.5511 4 10.75 4H13.75C13.9489 4 14.1397 3.92098 14.2803 3.78033C14.421 3.63968 14.5 3.44891 14.5 3.25C14.5 3.05109 14.421 2.86032 14.2803 2.71967C14.1397 2.57902 13.9489 2.5 13.75 2.5ZM5.5 6.25C6.09334 6.25 6.67336 6.07405 7.16671 5.74441C7.66006 5.41477 8.04458 4.94623 8.27164 4.39805C8.4987 3.84987 8.55811 3.24667 8.44236 2.66473C8.3266 2.08279 8.04088 1.54824 7.62132 1.12868C7.20176 0.709123 6.66721 0.423401 6.08527 0.307646C5.50333 0.19189 4.90013 0.2513 4.35195 0.478363C3.80377 0.705426 3.33524 1.08994 3.00559 1.58329C2.67595 2.07664 2.5 2.65666 2.5 3.25C2.5 4.04565 2.81607 4.80871 3.37868 5.37132C3.94129 5.93393 4.70435 6.25 5.5 6.25ZM5.5 1.75C5.79667 1.75 6.08668 1.83797 6.33335 2.0028C6.58003 2.16762 6.77229 2.40189 6.88582 2.67598C6.99935 2.95007 7.02906 3.25167 6.97118 3.54264C6.9133 3.83361 6.77044 4.10088 6.56066 4.31066C6.35088 4.52044 6.08361 4.6633 5.79264 4.72118C5.50166 4.77906 5.20006 4.74935 4.92597 4.63582C4.65189 4.52229 4.41762 4.33003 4.2528 4.08336C4.08797 3.83668 4 3.54667 4 3.25C4 2.85218 4.15804 2.47065 4.43934 2.18934C4.72064 1.90804 5.10218 1.75 5.5 1.75ZM5.5 7.75C4.10761 7.75 2.77226 8.30313 1.78769 9.28769C0.803123 10.2723 0.25 11.6076 0.25 13C0.25 13.1989 0.329018 13.3897 0.46967 13.5303C0.610322 13.671 0.801088 13.75 1 13.75C1.19891 13.75 1.38968 13.671 1.53033 13.5303C1.67098 13.3897 1.75 13.1989 1.75 13C1.75 12.0054 2.14509 11.0516 2.84835 10.3484C3.55161 9.64509 4.50544 9.25 5.5 9.25C6.49456 9.25 7.44839 9.64509 8.15165 10.3484C8.85491 11.0516 9.25 12.0054 9.25 13C9.25 13.1989 9.32902 13.3897 9.46967 13.5303C9.61032 13.671 9.80109 13.75 10 13.75C10.1989 13.75 10.3897 13.671 10.5303 13.5303C10.671 13.3897 10.75 13.1989 10.75 13C10.75 11.6076 10.1969 10.2723 9.21231 9.28769C8.22774 8.30313 6.89239 7.75 5.5 7.75Z" fill="#FF3225"/>
</svg>
