<svg width="18" height="18" viewBox="0 0 18 18" fill="none" xmlns="http://www.w3.org/2000/svg">
<path d="M2.98305 13.2526C2.97933 13.0552 3.01604 12.859 3.091 12.6758C3.16596 12.4927 3.27763 12.3262 3.41935 12.1864C3.51144 12.0911 3.58949 11.9892 3.60747 11.8541C3.64868 11.542 3.42549 11.2929 3.09355 11.2783C2.40818 11.2506 1.90434 10.9541 1.6259 10.3217C1.56208 10.1727 1.52684 10.0133 1.52198 9.85168C1.50487 9.41614 1.47813 8.97846 1.53118 8.54509C1.63116 7.72496 2.20252 7.2113 3.04707 7.17288C3.29043 7.16209 3.4746 7.0844 3.56932 6.85778C3.66403 6.63117 3.58642 6.43434 3.42111 6.25348C2.80721 5.59177 2.83001 4.73538 3.46978 4.09784C3.70832 3.86044 3.9473 3.62303 4.19111 3.39124C4.83745 2.77571 5.7083 2.76535 6.37 3.36664C6.5454 3.52678 6.73877 3.60059 6.96811 3.50692C7.19744 3.41325 7.27988 3.23369 7.29172 2.99413C7.33557 2.08767 7.97621 1.48337 8.89662 1.48337C9.31713 1.48337 9.73853 1.45704 10.1586 1.50797C10.7988 1.5861 11.3579 2.13213 11.4342 2.76406C11.4465 2.86549 11.4574 2.96693 11.4636 3.06923C11.4652 3.15882 11.4922 3.24617 11.5417 3.3214C11.5911 3.39662 11.661 3.4567 11.7433 3.49483C11.826 3.53853 11.9195 3.55842 12.0131 3.55224C12.1067 3.54605 12.1966 3.51404 12.2726 3.45987C12.3343 3.41492 12.3928 3.36604 12.448 3.31354C13.0422 2.79859 13.895 2.79557 14.4804 3.31915C14.7874 3.59498 15.0821 3.88504 15.3636 4.18547C15.9209 4.77984 15.9121 5.63105 15.3548 6.23621C15.2618 6.33679 15.1698 6.43563 15.1465 6.57592C15.0943 6.89145 15.3219 7.15519 15.6596 7.16727C16.3173 7.19101 16.8106 7.46943 17.1009 8.06466C17.1871 8.24585 17.232 8.44342 17.2324 8.6435C17.2377 9.09543 17.2662 9.5478 17.2101 9.99887C17.1316 10.6282 16.5729 11.176 15.9301 11.2506C15.843 11.2644 15.7552 11.2732 15.667 11.277C15.4337 11.277 15.2671 11.3788 15.1785 11.5903C15.0899 11.8019 15.1347 11.9922 15.2952 12.1549C15.5144 12.3768 15.6731 12.6297 15.7337 12.9353C15.8253 13.4076 15.7337 13.8418 15.4092 14.204C15.1036 14.5493 14.7739 14.8732 14.4226 15.1734C13.8876 15.6284 13.0843 15.6336 12.5278 15.2041C12.4546 15.148 12.3888 15.0828 12.3169 15.0249C12.1494 14.8907 11.9621 14.8566 11.7644 14.9447C11.5666 15.0327 11.4697 15.1881 11.4601 15.4035C11.425 16.1839 10.9887 16.7459 10.2902 16.9143C10.195 16.9389 10.0973 16.9534 9.999 16.9574C9.55612 16.9686 9.11148 17.0006 8.67123 16.9458C7.83808 16.8465 7.30663 16.2551 7.2847 15.4285C7.27549 15.0858 7.03783 14.8713 6.70282 14.9015C6.58173 14.9139 6.46943 14.9695 6.3871 15.0578C5.78987 15.6651 4.77562 15.6966 4.1227 14.999C3.90038 14.7616 3.65833 14.5424 3.429 14.3114C3.13564 14.0127 2.97603 13.6575 2.98305 13.2526ZM13.4701 14.5273C13.6148 14.518 13.7505 14.4551 13.8499 14.3511C14.0691 14.1353 14.2914 13.9195 14.5116 13.7007C14.8396 13.3769 14.844 13.1525 14.5383 12.8123C14.1239 12.3509 14.0161 11.8195 14.2362 11.2485C14.4875 10.601 15.0093 10.2989 15.7016 10.2708C16.0161 10.2574 16.2125 10.0671 16.2151 9.7606C16.2186 9.4055 16.2186 9.05011 16.2151 8.69443C16.2125 8.38494 16.0182 8.19373 15.7082 8.17646C15.5717 8.17133 15.436 8.15414 15.3026 8.12509C14.1502 7.84798 13.7442 6.48268 14.5541 5.6168C14.8365 5.31465 14.8325 5.06646 14.5396 4.77596C14.3315 4.56963 14.1226 4.36402 13.913 4.15914C13.5938 3.84533 13.3627 3.84101 13.0237 4.14187C12.6247 4.49582 12.156 4.61668 11.6377 4.50359C10.9212 4.34949 10.4699 3.76979 10.4392 3.0006C10.4265 2.68248 10.2314 2.49385 9.90735 2.49169C9.54077 2.49169 9.17418 2.48781 8.8076 2.49169C8.52565 2.49557 8.33096 2.69327 8.3121 2.97082C8.3063 3.11057 8.2887 3.24961 8.25948 3.38649C7.97884 4.52733 6.58661 4.92229 5.70041 4.11511C5.41057 3.85094 5.15054 3.85396 4.87078 4.12719C4.65723 4.33568 4.445 4.54589 4.23232 4.75524C3.91398 5.06991 3.90871 5.3017 4.21171 5.63105C4.5726 6.02341 4.69406 6.48484 4.58093 6.99505C4.42526 7.69992 3.83548 8.14538 3.05496 8.17646C2.73047 8.18941 2.53885 8.37977 2.53666 8.69875C2.53666 9.05961 2.53271 9.42046 2.53666 9.78089C2.5406 10.0589 2.74144 10.2518 3.02251 10.2699C3.16429 10.2754 3.30537 10.2923 3.44435 10.3204C4.59452 10.5889 5.00627 11.9607 4.19988 12.827C3.91135 13.1369 3.91661 13.3799 4.21917 13.6791C4.4238 13.8805 4.62843 14.0819 4.83307 14.2834C5.15361 14.598 5.39259 14.6045 5.72234 14.3071C6.03542 14.0244 6.40771 13.8694 6.82866 13.8988C7.70566 13.9601 8.2757 14.5622 8.30991 15.4333C8.3235 15.7713 8.51512 15.9534 8.86241 15.9547C9.20122 15.9564 9.54033 15.9564 9.87972 15.9547C10.2362 15.9547 10.42 15.7751 10.4371 15.4216C10.4555 15.0452 10.5651 14.7021 10.8238 14.4155C11.4083 13.768 12.384 13.7248 13.0382 14.3218C13.1619 14.434 13.2882 14.5173 13.4701 14.5273Z" fill="#7A7A7A"/>
<path d="M9.21939 12.8164C8.74074 12.7995 8.27023 12.6894 7.83499 12.4926C7.39976 12.2958 7.00841 12.0161 6.68352 11.6697C6.35863 11.3233 6.10662 10.917 5.94203 10.4742C5.77745 10.0315 5.70354 9.56101 5.72457 9.08999C5.82016 6.90414 7.67895 5.55309 9.50836 5.6269C11.5754 5.70978 13.1119 7.39881 13.029 9.35071C13.0138 9.82569 12.9028 10.2929 12.7023 10.7253C12.5019 11.1576 12.216 11.5463 11.8615 11.8689C11.5069 12.1914 11.0908 12.4413 10.6372 12.604C10.1836 12.7666 9.70161 12.8388 9.21939 12.8164ZM9.37769 6.62702C8.85638 6.62678 8.34668 6.77855 7.91292 7.06319C7.47915 7.34783 7.14077 7.75259 6.94048 8.22636C6.74019 8.70014 6.68696 9.2217 6.78752 9.72523C6.88808 10.2288 7.13792 10.6917 7.5055 11.0556C7.87308 11.4194 8.34193 11.668 8.85287 11.7698C9.36382 11.8716 9.89395 11.8222 10.3764 11.6277C10.8588 11.4332 11.2719 11.1024 11.5635 10.677C11.8551 10.2516 12.0121 9.75077 12.0148 9.23762C12.0157 7.77995 10.8506 6.62659 9.37769 6.62702Z" fill="#7A7A7A"/>
</svg>
