<svg width="20" height="15" viewBox="0 0 20 15" fill="none" xmlns="http://www.w3.org/2000/svg">
<path d="M12.003 0.5H19C19.2449 0.500032 19.4813 0.589956 19.6644 0.752715C19.8474 0.915474 19.9643 1.13975 19.993 1.383L20 1.5V8.5C20.002 8.75643 19.9055 9.00385 19.7303 9.19111C19.5551 9.37837 19.3146 9.49117 19.0586 9.50619C18.8026 9.52121 18.5506 9.43731 18.3547 9.27182C18.1588 9.10633 18.034 8.87191 18.006 8.617L18 8.5L17.999 3.914L10.707 11.207C10.5349 11.3793 10.3059 11.4829 10.0629 11.4984C9.81985 11.5139 9.57953 11.4401 9.38701 11.291L9.29301 11.208L6.99701 8.916L1.70901 14.206C1.52905 14.3853 1.28757 14.4895 1.03362 14.4972C0.779672 14.505 0.532292 14.4158 0.341727 14.2478C0.151161 14.0797 0.0317002 13.8454 0.00760659 13.5925C-0.016487 13.3396 0.0565937 13.087 0.212005 12.886L0.295006 12.791L6.28901 6.795C6.46107 6.62268 6.6901 6.51906 6.93313 6.5036C7.17616 6.48813 7.41648 6.56188 7.60901 6.711L7.70301 6.794L9.99901 9.086L16.584 2.5H12.003C11.7581 2.49997 11.5217 2.41004 11.3386 2.24728C11.1556 2.08453 11.0387 1.86025 11.01 1.617L11.003 1.5C11.003 1.25507 11.093 1.01866 11.2557 0.835628C11.4185 0.652593 11.6428 0.535657 11.886 0.507L12.003 0.5H19H12.003Z" fill="#4BB3FF"/>
</svg>
