<svg width="190" height="80" viewBox="0 0 190 80" fill="none" xmlns="http://www.w3.org/2000/svg">
<path d="M26.8692 47.5251C25.3225 46.6315 24.0802 45.2936 23.3035 43.6851C22.4697 42.023 22.0537 40.0765 22.0555 37.8457C22.0574 35.6149 22.4734 33.6748 23.3035 32.0255C24.0848 30.4258 25.3265 29.0962 26.8692 28.2075C28.53 27.289 30.4053 26.8289 32.3027 26.8745C33.5845 26.8655 34.8593 27.0657 36.0768 27.4669C37.217 27.8436 38.2793 28.4245 39.2118 29.1812C39.4439 29.3465 39.6322 29.5658 39.7604 29.8203C39.8698 30.0804 39.9222 30.361 39.914 30.6431C39.9265 31.0498 39.7975 31.4482 39.5492 31.7704C39.4476 31.9103 39.3144 32.0242 39.1604 32.1029C39.0065 32.1815 38.8361 32.2227 38.6632 32.223C38.2151 32.2084 37.7815 32.0604 37.418 31.7978C36.6807 31.2235 35.8592 30.7664 34.9824 30.4429C34.1775 30.1818 33.3353 30.054 32.4892 30.0644C30.3809 30.0644 28.7836 30.7236 27.6975 32.0419C26.6113 33.3603 26.0683 35.2949 26.0683 37.8457C26.0683 40.4221 26.6104 42.3686 27.6947 43.6851C28.7791 45.0017 30.3763 45.6609 32.4864 45.6627C33.3086 45.6711 34.1261 45.5375 34.9028 45.2678C35.7918 44.9258 36.6355 44.4763 37.4153 43.9293C37.6084 43.811 37.8112 43.7091 38.0214 43.6248C38.2246 43.5435 38.4417 43.5025 38.6605 43.5041C38.8331 43.5052 39.0031 43.547 39.1566 43.6261C39.3101 43.7052 39.4427 43.8194 39.5437 43.9594C39.7914 44.2809 39.9203 44.6783 39.9085 45.084C39.9134 45.3605 39.8611 45.6351 39.7549 45.8904C39.6306 46.1519 39.4418 46.3775 39.2063 46.5459C38.2769 47.3061 37.2162 47.8898 36.0768 48.2684C34.8593 48.6697 33.5845 48.8698 32.3027 48.8608C30.4051 48.9055 28.5297 48.4445 26.8692 47.5251V47.5251ZM60.7374 47.1877C60.7411 47.4113 60.6922 47.6325 60.5945 47.8336C60.4968 48.0347 60.3531 48.21 60.1751 48.3452C59.8019 48.6481 59.3336 48.8094 58.853 48.8005C58.5293 48.8007 58.2103 48.7226 57.9232 48.5728C57.6206 48.4132 57.3645 48.1779 57.1799 47.8899L53.1343 41.7433C52.8201 41.1881 52.3758 40.7175 51.8397 40.3718C51.2912 40.0866 50.6773 39.9504 50.0596 39.9769H47.0864V46.79C47.1006 47.0533 47.062 47.3168 46.973 47.565C46.884 47.8133 46.7463 48.0412 46.568 48.2355C46.3841 48.4158 46.1649 48.5562 45.9242 48.6478C45.6835 48.7393 45.4264 48.7801 45.1692 48.7676C44.9095 48.7793 44.6502 48.7382 44.4069 48.6467C44.1637 48.5552 43.9415 48.4153 43.7539 48.2355C43.572 48.0431 43.431 47.8158 43.3395 47.5673C43.2481 47.3189 43.208 47.0544 43.2218 46.79V29.0002C43.2065 28.7493 43.2431 28.498 43.3295 28.262C43.4159 28.026 43.5501 27.8104 43.7237 27.6288C44.1038 27.2919 44.6018 27.1193 45.1088 27.1488H52.7119C55.1439 27.1488 56.9943 27.6909 58.2633 28.7752C59.5323 29.8596 60.1668 31.4266 60.1668 33.4764C60.1668 35.1386 59.6951 36.5017 58.7516 37.5659C57.808 38.6302 56.4741 39.3149 54.7498 39.6203C55.3183 39.7523 55.8492 40.0121 56.3022 40.3801C56.8131 40.8181 57.2542 41.3314 57.6105 41.9023L60.3781 46.129C60.6021 46.4378 60.7291 46.8064 60.7428 47.1877H60.7374ZM55.4136 36.1315C56.1048 35.5829 56.4494 34.7262 56.4476 33.5614C56.4458 32.3967 56.1029 31.5391 55.4191 30.9887C54.7315 30.4511 53.6472 30.1823 52.1661 30.1823H47.0535V36.968H52.1661C53.6454 36.968 54.7297 36.6892 55.4191 36.1315H55.4136ZM80.9025 26.9897C81.1353 26.9906 81.3656 27.0385 81.5795 27.1304C81.7935 27.2223 81.9867 27.3563 82.1477 27.5245C82.3221 27.6849 82.461 27.88 82.5555 28.0973C82.65 28.3146 82.6979 28.5493 82.6963 28.7862C82.6872 29.2131 82.5257 29.6227 82.241 29.9409L75.3428 38.3669V46.7928C75.3589 47.0613 75.3184 47.3302 75.2239 47.582C75.1294 47.8338 74.983 48.063 74.7943 48.2547C74.414 48.604 73.9114 48.7893 73.3954 48.7703C72.8699 48.7925 72.3567 48.6074 71.9664 48.2547C71.7777 48.063 71.6313 47.8338 71.5368 47.582C71.4423 47.3302 71.4018 47.0613 71.4179 46.7928V38.3669L64.5142 29.9409C64.2276 29.6237 64.065 29.2137 64.0561 28.7862C64.0545 28.5493 64.1024 28.3146 64.1969 28.0973C64.2914 27.88 64.4303 27.6849 64.6047 27.5245C64.7662 27.3562 64.96 27.2222 65.1743 27.1303C65.3887 27.0384 65.6194 26.9906 65.8527 26.9897C66.1079 26.9925 66.359 27.0548 66.5861 27.1714C66.8132 27.288 67.01 27.4559 67.161 27.6617L73.3954 35.3772L79.6024 27.6534C79.7534 27.4502 79.9493 27.2847 80.1748 27.1695C80.4003 27.0544 80.6493 26.9929 80.9025 26.9897V26.9897ZM90.1019 48.2382C88.8715 47.9033 87.7187 47.3302 86.709 46.5514C86.3291 46.25 86.0829 45.8114 86.0234 45.3301C85.9639 44.8489 86.0959 44.3635 86.3908 43.9786C86.4933 43.8358 86.6278 43.719 86.7835 43.6375C86.9393 43.5561 87.112 43.5123 87.2877 43.5096C87.7346 43.5356 88.166 43.6825 88.5357 43.9348C89.3663 44.5429 90.2936 45.0066 91.2785 45.3062C92.3067 45.5995 93.3719 45.7427 94.441 45.7313C95.9221 45.7313 97.0576 45.4725 97.8476 44.9551C98.2287 44.7167 98.5395 44.3812 98.7482 43.9831C98.9569 43.585 99.0559 43.1385 99.0352 42.6895C99.0402 42.3192 98.9397 41.9552 98.7454 41.64C98.5511 41.3248 98.2711 41.0714 97.9381 40.9094C97.1975 40.4962 95.966 40.0957 94.2435 39.7081C92.7506 39.4155 91.2926 38.9668 89.8934 38.3696C88.8943 37.9547 88.0227 37.2829 87.3673 36.4222C86.7698 35.5327 86.4719 34.4757 86.517 33.4051C86.5017 32.194 86.8746 31.0097 87.5812 30.026C88.3357 28.9954 89.357 28.1903 90.5352 27.6973C91.8867 27.1282 93.3423 26.848 94.8085 26.8745C97.7068 26.8745 100.069 27.6452 101.896 29.1867C102.123 29.3663 102.314 29.5879 102.458 29.8395C102.598 30.1491 102.652 30.4906 102.615 30.8283C102.578 31.166 102.451 31.4876 102.247 31.7594C102.145 31.9026 102.01 32.0199 101.855 32.1018C101.699 32.1837 101.526 32.228 101.35 32.2312C101.164 32.2317 100.978 32.2011 100.802 32.1407C100.559 32.0516 100.325 31.9414 100.102 31.8115C99.3604 31.2532 98.5466 30.7974 97.683 30.4566C96.7588 30.1394 95.7853 29.9898 94.8085 30.015C93.428 30.015 92.3382 30.2938 91.5391 30.8516C91.1566 31.1048 90.8454 31.4518 90.6351 31.8594C90.4248 32.267 90.3224 32.7218 90.3378 33.1802C90.3249 33.5666 90.417 33.9492 90.6044 34.2873C90.7918 34.6254 91.0675 34.9063 91.402 35.1002C92.1114 35.5445 93.3183 35.9596 95.0225 36.3454C96.5247 36.6578 97.9941 37.1115 99.411 37.7003C100.418 38.1078 101.308 38.7613 101.997 39.6011C102.616 40.4341 102.932 41.4527 102.894 42.4893C102.912 43.6762 102.546 44.8371 101.852 45.7999C101.094 46.8076 100.073 47.5867 98.9008 48.0517C97.5139 48.6096 96.0289 48.8829 94.5342 48.8554C93.0373 48.8671 91.5467 48.6592 90.1101 48.2382H90.1019ZM114.101 48.2081C113.921 48.021 113.78 47.7989 113.689 47.5555C113.597 47.3121 113.557 47.0525 113.569 46.7928V30.3688H108.04C106.822 30.3688 106.214 29.8312 106.216 28.756C106.218 27.6809 106.826 27.1433 108.04 27.1433H123.038C124.252 27.1433 124.86 27.6809 124.861 28.756C124.863 29.8312 124.255 30.3688 123.038 30.3688H117.5V46.7928C117.517 47.053 117.479 47.3139 117.387 47.5581C117.295 47.8022 117.152 48.024 116.968 48.2084C116.784 48.3928 116.562 48.5357 116.318 48.6274C116.074 48.7191 115.813 48.7575 115.552 48.7401C115.288 48.7537 115.024 48.7135 114.776 48.6221C114.528 48.5306 114.302 48.3898 114.11 48.2081H114.101ZM130.449 46.5816C128.929 45.0584 128.168 42.8376 128.167 39.9193V28.948C128.154 28.6899 128.194 28.432 128.283 28.1894C128.372 27.9468 128.509 27.7244 128.685 27.5355C129.069 27.1909 129.567 27.0003 130.084 27.0003C130.6 27.0003 131.098 27.1909 131.483 27.5355C131.659 27.7244 131.796 27.9468 131.885 28.1894C131.974 28.432 132.013 28.6899 132.001 28.948V40.1442C132.001 41.9874 132.437 43.3807 133.309 44.3242C134.182 45.2678 135.462 45.7395 137.149 45.7395C138.811 45.7395 140.079 45.2632 140.951 44.3105C141.823 43.3578 142.259 41.9691 142.259 40.1442V28.9371C142.247 28.6789 142.286 28.421 142.375 28.1784C142.465 27.9358 142.601 27.7135 142.778 27.5245C143.162 27.1799 143.66 26.9893 144.176 26.9893C144.693 26.9893 145.191 27.1799 145.575 27.5245C145.751 27.7135 145.888 27.9358 145.977 28.1784C146.066 28.421 146.106 28.6789 146.094 28.9371V39.9083C146.094 42.8084 145.333 45.0236 143.812 46.5541C142.29 48.0846 140.069 48.8499 137.149 48.8499C134.211 48.8572 131.98 48.1011 130.457 46.5816H130.449ZM149.884 48.1011C149.717 47.9224 149.588 47.7116 149.504 47.4816C149.421 47.2515 149.385 47.0069 149.399 46.7626V28.9343C149.382 28.6743 149.421 28.4138 149.513 28.17C149.605 27.9263 149.748 27.7049 149.932 27.5207C150.117 27.3365 150.338 27.1936 150.582 27.1016C150.825 27.0095 151.086 26.9704 151.346 26.9869C151.61 26.9733 151.874 27.0136 152.123 27.1056C152.371 27.1976 152.597 27.3392 152.789 27.5218C152.972 27.7071 153.115 27.9281 153.21 28.1711C153.304 28.4141 153.347 28.6739 153.337 28.9343V45.361H161.884C163.098 45.361 163.706 45.8986 163.708 46.9738C163.71 48.049 163.102 48.5865 161.884 48.5865H151.261C151.012 48.6025 150.762 48.5677 150.527 48.4843C150.292 48.4008 150.076 48.2705 149.892 48.1011H149.884ZM167.496 48.1011C167.328 47.9224 167.199 47.7116 167.116 47.4816C167.032 47.2515 166.996 47.0069 167.01 46.7626V28.9343C166.994 28.6746 167.033 28.4143 167.125 28.1707C167.217 27.9272 167.359 27.706 167.543 27.5218C167.727 27.3376 167.948 27.1947 168.191 27.1024C168.435 27.0102 168.695 26.9709 168.955 26.9869C169.22 26.973 169.484 27.0133 169.733 27.1053C169.981 27.1972 170.208 27.339 170.4 27.5218C170.58 27.7091 170.72 27.9308 170.811 28.1736C170.902 28.4164 170.944 28.6751 170.932 28.9343V45.361H179.482C180.696 45.361 181.304 45.8986 181.306 46.9738C181.308 48.049 180.7 48.5865 179.482 48.5865H168.873C168.623 48.6027 168.374 48.568 168.138 48.4845C167.903 48.4011 167.687 48.2706 167.504 48.1011H167.496Z" fill="#42C2FF"/>
<path d="M185.952 73.7327H4.52887C3.85817 73.7327 3.21494 73.4662 2.74069 72.992C2.26643 72.5177 2 71.8745 2 71.2038V4.52887C2 3.85817 2.26643 3.21494 2.74069 2.74069C3.21494 2.26643 3.85817 2 4.52887 2H44.8619C45.5326 2 46.1758 2.26643 46.6501 2.74069C47.1243 3.21494 47.3907 3.85817 47.3907 4.52887C47.3907 5.19957 47.1243 5.8428 46.6501 6.31705C46.1758 6.79131 45.5326 7.05774 44.8619 7.05774H7.05774V68.6749H185.952C186.623 68.6749 187.266 68.9414 187.74 69.4156C188.214 69.8899 188.481 70.5331 188.481 71.2038C188.481 71.8745 188.214 72.5177 187.74 72.992C187.266 73.4662 186.623 73.7327 185.952 73.7327Z" fill="#42C2FF"/>
<path d="M161.508 75.9462C164.369 75.9462 166.689 73.6265 166.689 70.765C166.689 67.9035 164.369 65.5839 161.508 65.5839C158.646 65.5839 156.327 67.9035 156.327 70.765C156.327 73.6265 158.646 75.9462 161.508 75.9462Z" fill="white"/>
<path d="M161.508 77.0679C160.26 77.0679 159.041 76.6979 158.003 76.0047C156.966 75.3116 156.157 74.3263 155.68 73.1736C155.202 72.0209 155.077 70.7525 155.321 69.5287C155.564 68.305 156.165 67.181 157.047 66.2987C157.929 65.4164 159.053 64.8156 160.277 64.5722C161.501 64.3288 162.769 64.4537 163.922 64.9312C165.075 65.4087 166.06 66.2172 166.753 67.2546C167.446 68.2921 167.816 69.5118 167.816 70.7594C167.816 72.4326 167.152 74.0371 165.969 75.2202C164.786 76.4033 163.181 77.0679 161.508 77.0679ZM161.508 66.7083C160.705 66.7083 159.921 66.9464 159.254 67.3924C158.586 67.8383 158.066 68.4722 157.76 69.2138C157.453 69.9554 157.373 70.7713 157.53 71.5583C157.687 72.3454 158.074 73.0682 158.641 73.6353C159.209 74.2024 159.933 74.5884 160.72 74.7443C161.507 74.9002 162.323 74.819 163.064 74.5112C163.805 74.2033 164.438 73.6825 164.884 73.0147C165.329 72.3469 165.566 71.562 165.565 70.7594C165.562 69.6847 165.134 68.6548 164.374 67.8953C163.613 67.1359 162.583 66.709 161.508 66.7083Z" fill="#42C2FF"/>
</svg>
