<svg width="18" height="18" viewBox="0 0 18 18" fill="none" xmlns="http://www.w3.org/2000/svg">
<path d="M17.5111 7.38874H9.17646V10.8144H13.9378C13.7325 11.9217 13.1096 12.8582 12.1707 13.4857C11.3772 14.0163 10.3645 14.33 9.17415 14.33C6.86963 14.33 4.92035 12.7729 4.22369 10.6806C4.04837 10.15 3.94687 9.58254 3.94687 8.99891C3.94687 8.41528 4.04837 7.8478 4.22369 7.31723C4.92266 5.22723 6.87193 3.67012 9.17646 3.67012C10.4752 3.67012 11.6402 4.11765 12.5583 4.99424L15.0958 2.45442C13.5618 1.02418 11.5617 0.147583 9.17646 0.147583C5.71852 0.147583 2.72655 2.13146 1.27094 5.02423C0.671162 6.21917 0.32975 7.57098 0.32975 9.00122C0.32975 10.4315 0.671162 11.781 1.27094 12.9759C2.72655 15.8687 5.71852 17.8525 9.17646 17.8525C11.5663 17.8525 13.5687 17.059 15.0312 15.7072C16.7037 14.1662 17.6702 11.8963 17.6702 9.1996C17.6702 8.57215 17.6149 7.97006 17.5111 7.38874Z" fill="white"/>
</svg>
