<svg width="24" height="28" viewBox="0 0 24 28" fill="none" xmlns="http://www.w3.org/2000/svg">
<path d="M11.9999 28C13.892 28 15.4269 26.4332 15.4269 24.5H8.57294C8.57294 26.4332 10.1078 28 11.9999 28ZM23.5387 19.8127C22.5037 18.6774 20.567 16.9695 20.567 11.375C20.567 7.12578 17.6485 3.72422 13.7131 2.88969V1.75C13.7131 0.783672 12.946 0 11.9999 0C11.0538 0 10.2867 0.783672 10.2867 1.75V2.88969C6.35134 3.72422 3.43277 7.12578 3.43277 11.375C3.43277 16.9695 1.49616 18.6774 0.461165 19.8127C0.139736 20.1655 -0.0027636 20.5871 -8.50317e-05 21C0.00580782 21.8969 0.695271 22.75 1.71956 22.75H22.2803C23.3045 22.75 23.9945 21.8969 23.9999 21C24.0026 20.5871 23.8601 20.1649 23.5387 19.8127Z" fill="#42C2FF"/>
</svg>
