<svg width="280" height="200" viewBox="0 0 280 200" fill="none" xmlns="http://www.w3.org/2000/svg">
<path d="M210.498 85.2415C210.447 85.2416 210.397 85.2258 210.354 85.1964L140.758 36.7278C140.547 36.581 140.295 36.5025 140.037 36.503C139.78 36.5034 139.528 36.5827 139.317 36.7302L70.2223 85.1959C70.1676 85.2343 70.1 85.2493 70.0342 85.2378C69.9685 85.2262 69.91 85.1891 69.8717 85.1344C69.8333 85.0798 69.8183 85.0121 69.8298 84.9464C69.8413 84.8806 69.8785 84.8221 69.9332 84.7838L139.028 36.3181C139.324 36.1116 139.676 36.0006 140.037 36C140.397 35.9994 140.75 36.1093 141.046 36.3148L210.642 84.7833C210.686 84.8139 210.719 84.8578 210.736 84.9085C210.754 84.9593 210.754 85.0142 210.738 85.0653C210.722 85.1164 210.69 85.1611 210.647 85.1928C210.604 85.2245 210.552 85.2415 210.498 85.2415L210.498 85.2415Z" fill="#3F3D56"/>
<path d="M74.1705 86.9596L140.106 38.0934L206.541 90.4366L143.503 127.807L109.279 120.005L74.1705 86.9596Z" fill="#E6E6E6"/>
<path d="M112.168 150.888H79.594C79.394 150.889 79.1959 150.85 79.011 150.773C78.8261 150.697 78.6581 150.585 78.5166 150.443C78.3751 150.302 78.2628 150.134 78.1862 149.949C78.1096 149.765 78.0702 149.567 78.0702 149.367C78.0702 149.167 78.1096 148.969 78.1862 148.784C78.2628 148.599 78.3751 148.431 78.5166 148.29C78.6581 148.148 78.8261 148.036 79.011 147.96C79.1959 147.884 79.394 147.845 79.594 147.845H112.168C112.368 147.845 112.566 147.884 112.751 147.96C112.935 148.036 113.103 148.148 113.245 148.29C113.386 148.431 113.499 148.599 113.575 148.784C113.652 148.969 113.691 149.167 113.691 149.367C113.691 149.567 113.652 149.765 113.575 149.949C113.499 150.134 113.386 150.302 113.245 150.443C113.103 150.585 112.935 150.697 112.751 150.773C112.566 150.85 112.368 150.889 112.168 150.888Z" fill="#42C2FF"/>
<path d="M91.2807 144.346H79.594C79.394 144.346 79.1959 144.307 79.011 144.23C78.8261 144.154 78.6581 144.042 78.5166 143.901C78.3751 143.759 78.2628 143.591 78.1862 143.407C78.1096 143.222 78.0702 143.024 78.0702 142.824C78.0702 142.624 78.1096 142.426 78.1862 142.241C78.2628 142.056 78.3751 141.888 78.5166 141.747C78.6581 141.606 78.8261 141.494 79.011 141.417C79.1959 141.341 79.394 141.302 79.594 141.302H91.2807C91.4807 141.302 91.6788 141.341 91.8636 141.417C92.0485 141.494 92.2165 141.606 92.358 141.747C92.4995 141.888 92.6118 142.056 92.6884 142.241C92.765 142.426 92.8044 142.624 92.8044 142.824C92.8044 143.024 92.765 143.222 92.6884 143.407C92.6118 143.591 92.4995 143.759 92.358 143.901C92.2165 144.042 92.0485 144.154 91.8636 144.23C91.6788 144.307 91.4807 144.346 91.2807 144.346Z" fill="#42C2FF"/>
<path d="M141.033 114.177C140.785 114.178 140.54 114.13 140.311 114.036L99.6467 97.1632V44.3485C99.6472 43.8814 99.833 43.4337 100.163 43.1035C100.493 42.7732 100.941 42.5875 101.408 42.5869H179.42C179.887 42.5875 180.334 42.7732 180.665 43.1035C180.995 43.4337 181.181 43.8814 181.181 44.3485V97.2001L181.105 97.2328L141.777 114.028C141.541 114.127 141.288 114.178 141.033 114.177Z" fill="white"/>
<path d="M141.033 114.303C140.769 114.303 140.507 114.252 140.263 114.152L99.5208 97.2471V44.3483C99.5213 43.8479 99.7203 43.3682 100.074 43.0144C100.428 42.6605 100.908 42.4615 101.408 42.4609H179.42C179.92 42.4615 180.4 42.6605 180.754 43.0144C181.107 43.3682 181.306 43.8479 181.307 44.3483V97.283L141.826 114.143C141.575 114.249 141.305 114.303 141.033 114.303ZM100.024 96.9109L140.455 113.687C140.832 113.84 141.254 113.838 141.63 113.68L180.804 96.9507V44.3483C180.803 43.9814 180.657 43.6296 180.398 43.3701C180.138 43.1106 179.787 42.9647 179.42 42.9642H101.408C101.041 42.9647 100.689 43.1106 100.43 43.3701C100.17 43.6296 100.024 43.9814 100.024 44.3483L100.024 96.9109Z" fill="#3F3D56"/>
<path d="M209.995 84.7382H209.945L181.055 97.0741L141.529 113.952C141.374 114.017 141.208 114.051 141.041 114.052C140.873 114.053 140.707 114.021 140.552 113.957L99.7724 97.0389L70.1733 84.7584L70.1281 84.7382H70.0777C69.6107 84.7387 69.1629 84.9245 68.8327 85.2547C68.5024 85.585 68.3167 86.0327 68.3162 86.4998V163.001C68.3167 163.468 68.5024 163.916 68.8327 164.246C69.1629 164.577 69.6107 164.762 70.0777 164.763H209.995C210.462 164.762 210.91 164.577 211.24 164.246C211.57 163.916 211.756 163.468 211.757 163.001V86.4998C211.756 86.0327 211.57 85.585 211.24 85.2547C210.91 84.9245 210.462 84.7387 209.995 84.7382ZM211.253 163.001C211.253 163.335 211.121 163.655 210.885 163.891C210.649 164.127 210.329 164.259 209.995 164.26H70.0777C69.744 164.259 69.4241 164.127 69.1881 163.891C68.9522 163.655 68.8196 163.335 68.8195 163.001V86.4998C68.8199 86.1744 68.9461 85.8618 69.1717 85.6273C69.3973 85.3928 69.7048 85.2546 70.0299 85.2415L99.7724 97.5824L140.359 114.423C140.798 114.602 141.29 114.599 141.727 114.415L181.055 97.6202L210.045 85.2415C210.37 85.2555 210.677 85.3941 210.902 85.6285C211.127 85.8628 211.253 86.1749 211.253 86.4998V163.001Z" fill="#3F3D56"/>
<path d="M140.627 99.2011C139.125 99.2039 137.664 98.7185 136.463 97.818L136.388 97.7621L120.708 85.7565C119.982 85.2001 119.372 84.5061 118.914 83.7141C118.456 82.9222 118.159 82.0478 118.039 81.1408C117.918 80.2339 117.978 79.3122 118.214 78.4283C118.451 77.5445 118.858 76.7158 119.415 75.9896C119.971 75.2634 120.665 74.6539 121.457 74.1959C122.249 73.7379 123.124 73.4404 124.031 73.3203C124.938 73.2003 125.859 73.26 126.743 73.4962C127.627 73.7324 128.456 74.1403 129.182 74.6967L139.339 82.4847L163.34 51.1828C163.897 50.4568 164.591 49.8475 165.383 49.3898C166.175 48.9321 167.05 48.6349 167.957 48.5152C168.864 48.3954 169.786 48.4555 170.669 48.692C171.553 48.9285 172.382 49.3368 173.108 49.8935L172.958 50.0961L173.112 49.8964C174.576 51.0219 175.534 52.6824 175.776 54.5135C176.018 56.3446 175.523 58.1969 174.401 59.6638L146.169 96.4824C145.516 97.3308 144.676 98.0174 143.715 98.4889C142.754 98.9604 141.697 99.2041 140.627 99.2011Z" fill="#42C2FF"/>
</svg>
