<svg width="300" height="220" viewBox="0 0 300 220" fill="none" xmlns="http://www.w3.org/2000/svg">
<defs>
<clipPath id="clip0_67_174">
<rect width="290.068" height="216.164" fill="white" transform="translate(5 2)"/>
</clipPath>
</defs>
<g clip-path="url(#clip0_67_174)">
<path d="M295.068 191.966H5V192.111H295.068V191.966Z" fill="#EBEBEB"/>
<path d="M71.9071 197.488H57.4791V197.633H71.9071V197.488Z" fill="#EBEBEB"/>
<path d="M109.326 195.916H93.3721V196.061H109.326V195.916Z" fill="#EBEBEB"/>
<path d="M66.3668 202.878H32.6551V203.023H66.3668V202.878Z" fill="#EBEBEB"/>
<path d="M266.003 201.903H253.472V202.048H266.003V201.903Z" fill="#EBEBEB"/>
<path d="M145.811 197.036H129.607V197.181H145.811V197.036Z" fill="#EBEBEB"/>
<path d="M220.167 199.449H179.43V199.594H220.167V199.449Z" fill="#EBEBEB"/>
<path d="M142.492 166.091H30.4738C29.5962 166.09 28.7551 165.74 28.1352 165.119C27.5152 164.498 27.167 163.656 27.167 162.779V5.31256C27.1746 4.44005 27.5262 3.60579 28.1454 2.99098C28.7645 2.37618 29.6012 2.03049 30.4738 2.02899H142.492C143.371 2.02899 144.213 2.37799 144.835 2.99922C145.456 3.62045 145.805 4.46302 145.805 5.34157V162.779C145.805 163.657 145.456 164.5 144.835 165.121C144.213 165.742 143.371 166.091 142.492 166.091ZM30.4738 2.14502C29.6347 2.14656 28.8305 2.48096 28.2377 3.07482C27.645 3.66868 27.312 4.47348 27.312 5.31256V162.779C27.312 163.618 27.645 164.423 28.2377 165.017C28.8305 165.61 29.6347 165.945 30.4738 165.946H142.492C143.332 165.945 144.137 165.611 144.73 165.017C145.324 164.423 145.658 163.618 145.66 162.779V5.31256C145.658 4.47295 145.324 3.66816 144.73 3.07446C144.137 2.48077 143.332 2.14655 142.492 2.14502H30.4738Z" fill="#EBEBEB"/>
<path d="M267.981 166.091H155.957C155.079 166.09 154.237 165.74 153.617 165.12C152.996 164.499 152.646 163.657 152.645 162.779V5.31256C152.654 4.43952 153.007 3.60527 153.627 2.99062C154.247 2.37598 155.084 2.03047 155.957 2.02899H267.981C268.853 2.03201 269.688 2.37838 270.306 2.99302C270.924 3.60766 271.275 4.44105 271.282 5.31256V162.779C271.282 163.655 270.935 164.496 270.316 165.117C269.698 165.738 268.858 166.088 267.981 166.091ZM155.957 2.14502C155.118 2.14655 154.313 2.48077 153.719 3.07446C153.125 3.66816 152.791 4.47295 152.79 5.31256V162.779C152.791 163.618 153.125 164.423 153.719 165.017C154.313 165.611 155.118 165.945 155.957 165.946H267.981C268.821 165.945 269.626 165.611 270.22 165.017C270.813 164.423 271.147 163.618 271.149 162.779V5.31256C271.147 4.47295 270.813 3.66816 270.22 3.07446C269.626 2.48077 268.821 2.14655 267.981 2.14502H155.957Z" fill="#EBEBEB"/>
<path d="M127.989 18.5629H39.6109V128.638H127.989V18.5629Z" fill="#E6E6E6"/>
<path d="M129.938 18.5629H40.5217V128.638H129.938V18.5629Z" fill="#F5F5F5"/>
<path d="M40.8292 17.0661H129.149C129.355 17.0661 129.553 16.9842 129.699 16.8384C129.845 16.6926 129.926 16.4949 129.926 16.2887C129.925 16.0836 129.842 15.8873 129.697 15.7428C129.551 15.5982 129.354 15.5171 129.149 15.5172H40.8292C40.625 15.5187 40.4297 15.6004 40.2853 15.7448C40.1409 15.8892 40.0591 16.0846 40.0576 16.2887C40.0576 16.4939 40.1387 16.6908 40.2833 16.8364C40.4278 16.982 40.624 17.0646 40.8292 17.0661Z" fill="#E6E6E6"/>
<path d="M127.989 128.638H39.6109V130.169H127.989V128.638Z" fill="#E6E6E6"/>
<path d="M138.895 128.638H53.7662V130.169H138.895V128.638Z" fill="#F5F5F5"/>
<path d="M127.2 125.076V22.1249L43.2658 22.1249V125.076H127.2Z" fill="#FAFAFA"/>
<path d="M72.4176 125.076L78.8919 22.1249H90.5352L84.0609 125.076H72.4176Z" fill="white"/>
<path d="M87.3561 125.076L93.8304 22.1249H99.2315L92.7572 125.076H87.3561Z" fill="white"/>
<path d="M127.2 90.9464V21.6492H126.852V90.9464H127.2Z" fill="#E6E6E6"/>
<g opacity="0.4">
<path opacity="0.4" d="M37.5514 21.9508V121.27C42.6972 121.27 47.3441 116.496 49.45 109.087C53.9113 93.4642 60.7859 67.8976 62.9092 21.3997C63.234 14.2176 61.7489 13.9508 59.788 13.9508H39.7037C38.5145 13.9682 37.5514 17.5418 37.5514 21.9508Z" fill="#E6E6E6"/>
</g>
<g opacity="0.4">
<path opacity="0.4" d="M132.183 21.9508V121.27C127.043 121.27 122.396 116.496 120.285 109.087C115.829 93.4642 108.955 67.8976 106.825 21.3997C106.501 14.2176 107.986 13.9508 109.947 13.9508H130.031C131.22 13.9682 132.183 17.5418 132.183 21.9508Z" fill="#E6E6E6"/>
</g>
<path d="M109.326 147.133H99.0749V191.96H109.326V147.133Z" fill="#E6E6E6"/>
<path d="M104.888 191.966H109.326V184.522H104.783L104.888 191.966Z" fill="#F5F5F5"/>
<path d="M50.239 147.133H39.988V191.96H50.239V147.133Z" fill="#E6E6E6"/>
<path d="M109.326 147.133H46.3637V189.401H109.326V147.133Z" fill="#F5F5F5"/>
<path d="M50.8017 191.966H46.3637V184.522H50.912L50.8017 191.966Z" fill="#F5F5F5"/>
<path d="M105.886 150.689H49.8097V166.277H105.886V150.689Z" fill="#F0F0F0"/>
<path d="M77.8477 161.155C76.9465 161.156 76.0652 160.889 75.3154 160.389C74.5656 159.889 73.981 159.178 73.6356 158.346C73.2902 157.514 73.1995 156.597 73.375 155.713C73.5506 154.829 73.9844 154.017 74.6217 153.38C75.2589 152.743 76.0709 152.309 76.9549 152.134C77.8388 151.958 78.7549 152.049 79.5873 152.394C80.4197 152.74 81.1309 153.324 81.6309 154.074C82.1308 154.824 82.3971 155.705 82.396 156.606C82.3944 157.812 81.9147 158.968 81.0621 159.821C80.2095 160.673 79.0535 161.153 77.8477 161.155ZM77.8477 152.534C77.0445 152.534 76.2594 152.772 75.5915 153.218C74.9237 153.664 74.4032 154.299 74.0959 155.041C73.7885 155.783 73.7081 156.599 73.8648 157.387C74.0215 158.175 74.4082 158.898 74.9762 159.466C75.5441 160.034 76.2677 160.421 77.0554 160.578C77.8432 160.734 78.6597 160.654 79.4017 160.346C80.1438 160.039 80.778 159.519 81.2242 158.851C81.6705 158.183 81.9086 157.398 81.9086 156.595C81.9086 155.518 81.4808 154.485 80.7192 153.723C79.9576 152.962 78.9247 152.534 77.8477 152.534Z" fill="white"/>
<path d="M105.886 170.048H49.8097V185.636H105.886V170.048Z" fill="#F0F0F0"/>
<path d="M77.8477 180.514C76.9467 180.515 76.0657 180.249 75.316 179.749C74.5663 179.249 73.9817 178.538 73.6361 177.706C73.2906 176.874 73.1995 175.958 73.3746 175.075C73.5497 174.191 73.983 173.379 74.6196 172.741C75.2563 172.104 76.0677 171.67 76.9513 171.493C77.8348 171.317 78.7508 171.407 79.5833 171.752C80.4158 172.096 81.1274 172.68 81.628 173.429C82.1287 174.178 82.3959 175.059 82.3959 175.96C82.3944 177.166 81.9149 178.322 81.0624 179.176C80.21 180.03 79.054 180.511 77.8477 180.514ZM77.8477 171.887C77.0445 171.887 76.2594 172.125 75.5915 172.571C74.9237 173.018 74.4032 173.652 74.0959 174.394C73.7885 175.136 73.7081 175.952 73.8648 176.74C74.0215 177.528 74.4082 178.252 74.9762 178.819C75.5441 179.387 76.2677 179.774 77.0554 179.931C77.8432 180.088 78.6597 180.007 79.4017 179.7C80.1438 179.392 80.778 178.872 81.2242 178.204C81.6705 177.536 81.9086 176.751 81.9086 175.948C81.9086 174.871 81.4808 173.838 80.7192 173.076C79.9576 172.315 78.9247 171.887 77.8477 171.887Z" fill="white"/>
<path d="M177.915 191.966H212.898V140.119H177.915V191.966Z" fill="#E6E6E6"/>
<path d="M258.873 140.113H212.898V191.96H258.873V140.113Z" fill="#F0F0F0"/>
<g style="mix-blend-mode:multiply" opacity="0.7">
<path d="M177.921 141.07H258.873V135.698H177.921V141.07Z" fill="#E6E6E6"/>
</g>
<path d="M176.152 140.113H212.898V135.147H176.152V140.113Z" fill="#E6E6E6"/>
<path d="M260.637 135.153H212.898V140.119H260.637V135.153Z" fill="#F0F0F0"/>
<path d="M135.96 191.96H164.578V159.959H135.96V191.96Z" fill="#EBEBEB"/>
<path d="M202.188 159.959H164.578V191.96H202.188V159.959Z" fill="#F5F5F5"/>
<g style="mix-blend-mode:multiply" opacity="0.7">
<path d="M135.96 160.743H202.188V156.351H135.96V160.743Z" fill="#E6E6E6"/>
</g>
<path d="M134.515 159.959H164.578V155.898H134.515V159.959Z" fill="#EBEBEB"/>
<path d="M203.633 155.898H164.578V159.959H203.633V155.898Z" fill="#F5F5F5"/>
<path d="M244.37 26.8124H186.031V117.064H244.37V26.8124Z" fill="#E6E6E6"/>
<path d="M249.359 26.8124H186.878V117.064H249.359V26.8124Z" fill="#F5F5F5"/>
<path d="M245.379 109.952V33.9307C245.379 32.2005 243.977 30.7979 242.247 30.7979L193.997 30.7979C192.267 30.7979 190.864 32.2005 190.864 33.9307V109.952C190.864 111.682 192.267 113.084 193.997 113.084H242.247C243.977 113.084 245.379 111.682 245.379 109.952Z" fill="white"/>
<path d="M229.76 63.5628L226.495 60.2975L206.48 80.312L209.745 83.5773L229.76 63.5628Z" fill="#F5F5F5"/>
<path d="M221.528 55.332L218.262 52.0667L198.248 72.0813L201.513 75.3466L221.528 55.332Z" fill="#F5F5F5"/>
<path d="M237.992 71.7936L234.727 68.5283L214.712 88.5428L217.977 91.8082L237.992 71.7936Z" fill="#F5F5F5"/>
<path d="M150.034 218.164C212.156 218.164 262.517 215.224 262.517 211.597C262.517 207.97 212.156 205.03 150.034 205.03C87.9116 205.03 37.5514 207.97 37.5514 211.597C37.5514 215.224 87.9116 218.164 150.034 218.164Z" fill="#F5F5F5"/>
<path d="M150.997 170.547L151.653 168.302H119.745L107.719 209.277H113.52L119.322 189.552H127.026L132.827 209.277H139.65L145.451 189.552H153.109L158.91 209.277H162.391L150.997 170.547ZM119.774 188.009L123.168 176.453L126.556 188.009H119.774ZM135.037 205.077L130.489 189.575H139.592L135.037 205.077ZM140.05 188.009H130.025L124.902 170.547L125.1 169.868H145.393L140.05 188.009ZM145.851 188.009L149.245 176.453L152.633 188.009H145.851Z" fill="#42C2FF"/>
<path opacity="0.2" d="M150.997 170.547L151.653 168.302H119.745L107.719 209.277H113.52L119.322 189.552H127.026L132.827 209.277H139.65L145.451 189.552H153.109L158.91 209.277H162.391L150.997 170.547ZM119.774 188.009L123.168 176.453L126.556 188.009H119.774ZM135.037 205.077L130.489 189.575H139.592L135.037 205.077ZM140.05 188.009H130.025L124.902 170.547L125.1 169.868H145.393L140.05 188.009ZM145.851 188.009L149.245 176.453L152.633 188.009H145.851Z" fill="black"/>
<path d="M152.848 168.302H123.29L135.316 209.277H138.797L132.995 189.552H155.621L161.422 209.277H164.903L152.848 168.302ZM132.543 188.026L127.217 169.886H149.843L155.162 188.026H132.543Z" fill="#42C2FF"/>
<path opacity="0.4" d="M152.848 168.302H123.29L135.316 209.277H138.797L132.995 189.552H155.621L161.422 209.277H164.903L152.848 168.302ZM132.572 188.009L127.246 169.868H149.872L155.191 188.009H132.572Z" fill="white"/>
<path d="M152.244 21.1271C152.244 21.1271 153.526 18.0814 160.511 18.8065C165.587 19.3345 168.674 24.7993 168.291 32.5325C167.908 40.2658 164.735 43.6015 164.735 43.6015L148.085 34.9459C148.085 34.9459 146.948 22.1423 152.244 21.1271Z" fill="#263238"/>
<path d="M167.247 29.2954V41.2868C169.857 30.4905 167.247 29.2954 167.247 29.2954Z" fill="#263238"/>
<path d="M166.4 24.4571L169.115 36.1352C168.511 23.0589 165.698 22.4556 166.4 24.4571Z" fill="#263238"/>
<path d="M165.965 53.7713C166.388 54.8968 166.835 56.0919 167.31 57.2521C167.786 58.4124 168.262 59.5727 168.778 60.733C169.295 61.8932 169.846 62.9723 170.42 64.0397C170.716 64.5677 171 65.084 171.325 65.5829C171.476 65.8498 171.644 66.0644 171.807 66.3139L172.021 66.6271C172.052 66.6744 172.087 66.719 172.126 66.7606C172.379 66.9989 172.682 67.1773 173.013 67.2827C173.489 67.4431 173.981 67.5501 174.481 67.6018C175.638 67.7143 176.804 67.7143 177.962 67.6018C179.199 67.5059 180.431 67.3451 181.651 67.1203C182.887 66.9172 184.146 66.6446 185.347 66.3719L186.13 68.559C183.675 69.6765 181.102 70.5171 178.461 71.0652C177.064 71.3579 175.641 71.498 174.214 71.4829C173.417 71.4643 172.625 71.3553 171.853 71.158C170.927 70.9312 170.065 70.499 169.329 69.8933C169.123 69.7138 168.929 69.5199 168.749 69.3132C168.645 69.1971 168.604 69.1391 168.546 69.0695L168.378 68.8607C168.163 68.5764 167.92 68.2805 167.728 68.0079L167.148 67.1435L166.568 66.2675C165.849 65.114 165.189 63.9251 164.59 62.7054C164.009 61.4929 163.429 60.2805 162.919 59.0506C162.408 57.8207 161.933 56.5966 161.503 55.2797L165.965 53.7713Z" fill="#FFC3BD"/>
<path d="M185.045 68.9999L187.946 69.7483L188.439 65.815C188.439 65.815 185.498 65.7802 184.094 67.0739L185.045 68.9999Z" fill="#FFC3BD"/>
<path d="M191.537 69.9745L191.125 67.068L188.41 65.8149L187.923 69.7483L191.537 69.9745Z" fill="#FFC3BD"/>
<path opacity="0.2" d="M191.537 69.9745L191.125 67.068L189.889 66.4995L188.41 69.7773L191.537 69.9745Z" fill="black"/>
<path d="M157.895 50.6038C158.075 52.1121 159.171 55.0186 160.065 57.1941C160.714 58.7605 161.225 59.9382 161.225 59.9382L162.089 59.6133L169.271 56.9041C168.906 53.0056 168.221 48.7474 164.114 46.6009C161.561 45.2491 157.576 47.9062 157.895 50.6038Z" fill="#FFDA55"/>
<path opacity="0.3" d="M160.065 57.1941C160.714 58.7605 161.225 59.9382 161.225 59.9382L162.089 59.6133C162.043 58.0817 161.851 55.6568 161.086 54.5255C160.555 55.3303 160.207 56.241 160.065 57.1941Z" fill="black"/>
<path d="M133.024 163.649L137.677 164.09L138.924 153.357L134.278 152.917L133.024 163.649Z" fill="#FFC3BD"/>
<path d="M94.7296 151.066L98.4773 153.885L105.932 146.025L102.184 143.205L94.7296 151.066Z" fill="#FFC3BD"/>
<path d="M99.2141 153.502L96.5281 148.96C96.4829 148.882 96.4105 148.824 96.3249 148.796C96.2392 148.768 96.1463 148.773 96.0639 148.809L92.2641 150.486C92.1689 150.534 92.0846 150.601 92.0164 150.683C91.9482 150.764 91.8975 150.86 91.8676 150.962C91.8377 151.064 91.8291 151.171 91.8424 151.277C91.8557 151.383 91.8906 151.485 91.945 151.576C92.9138 153.137 93.4533 153.845 94.6368 155.84C95.362 157.07 96.7949 159.901 97.7986 161.59C98.8022 163.278 100.49 162.35 100.218 161.549C99.0052 157.97 99.1329 155.939 99.3707 154.326C99.4171 154.042 99.3617 153.75 99.2141 153.502Z" fill="#263238"/>
<path d="M138.269 162.727H132.729C132.631 162.728 132.536 162.761 132.459 162.822C132.382 162.883 132.328 162.968 132.305 163.063L131.22 167.443C131.195 167.549 131.193 167.659 131.217 167.765C131.24 167.871 131.288 167.971 131.355 168.056C131.423 168.141 131.509 168.209 131.608 168.256C131.706 168.303 131.813 168.326 131.922 168.325C133.871 168.325 134.823 168.186 137.236 168.186C138.733 168.186 142.608 168.331 144.679 168.331C146.75 168.331 147.069 166.283 146.228 166.097C142.446 165.268 140.253 164.125 139.064 163.028C138.846 162.831 138.562 162.723 138.269 162.727Z" fill="#263238"/>
<path opacity="0.2" d="M138.924 153.357L138.28 158.892H133.576L134.272 152.917L138.924 153.357Z" fill="black"/>
<path opacity="0.2" d="M102.184 143.205L105.926 146.03L102.086 150.08L98.3381 147.254L102.184 143.205Z" fill="black"/>
<path d="M135.821 65.902L153.474 72.8636C166.957 48.759 165.245 47.3376 165.245 47.3376C165.245 47.3376 162.461 45.4812 159.542 43.8974C159.102 43.6596 158.655 43.4275 158.214 43.2012C155.621 41.9598 152.944 40.9033 150.202 40.0395C149.796 39.9003 149.396 39.7726 148.99 39.645C146.807 38.9897 144.587 38.4667 142.341 38.0786C141.924 41.513 141.529 44.4137 141.123 46.9315C140.601 50.2151 140.079 52.8373 139.522 55.0998C138.581 58.7942 137.343 62.4067 135.821 65.902Z" fill="#FCE07E"/>
<path opacity="0.3" d="M139.522 55.0824C141.355 52.7155 143.252 47.0882 142.916 44.9069L141.123 46.9141C140.601 50.1803 140.079 52.8199 139.522 55.0824Z" fill="black"/>
<path d="M161.741 44.3789C161.004 40.4456 149.083 37.5275 149.083 37.5275L155.835 49.2463L156.903 49.6756C156.903 49.6756 162.217 46.9953 161.741 44.3789Z" fill="#CFAE39"/>
<path d="M153.451 34.9633C152.766 37.1968 151.711 39.3781 150.196 40.0221C150.196 40.0221 149.378 45.8235 154.727 51.3754C160.778 47.7089 158.208 43.1838 158.208 43.1838C155.58 41.3564 156.224 39.4071 158.168 36.5007L156.195 34.7138C156.06 34.4502 155.849 34.2329 155.59 34.09C155.33 33.9471 155.034 33.8851 154.739 33.9119C154.444 33.9387 154.163 34.0532 153.934 34.2405C153.705 34.4279 153.536 34.6796 153.451 34.9633Z" fill="#FFC3BD"/>
<path d="M148.752 39.558L149.083 37.5275C149.083 37.5275 151.838 39.0127 152.981 41.4144C154.124 43.8162 152.355 48.3413 152.355 48.3413L148.073 44.2513L148.752 39.558Z" fill="#FFDA55"/>
<path opacity="0.2" d="M156.201 34.708C156.073 34.4608 155.878 34.2542 155.639 34.1118C155.4 33.9694 155.126 33.8968 154.847 33.9022C154.569 33.9077 154.298 33.9909 154.064 34.1426C153.831 34.2942 153.645 34.5082 153.526 34.7603C153.984 36.7167 155.036 38.4837 156.537 39.819C156.87 38.6214 157.423 37.4962 158.167 36.5007L156.201 34.708Z" fill="black"/>
<path d="M151.56 26.9748C151.687 31.6507 151.647 33.629 153.88 36.1468C157.245 39.9409 162.855 38.885 164.102 34.2904C165.222 30.1598 164.822 23.2098 160.401 21.1039C159.437 20.6325 158.367 20.4215 157.296 20.4919C156.225 20.5623 155.192 20.9117 154.298 21.5052C153.404 22.0988 152.681 22.916 152.2 23.8755C151.72 24.835 151.499 25.9035 151.56 26.9748Z" fill="#FFC3BD"/>
<path d="M152.006 22.8675C155.487 26.5455 162.112 24.3178 162.112 24.3178L165.593 26.4237L163.748 22.2351L159.687 19.8508C159.687 19.8508 150.225 20.982 152.006 22.8675Z" fill="#263238"/>
<path d="M152.389 21.4171C153.639 22.5998 154.598 24.0551 155.191 25.6695C156.352 28.5702 151.711 30.7921 151.711 30.7921C151.711 30.7921 147.94 26.8298 152.389 21.4171Z" fill="#263238"/>
<path d="M150.382 31.2214C150.563 32.1096 151.083 32.8922 151.832 33.4027C152.824 34.0699 153.66 33.2693 153.671 32.1322C153.671 31.1112 153.178 29.5332 152.047 29.3244C150.916 29.1155 150.162 30.1308 150.382 31.2214Z" fill="#FFC3BD"/>
<path d="M153.474 72.8636C153.474 72.8636 150.347 96.4288 148.062 114.552C146.246 128.957 139.592 156.722 139.592 156.722L132.798 156.049C132.798 156.049 135.635 124.542 138.24 114.43C136.633 93.6325 132.438 73.496 139.29 67.1667L153.474 72.8636Z" fill="#263238"/>
<path d="M131.713 154.39L140.671 154.663L140.183 157.726L131.8 157.598L131.713 154.39Z" fill="#42C2FF"/>
<path opacity="0.3" d="M142.33 85.0407L135.531 79.3901C135.293 86.6592 136.482 96.0574 137.486 106.076C140.926 98.8711 143.31 91.1611 142.33 85.0407Z" fill="black"/>
<path d="M149.599 71.4017C149.599 71.4017 137.022 97.618 131.986 115.103C125.697 128.928 104.569 148.751 104.569 148.751L99.7536 144.452C99.7536 144.452 116.641 116.136 122.379 111.332C125.129 91.0799 127.281 71.6337 135.815 65.9136L149.599 71.4017Z" fill="#3A464B"/>
<path d="M104.337 150.289L98.0886 145.114L99.713 142.317L106.564 148.333L104.337 150.289Z" fill="#42C2FF"/>
<path d="M135.937 64.7533L134.562 66.0354C134.457 66.134 134.562 66.3197 134.759 66.3951L153.271 73.699C153.434 73.7628 153.59 73.7396 153.637 73.641L154.379 72.1094C154.426 72.005 154.321 71.8542 154.147 71.7846L136.273 64.7301C136.22 64.704 136.161 64.6924 136.102 64.6965C136.043 64.7006 135.986 64.7202 135.937 64.7533Z" fill="#FFEEB1"/>
<path d="M137.607 67.7178L137.126 67.5264C137.033 67.4915 136.981 67.4103 137.004 67.3523L137.985 65.3741C138.014 65.316 138.112 65.2986 138.205 65.3334L138.687 65.5249C138.779 65.5597 138.837 65.6409 138.808 65.6989L137.851 67.683C137.805 67.741 137.7 67.7584 137.607 67.7178Z" fill="#263238"/>
<path d="M151.867 73.3451L151.386 73.1537C151.293 73.1189 151.235 73.0377 151.264 72.9796L152.239 70.9956C152.239 70.9376 152.372 70.9202 152.465 70.9608L152.946 71.1464C153.039 71.187 153.097 71.2624 153.068 71.3204L152.088 73.3045C152.059 73.3857 151.96 73.3857 151.867 73.3451Z" fill="#263238"/>
<path d="M144.737 70.5315L144.256 70.34C144.163 70.3052 144.105 70.224 144.134 70.166L145.109 68.1819C145.138 68.1239 145.242 68.1065 145.335 68.1471L145.816 68.3385C145.909 68.3734 145.967 68.4488 145.938 68.5126L144.964 70.4851C144.935 70.5489 144.813 70.5663 144.737 70.5315Z" fill="#263238"/>
<path d="M158.26 28.6456C158.26 29.0285 158.44 29.3476 158.684 29.3592C158.928 29.3708 159.136 29.0749 159.148 28.6978C159.16 28.3208 158.968 27.9959 158.724 27.9843C158.481 27.9727 158.278 28.2685 158.26 28.6456Z" fill="#263238"/>
<path d="M162.478 28.8835C162.478 29.2606 162.658 29.5796 162.901 29.5971C163.145 29.6145 163.348 29.3128 163.366 28.9299C163.383 28.547 163.186 28.2337 162.942 28.2221C162.698 28.2105 162.495 28.5064 162.478 28.8835Z" fill="#263238"/>
<path d="M162.838 28.2338L163.743 28.0249C163.743 28.0249 163.255 28.7153 162.838 28.2338Z" fill="#263238"/>
<path d="M162.002 29.4172C162.307 30.3008 162.729 31.1397 163.255 31.9118C163.059 32.0396 162.837 32.1221 162.606 32.1532C162.374 32.1843 162.138 32.1633 161.915 32.0917L162.002 29.4172Z" fill="#ED847E"/>
<path d="M160.146 33.5536C160.165 33.5429 160.181 33.5278 160.193 33.5097C160.205 33.4915 160.213 33.4708 160.215 33.4492C160.214 33.4198 160.202 33.3919 160.182 33.3705C160.162 33.3492 160.134 33.3359 160.105 33.3332C159.636 33.314 159.177 33.1855 158.766 32.9579C158.356 32.7302 158.003 32.4098 157.738 32.022C157.723 31.9977 157.699 31.9801 157.671 31.9726C157.643 31.965 157.613 31.9682 157.587 31.9814C157.563 31.998 157.545 32.0232 157.537 32.052C157.53 32.0809 157.533 32.1115 157.547 32.1381C157.831 32.5588 158.21 32.9068 158.653 33.1537C159.097 33.4006 159.592 33.5396 160.099 33.5594L160.146 33.5536Z" fill="#263238"/>
<path d="M157.895 27.1721C157.933 27.1598 157.965 27.1353 157.988 27.1025C158.155 26.8858 158.372 26.7126 158.62 26.5975C158.869 26.4823 159.141 26.4287 159.415 26.4411C159.473 26.4461 159.531 26.4283 159.576 26.3915C159.622 26.3548 159.651 26.3018 159.658 26.2439C159.664 26.185 159.646 26.1264 159.609 26.08C159.573 26.0337 159.52 26.0031 159.461 25.9944C159.114 25.9715 158.767 26.0348 158.45 26.1785C158.133 26.3222 157.857 26.542 157.645 26.8182C157.609 26.8647 157.593 26.9234 157.599 26.9819C157.606 27.0404 157.635 27.094 157.68 27.1315C157.71 27.1558 157.745 27.1723 157.782 27.1794C157.82 27.1865 157.859 27.184 157.895 27.1721Z" fill="#263238"/>
<path d="M99.9393 155.927L100.009 155.956C100.111 155.983 100.218 155.982 100.32 155.955C100.421 155.927 100.514 155.874 100.589 155.8C100.644 155.76 100.686 155.706 100.713 155.644C100.74 155.581 100.749 155.513 100.74 155.446C100.664 154.866 99.1677 154.106 98.9994 154.025C98.9826 154.012 98.9623 154.006 98.9414 154.006C98.9206 154.006 98.9003 154.012 98.8834 154.025C98.8669 154.038 98.8548 154.057 98.8486 154.077C98.8425 154.098 98.8424 154.12 98.8486 154.141C99.0343 154.732 99.4113 155.701 99.9393 155.927ZM99.1503 154.344C99.7304 154.663 100.49 155.162 100.525 155.475C100.53 155.505 100.526 155.536 100.514 155.564C100.501 155.591 100.481 155.615 100.456 155.632C100.405 155.681 100.343 155.718 100.275 155.737C100.207 155.756 100.136 155.758 100.067 155.742C99.7652 155.649 99.4287 155.133 99.1503 154.344Z" fill="#42C2FF"/>
<path d="M99.0168 154.274C99.5274 154.5 100.659 154.645 101.018 154.303C101.083 154.243 101.125 154.162 101.138 154.075C101.15 153.987 101.133 153.898 101.088 153.822C101.055 153.743 101.005 153.673 100.942 153.616C100.879 153.558 100.804 153.516 100.722 153.491C100.084 153.294 98.9472 153.996 98.9008 154.03C98.8841 154.041 98.8705 154.055 98.8613 154.073C98.8521 154.09 98.8477 154.109 98.8486 154.129C98.8494 154.148 98.8551 154.167 98.8653 154.183C98.8754 154.199 98.8897 154.213 98.9066 154.222L99.0168 154.274ZM100.705 153.723C100.788 153.762 100.855 153.83 100.891 153.914C100.949 154.048 100.891 154.106 100.891 154.141C100.653 154.367 99.7304 154.309 99.2199 154.112C99.6509 153.828 100.16 153.686 100.676 153.706L100.705 153.723Z" fill="#42C2FF"/>
<path d="M140.752 163.614C141.128 163.641 141.503 163.55 141.825 163.353C141.908 163.291 141.975 163.21 142.021 163.118C142.067 163.025 142.091 162.923 142.092 162.819C142.097 162.761 142.086 162.702 142.06 162.649C142.035 162.596 141.996 162.551 141.947 162.518C141.431 162.181 139.568 163.034 139.203 163.214C139.182 163.223 139.165 163.239 139.154 163.259C139.144 163.279 139.14 163.302 139.145 163.324C139.148 163.348 139.157 163.369 139.173 163.387C139.189 163.405 139.209 163.417 139.232 163.423C139.731 163.537 140.24 163.602 140.752 163.614ZM141.605 162.657C141.681 162.65 141.758 162.666 141.825 162.703C141.842 162.715 141.855 162.731 141.863 162.749C141.871 162.768 141.874 162.788 141.871 162.808C141.872 162.88 141.855 162.951 141.823 163.016C141.791 163.08 141.744 163.136 141.686 163.179C141.367 163.423 140.607 163.458 139.609 163.272C140.238 162.965 140.911 162.757 141.605 162.657Z" fill="#42C2FF"/>
<path d="M139.255 163.423H139.296C139.916 163.162 141.146 162.152 141.036 161.63C141.036 161.514 140.937 161.375 140.653 161.34C139.545 161.207 139.139 163.208 139.122 163.295C139.116 163.315 139.117 163.335 139.124 163.354C139.132 163.373 139.145 163.389 139.162 163.4C139.175 163.411 139.19 163.418 139.206 163.422C139.222 163.427 139.239 163.427 139.255 163.423ZM140.578 161.566H140.653C140.769 161.566 140.833 161.613 140.845 161.665C140.891 161.972 140.044 162.767 139.418 163.115C139.551 162.622 139.916 161.566 140.578 161.566Z" fill="#42C2FF"/>
<path d="M158.62 28.0017L159.525 27.787C159.525 27.787 159.038 28.4716 158.62 28.0017Z" fill="#263238"/>
<path d="M142.347 45.661C140.473 47.4014 138.582 49.2057 136.772 51.0157C135.867 51.9265 134.991 52.8547 134.156 53.7887C133.339 54.6728 132.585 55.613 131.899 56.6024C131.663 56.9373 131.468 57.2996 131.319 57.6815C131.319 57.6815 131.319 57.606 131.319 57.6815C131.313 57.7529 131.313 57.8247 131.319 57.8961C131.335 58.0554 131.366 58.2127 131.412 58.366C131.798 59.245 132.41 60.0058 133.187 60.5705C135.147 62.0402 137.303 63.2294 139.592 64.1036L139.011 66.3603C138.286 66.2559 137.636 66.1166 136.958 65.9542C136.279 65.7946 135.609 65.601 134.95 65.3741C133.578 64.9302 132.262 64.3287 131.029 63.5814C130.356 63.171 129.729 62.6885 129.161 62.1427C128.514 61.5203 127.984 60.7876 127.594 59.9788C127.381 59.5249 127.226 59.0452 127.136 58.5517C127.09 58.2987 127.06 58.0428 127.049 57.7859C127.038 57.6178 127.038 57.4492 127.049 57.2812C127.049 57.1187 127.09 56.9389 127.119 56.7997C127.221 56.309 127.381 55.832 127.594 55.3783C127.774 54.9838 127.966 54.6357 128.174 54.2993C128.928 53.0792 129.769 51.9158 130.692 50.8184C131.574 49.7568 132.491 48.7532 133.419 47.7727C135.275 45.8003 137.184 43.9612 139.22 42.157L142.347 45.661Z" fill="#FFC3BD"/>
<path d="M137.758 65.9136L140.079 68.9535L142.399 65.7569C142.399 65.7569 140.224 63.7845 138.338 63.8251L137.758 65.9136Z" fill="#FFC3BD"/>
<path d="M141.976 70.9376L143.589 68.4952L142.388 65.757L140.061 68.9477L141.976 70.9376Z" fill="#FFC3BD"/>
<path d="M142.341 38.0612C140.021 37.7944 135.188 43.2825 135.188 43.2825L139.522 50.9345C139.522 50.9345 145.944 46.392 145.706 43.4855C145.497 40.9329 145.294 38.3977 142.341 38.0612Z" fill="#FFDA55"/>
<path d="M195.748 110.118L194.355 112.529L194.857 112.819L196.25 110.408L195.748 110.118Z" fill="#42C2FF"/>
<path d="M202.224 98.9238L197.18 107.654L197.682 107.944L202.727 99.2141L202.224 98.9238Z" fill="#42C2FF"/>
<path d="M218.496 43.4217L178.147 61.7656H193.77L140.323 154.28H168.569L222.017 61.7656H237.64L218.496 43.4217Z" fill="#42C2FF"/>
<path d="M168.569 154.28H140.323L121.108 121.015H149.349L168.569 154.28Z" fill="#42C2FF"/>
<path opacity="0.3" d="M168.569 154.28H140.323L121.108 121.015H149.349L168.569 154.28Z" fill="black"/>
<path d="M149.355 121.015H121.103L67.6547 213.529H95.9015L149.355 121.015Z" fill="#42C2FF"/>
</g>
</svg>
