<svg width="300" height="220" viewBox="0 0 300 220" fill="none" xmlns="http://www.w3.org/2000/svg">
<defs>
<linearGradient id="paint0_linear_67_712" x1="270.779" y1="-43.9785" x2="98.9404" y2="169.084" gradientUnits="userSpaceOnUse">
<stop stop-color="#F7F7F7"/>
<stop offset="1" stop-color="#E9EFFD"/>
</linearGradient>
<linearGradient id="paint1_linear_67_712" x1="223.036" y1="154.473" x2="212.192" y2="149.291" gradientUnits="userSpaceOnUse">
<stop stop-color="#FEBBBA"/>
<stop offset="1" stop-color="#FF928E"/>
</linearGradient>
<linearGradient id="paint2_linear_67_712" x1="214.65" y1="61.0604" x2="165.807" y2="13.1889" gradientUnits="userSpaceOnUse">
<stop stop-color="#FEBBBA"/>
<stop offset="1" stop-color="#FF928E"/>
</linearGradient>
<linearGradient id="paint3_linear_67_712" x1="176.297" y1="47.4198" x2="207.228" y2="65.0819" gradientUnits="userSpaceOnUse">
<stop stop-color="#FEBBBA"/>
<stop offset="1" stop-color="#FF928E"/>
</linearGradient>
<linearGradient id="paint4_linear_67_712" x1="215.521" y1="17.6171" x2="219.917" y2="44.3172" gradientUnits="userSpaceOnUse">
<stop stop-color="#FEBBBA"/>
<stop offset="1" stop-color="#FF928E"/>
</linearGradient>
<linearGradient id="paint5_linear_67_712" x1="214.549" y1="17.7774" x2="218.944" y2="44.4776" gradientUnits="userSpaceOnUse">
<stop stop-color="#FEBBBA"/>
<stop offset="1" stop-color="#FF928E"/>
</linearGradient>
<linearGradient id="paint6_linear_67_712" x1="562.346" y1="467.962" x2="582.983" y2="493.722" gradientUnits="userSpaceOnUse">
<stop stop-color="#FEBBBA"/>
<stop offset="1" stop-color="#FF928E"/>
</linearGradient>
<linearGradient id="paint7_linear_67_712" x1="566.021" y1="465.018" x2="586.658" y2="490.778" gradientUnits="userSpaceOnUse">
<stop stop-color="#FEBBBA"/>
<stop offset="1" stop-color="#FF928E"/>
</linearGradient>
<linearGradient id="paint8_linear_67_712" x1="15.7234" y1="199.51" x2="140.918" y2="44.0614" gradientUnits="userSpaceOnUse">
<stop stop-color="#B37CFF"/>
<stop offset="1" stop-color="#F895E7"/>
</linearGradient>
<linearGradient id="paint9_linear_67_712" x1="146.071" y1="135.815" x2="-30.9138" y2="-151.223" gradientUnits="userSpaceOnUse">
<stop stop-color="#53D8FF"/>
<stop offset="1" stop-color="#3840F7"/>
</linearGradient>
<linearGradient id="paint10_linear_67_712" x1="79.7161" y1="31.256" x2="68.8344" y2="31.256" gradientUnits="userSpaceOnUse">
<stop stop-color="#FEBBBA"/>
<stop offset="1" stop-color="#FF928E"/>
</linearGradient>
<linearGradient id="paint11_linear_67_712" x1="64.9546" y1="52.738" x2="83.0868" y2="68.9839" gradientUnits="userSpaceOnUse">
<stop stop-color="#FEBBBA"/>
<stop offset="1" stop-color="#FF928E"/>
</linearGradient>
<linearGradient id="paint12_linear_67_712" x1="83.9326" y1="20.8999" x2="69.6621" y2="39.7816" gradientUnits="userSpaceOnUse">
<stop stop-color="#FEBBBA"/>
<stop offset="1" stop-color="#FF928E"/>
</linearGradient>
<linearGradient id="paint13_linear_67_712" x1="63.6041" y1="35.6418" x2="74.7065" y2="24.2507" gradientUnits="userSpaceOnUse">
<stop stop-color="#FEBBBA"/>
<stop offset="1" stop-color="#FF928E"/>
</linearGradient>
<linearGradient id="paint14_linear_67_712" x1="176.428" y1="45.387" x2="243.024" y2="60.3697" gradientUnits="userSpaceOnUse">
<stop stop-color="#FEBBBA"/>
<stop offset="1" stop-color="#FF928E"/>
</linearGradient>
<linearGradient id="paint15_linear_67_712" x1="210.793" y1="74.7752" x2="163.905" y2="27.8809" gradientUnits="userSpaceOnUse">
<stop stop-color="#FEBBBA"/>
<stop offset="1" stop-color="#FF928E"/>
</linearGradient>
<linearGradient id="paint16_linear_67_712" x1="177.831" y1="171.103" x2="147.972" y2="131.36" gradientUnits="userSpaceOnUse">
<stop stop-color="#FEBBBA"/>
<stop offset="1" stop-color="#FF928E"/>
</linearGradient>
<linearGradient id="paint17_linear_67_712" x1="210.939" y1="144.225" x2="225.274" y2="138.002" gradientUnits="userSpaceOnUse">
<stop stop-color="#FEBBBA"/>
<stop offset="1" stop-color="#FF928E"/>
</linearGradient>
<linearGradient id="paint18_linear_67_712" x1="212.577" y1="147.998" x2="226.913" y2="141.776" gradientUnits="userSpaceOnUse">
<stop stop-color="#FEBBBA"/>
<stop offset="1" stop-color="#FF928E"/>
</linearGradient>
<clipPath id="clip0_67_712">
<rect width="191.837" height="193.051" fill="white" transform="matrix(1 0 0 -1 54 206.051)"/>
</clipPath>
<clipPath id="clip1_67_712">
<rect width="202" height="203" fill="white" transform="matrix(-1 0 0 1 251 8)"/>
</clipPath>
</defs>
<g clip-path="url(#clip0_67_712)">
<path d="M223.6 40.1511C219.661 35.9969 215.933 33.3186 212.988 31.202C178.373 6.32416 137.413 13.5759 128.711 15.3468C115.856 17.9619 91.0079 23.0165 73.0435 44.1775C45.8647 76.1918 50.0973 126.63 71.1784 159.924C75.0319 166.018 95.4012 199.82 136.803 205.241C161.858 208.521 191.064 201.905 212.215 184.156C256.61 146.899 253.451 71.6329 223.6 40.1511Z" fill="url(#paint0_linear_67_712)"/>
</g>
<g clip-path="url(#clip1_67_712)">
<g opacity="0.3">
<path opacity="0.3" d="M135.541 40.4962C135.464 40.4682 135.383 40.4555 135.301 40.459C135.22 40.4624 135.14 40.4819 135.066 40.5163C134.992 40.5506 134.925 40.5993 134.87 40.6594C134.815 40.7195 134.772 40.7898 134.744 40.8665C134.515 41.4919 134.255 42.1172 133.973 42.7237C133.904 42.8713 133.896 43.0399 133.951 43.1933C134.005 43.3467 134.118 43.4725 134.264 43.5437L134.275 43.5488C134.424 43.6183 134.595 43.6258 134.75 43.5695C134.905 43.5132 135.031 43.3977 135.1 43.2485C135.398 42.6092 135.671 41.9511 135.912 41.2929C135.964 41.1488 135.962 40.9903 135.905 40.8479C135.847 40.7056 135.74 40.5894 135.602 40.5217C135.582 40.5121 135.562 40.5036 135.541 40.4962ZM132.394 45.5846C132.029 46.1473 131.641 46.6998 131.233 47.2268C131.18 47.291 131.141 47.3652 131.117 47.4449C131.093 47.5247 131.086 47.6084 131.095 47.691C131.105 47.7737 131.131 47.8536 131.171 47.9261C131.212 47.9986 131.267 48.0622 131.333 48.113C131.399 48.1639 131.474 48.201 131.555 48.2221C131.635 48.2433 131.719 48.248 131.801 48.2362C131.884 48.2243 131.963 48.196 132.034 48.1529C132.105 48.1099 132.167 48.0529 132.216 47.9856C132.644 47.4309 133.056 46.8492 133.438 46.2574C133.523 46.119 133.551 45.9526 133.515 45.794C133.479 45.6353 133.382 45.4971 133.246 45.409C133.109 45.3209 132.943 45.2899 132.784 45.3227C132.624 45.3556 132.484 45.4496 132.394 45.5846ZM129.061 49.6664C128.584 50.1329 128.08 50.5841 127.564 51.0075C127.437 51.1121 127.356 51.263 127.34 51.427C127.324 51.5909 127.374 51.7545 127.478 51.8818C127.583 52.0091 127.734 52.0897 127.898 52.1057C128.062 52.1218 128.226 52.0721 128.353 51.9675C128.896 51.5207 129.427 51.0454 129.93 50.5542C130.046 50.4392 130.113 50.2828 130.115 50.1189C130.117 49.9551 130.054 49.7972 129.94 49.6795C129.89 49.6285 129.832 49.5866 129.769 49.5556C129.654 49.4989 129.524 49.4791 129.397 49.4989C129.271 49.5187 129.153 49.5772 129.061 49.6664ZM124.9 52.9005C124.33 53.2489 123.734 53.5762 123.14 53.8743C123.065 53.9094 122.997 53.9592 122.942 54.0207C122.886 54.0823 122.844 54.1543 122.816 54.2326C122.789 54.3109 122.778 54.3938 122.783 54.4765C122.788 54.5593 122.81 54.6401 122.847 54.7143C122.884 54.7884 122.936 54.8544 122.999 54.9084C123.062 54.9623 123.135 55.0031 123.214 55.0283C123.293 55.0536 123.376 55.0628 123.459 55.0553C123.541 55.0479 123.621 55.024 123.695 54.9851C124.324 54.6717 124.947 54.3291 125.548 53.9603C125.619 53.9186 125.681 53.8631 125.731 53.7971C125.78 53.7311 125.816 53.6559 125.836 53.5759C125.856 53.4958 125.86 53.4126 125.848 53.3311C125.835 53.2495 125.807 53.1712 125.764 53.1008C125.721 53.0304 125.664 52.9693 125.597 52.921C125.53 52.8727 125.454 52.8382 125.374 52.8196C125.294 52.8009 125.21 52.7985 125.129 52.8124C125.048 52.8262 124.97 52.8562 124.9 52.9005ZM120.123 55.1272C119.491 55.3393 118.84 55.5281 118.19 55.6863C118.032 55.7273 117.897 55.8288 117.813 55.9689C117.729 56.1091 117.704 56.2765 117.743 56.435C117.782 56.5935 117.881 56.7304 118.02 56.8161C118.159 56.9017 118.326 56.9292 118.485 56.8926C119.169 56.7257 119.853 56.5282 120.518 56.3037C120.596 56.2777 120.667 56.2367 120.728 56.1832C120.79 56.1296 120.84 56.0644 120.876 55.9914C120.913 55.9185 120.934 55.839 120.94 55.7577C120.945 55.6764 120.935 55.5948 120.909 55.5176C120.883 55.4403 120.842 55.3689 120.788 55.3075C120.735 55.2461 120.67 55.1958 120.597 55.1596C120.524 55.1233 120.444 55.1018 120.363 55.0963C120.281 55.0907 120.2 55.1012 120.123 55.1272ZM114.971 56.241C114.307 56.3088 113.631 56.3481 112.963 56.3591C112.806 56.3721 112.66 56.4442 112.554 56.561C112.448 56.6777 112.391 56.8303 112.393 56.9878C112.396 57.1454 112.458 57.296 112.568 57.4094C112.677 57.5227 112.825 57.5902 112.983 57.5982C113.686 57.5865 114.397 57.5442 115.097 57.4735C115.231 57.4599 115.357 57.4028 115.456 57.311C115.555 57.2193 115.622 57.0977 115.645 56.9649C115.669 56.832 115.649 56.695 115.588 56.5747C115.527 56.4543 115.428 56.3571 115.307 56.2978C115.202 56.2475 115.086 56.2278 114.971 56.241ZM93.5487 47.7129C93.4857 47.7648 93.4335 47.8286 93.3951 47.9006C93.3568 47.9726 93.333 48.0515 93.3251 48.1328C93.3172 48.214 93.3255 48.296 93.3493 48.374C93.3732 48.4521 93.4122 48.5247 93.4641 48.5876C93.911 49.1292 94.3878 49.6591 94.8806 50.162C94.9968 50.2751 95.1526 50.3383 95.3148 50.338C95.4769 50.3377 95.6325 50.2741 95.7484 50.1606C95.8642 50.0472 95.9311 49.893 95.9347 49.7309C95.9383 49.5688 95.8784 49.4117 95.7678 49.2932C95.2997 48.8158 94.847 48.3121 94.4228 47.7975C94.3709 47.7345 94.307 47.6824 94.235 47.6441C94.1629 47.6058 94.084 47.5821 94.0027 47.5743C93.9215 47.5665 93.8395 47.5748 93.7615 47.5987C93.6834 47.6227 93.6109 47.6617 93.548 47.7137L93.5487 47.7129ZM109.704 56.1885C109.041 56.1069 108.374 55.9946 107.721 55.8569C107.56 55.8227 107.392 55.854 107.254 55.9437C107.116 56.0335 107.019 56.1743 106.985 56.3354C106.951 56.4964 106.982 56.6644 107.072 56.8024C107.162 56.9404 107.303 57.0371 107.464 57.0712C108.151 57.217 108.854 57.3343 109.551 57.4203C109.715 57.4405 109.88 57.395 110.009 57.2938C110.139 57.1926 110.223 57.0439 110.244 56.8806C110.264 56.7172 110.218 56.5526 110.117 56.4228C110.016 56.293 109.867 56.2087 109.704 56.1885ZM97.3416 51.5724C97.2914 51.6372 97.2544 51.7112 97.2329 51.7903C97.2114 51.8694 97.2057 51.952 97.2162 52.0333C97.2267 52.1146 97.2532 52.193 97.2941 52.264C97.335 52.335 97.3896 52.3972 97.4546 52.4471C98.0116 52.875 98.5948 53.2853 99.1867 53.6651C99.3252 53.7491 99.491 53.7758 99.6488 53.7394C99.8067 53.7029 99.944 53.6063 100.032 53.47C100.119 53.3338 100.15 53.1687 100.118 53.01C100.085 52.8513 99.9921 52.7116 99.8581 52.6206C99.2953 52.2561 98.7413 51.8698 98.2121 51.4624C98.1788 51.4371 98.1431 51.4151 98.1056 51.3968C97.9778 51.3335 97.8321 51.3161 97.693 51.3475C97.5538 51.379 97.4298 51.4574 97.3416 51.5695V51.5724ZM104.584 54.9545C103.956 54.7271 103.331 54.469 102.724 54.1877C102.577 54.1224 102.409 54.1174 102.258 54.1736C102.106 54.2298 101.982 54.343 101.913 54.4889C101.843 54.6349 101.834 54.8022 101.885 54.9553C101.937 55.1083 102.047 55.2351 102.191 55.3087L102.203 55.3146C102.841 55.6105 103.499 55.8816 104.159 56.1222C104.309 56.1778 104.474 56.1736 104.621 56.1105C104.768 56.0475 104.884 55.9303 104.947 55.7834C105.009 55.6365 105.013 55.4712 104.957 55.3217C104.901 55.1722 104.789 55.0501 104.645 54.9807C104.624 54.9749 104.602 54.9625 104.584 54.9545Z" fill="#BDD0FB"/>
<path opacity="0.3" d="M91.759 44.0299C91.873 44.0849 91.967 44.1741 92.028 44.285C92.184 44.5649 92.348 44.8455 92.5164 45.1203C92.559 45.1899 92.5874 45.2672 92.6001 45.3477C92.6128 45.4283 92.6095 45.5106 92.5904 45.5899C92.5712 45.6692 92.5367 45.7439 92.4887 45.8098C92.4406 45.8758 92.3801 45.9316 92.3105 45.9742C92.2409 46.0167 92.1636 46.0451 92.083 46.0578C92.0024 46.0705 91.9201 46.0672 91.8408 46.048C91.7615 46.0289 91.6867 45.9944 91.6208 45.9464C91.5548 45.8984 91.499 45.8378 91.4564 45.7683C91.28 45.4767 91.1072 45.1852 90.9461 44.8892C90.882 44.7737 90.8564 44.6407 90.873 44.5096C90.8897 44.3785 90.9477 44.2562 91.0387 44.1603C91.1297 44.0645 91.2489 44.0002 91.3789 43.9767C91.509 43.9532 91.6432 43.9719 91.7619 44.0299H91.759Z" fill="#BDD0FB"/>
</g>
<g opacity="0.3">
<path opacity="0.3" d="M89.7375 25.2091C89.87 25.2741 89.9749 25.3841 90.0335 25.5194C90.0922 25.6547 90.1007 25.8065 90.0575 25.9475C89.9642 26.2536 89.8753 26.5671 89.7944 26.8783C89.7514 27.036 89.648 27.1705 89.5065 27.2524C89.3651 27.3344 89.197 27.3573 89.0388 27.3161C88.8805 27.275 88.7449 27.1731 88.6613 27.0326C88.5778 26.8921 88.553 26.7243 88.5923 26.5656C88.6783 26.2376 88.7717 25.9096 88.8701 25.5852C88.8938 25.5072 88.9327 25.4347 88.9845 25.3717C89.0363 25.3088 89.1 25.2567 89.172 25.2183C89.244 25.18 89.3228 25.1563 89.4039 25.1484C89.4851 25.1406 89.567 25.1488 89.645 25.1727C89.6768 25.1822 89.7077 25.1944 89.7375 25.2091Z" fill="#BDD0FB"/>
<path opacity="0.3" d="M122.372 10.0023C122.221 9.94152 122.053 9.94209 121.903 10.0039C121.753 10.0656 121.633 10.1837 121.568 10.3328C121.504 10.4819 121.501 10.6502 121.56 10.8016C121.618 10.953 121.733 11.0755 121.881 11.143C122.481 11.401 123.079 11.6882 123.666 12.0002C123.809 12.0645 123.972 12.072 124.121 12.021C124.27 11.9701 124.394 11.8646 124.468 11.7257C124.542 11.5869 124.56 11.4251 124.52 11.2731C124.479 11.1211 124.382 10.9902 124.249 10.9068C123.995 10.7713 123.739 10.6408 123.483 10.5154C123.114 10.3354 122.74 10.1641 122.372 10.0023ZM126.256 12.8318C126.159 12.9654 126.12 13.1318 126.147 13.2943C126.173 13.4568 126.263 13.6022 126.396 13.6985C126.931 14.0833 127.454 14.4944 127.953 14.9216C128.078 15.0242 128.239 15.0737 128.401 15.0593C128.562 15.0449 128.712 14.9679 128.818 14.8447C128.923 14.7214 128.976 14.5618 128.966 14.3999C128.955 14.238 128.881 14.0867 128.76 13.9784C128.236 13.5287 127.684 13.0957 127.122 12.6912C127.094 12.6705 127.064 12.6522 127.032 12.6365C126.9 12.5719 126.749 12.5563 126.606 12.5925C126.464 12.6286 126.339 12.7142 126.253 12.834L126.256 12.8318ZM119.179 8.88196C118.512 8.69901 117.829 8.54157 117.148 8.41401C117.068 8.39894 116.985 8.39984 116.905 8.41666C116.825 8.43348 116.749 8.4659 116.682 8.51206C116.614 8.55822 116.557 8.61722 116.512 8.68569C116.467 8.75416 116.437 8.83076 116.422 8.91112C116.406 8.99147 116.407 9.07401 116.424 9.15402C116.441 9.23403 116.473 9.30994 116.52 9.37742C116.566 9.4449 116.625 9.50263 116.693 9.54731C116.762 9.59199 116.838 9.62275 116.919 9.63782C117.565 9.75882 118.214 9.90824 118.846 10.0824C118.995 10.1225 119.153 10.1058 119.291 10.0356C119.428 9.96536 119.534 9.84665 119.589 9.70251C119.643 9.55838 119.642 9.39912 119.586 9.25568C119.529 9.11225 119.422 8.9949 119.284 8.92642C119.249 8.90928 119.213 8.89513 119.176 8.88415L119.179 8.88196ZM130.296 16.3006C130.173 16.4098 130.098 16.5631 130.089 16.7271C130.079 16.8911 130.134 17.0523 130.243 17.1753C130.681 17.6673 131.099 18.1841 131.492 18.7103C131.592 18.8384 131.738 18.9224 131.899 18.9441C132.06 18.9658 132.223 18.9236 132.353 18.8266C132.483 18.7296 132.57 18.5854 132.596 18.4249C132.621 18.2645 132.582 18.1006 132.488 17.9683C132.074 17.4136 131.631 16.8699 131.176 16.3517C131.066 16.229 130.913 16.1547 130.749 16.1448C130.585 16.135 130.424 16.1905 130.301 16.2992L130.296 16.3006ZM113.787 8.02697C113.097 7.99417 112.397 7.99126 111.704 8.01677C111.62 8.01511 111.536 8.03072 111.457 8.06266C111.379 8.0946 111.308 8.14218 111.249 8.2025C111.19 8.26282 111.143 8.3346 111.113 8.41345C111.082 8.49229 111.068 8.57654 111.071 8.66103C111.075 8.74551 111.095 8.82846 111.131 8.90479C111.168 8.98112 111.219 9.04921 111.283 9.10491C111.346 9.1606 111.421 9.20272 111.501 9.22868C111.582 9.25464 111.667 9.2639 111.751 9.25588C112.407 9.23183 113.074 9.23475 113.729 9.26609C113.871 9.27296 114.012 9.23032 114.127 9.14537C114.242 9.06042 114.325 8.93836 114.36 8.79982C114.396 8.66128 114.382 8.51474 114.322 8.38495C114.262 8.25516 114.159 8.15009 114.03 8.08747C113.954 8.05116 113.871 8.03059 113.787 8.02697ZM108.341 8.37174C107.659 8.49128 106.975 8.6407 106.306 8.81636C106.226 8.83575 106.15 8.87094 106.084 8.91989C106.017 8.96883 105.961 9.03055 105.919 9.10142C105.876 9.17229 105.849 9.25089 105.837 9.33264C105.825 9.41438 105.83 9.49762 105.851 9.57749C105.872 9.65735 105.909 9.73224 105.959 9.79778C106.009 9.86331 106.072 9.91817 106.144 9.95915C106.215 10.0001 106.294 10.0264 106.376 10.0364C106.458 10.0465 106.542 10.0401 106.621 10.0176C107.257 9.85066 107.907 9.70853 108.555 9.59482C108.714 9.56319 108.855 9.47054 108.946 9.33667C109.038 9.2028 109.074 9.03836 109.046 8.87854C109.018 8.71871 108.928 8.57619 108.796 8.48147C108.665 8.38676 108.501 8.34737 108.341 8.37174ZM103.098 9.89585C102.458 10.1604 101.823 10.4556 101.209 10.7705C101.066 10.8481 100.96 10.9785 100.912 11.1336C100.865 11.2888 100.88 11.4564 100.954 11.6006C101.028 11.7448 101.156 11.8542 101.31 11.9053C101.464 11.9564 101.632 11.9452 101.778 11.8741C102.361 11.573 102.966 11.291 103.574 11.0409C103.651 11.0108 103.721 10.9656 103.78 10.9081C103.839 10.8506 103.886 10.7818 103.919 10.7059C103.951 10.6299 103.968 10.5483 103.968 10.4657C103.968 10.3832 103.952 10.3014 103.921 10.2252C103.889 10.1489 103.843 10.0797 103.784 10.0216C103.725 9.96353 103.656 9.91771 103.579 9.88685C103.503 9.85598 103.421 9.84069 103.338 9.84186C103.256 9.84303 103.174 9.86064 103.098 9.89367V9.89585ZM98.3148 12.5264C97.7484 12.9251 97.1922 13.3523 96.6622 13.7969C96.5404 13.904 96.4653 14.0545 96.453 14.2163C96.4408 14.378 96.4923 14.5381 96.5966 14.6624C96.7009 14.7866 96.8496 14.8652 97.0111 14.8812C97.1725 14.8972 97.3338 14.8494 97.4604 14.7481C97.9635 14.3261 98.4912 13.9201 99.0292 13.5418C99.1583 13.4449 99.2446 13.3016 99.2698 13.1422C99.295 12.9827 99.2572 12.8198 99.1643 12.6878C99.0715 12.5558 98.9308 12.4651 98.7723 12.435C98.6137 12.4049 98.4496 12.4377 98.3148 12.5264ZM94.223 16.1461C93.7594 16.6563 93.3118 17.1972 92.8919 17.7497C92.7979 17.881 92.7587 18.0438 92.7827 18.2035C92.8068 18.3632 92.8921 18.5073 93.0206 18.6051C93.1491 18.703 93.3107 18.7469 93.4711 18.7277C93.6314 18.7084 93.778 18.6274 93.8796 18.5019C94.2784 17.9785 94.7034 17.4669 95.1437 16.98C95.2541 16.8579 95.3115 16.697 95.3032 16.5326C95.2949 16.3682 95.2217 16.2138 95.0996 16.1035C94.9775 15.9931 94.8166 15.9357 94.6522 15.944C94.4878 15.9523 94.3334 16.0255 94.223 16.1476V16.1461ZM91.0249 20.5712C90.7734 21.0136 90.5328 21.4699 90.3098 21.9262C90.2291 22.0914 90.1501 22.2571 90.0728 22.4233C90.0377 22.4972 90.0177 22.5773 90.014 22.6589C90.0103 22.7406 90.0229 22.8222 90.0511 22.899C90.0794 22.9757 90.1227 23.046 90.1785 23.1058C90.2343 23.1655 90.3015 23.2135 90.3761 23.247C90.5256 23.3162 90.6964 23.3232 90.851 23.2664C91.0056 23.2097 91.1314 23.0939 91.2006 22.9445C91.2735 22.7866 91.3483 22.6289 91.4251 22.4714C91.6373 22.0341 91.8662 21.6048 92.1053 21.1835C92.1864 21.0402 92.2074 20.8706 92.1635 20.7119C92.1196 20.5532 92.0145 20.4185 91.8713 20.3372C91.8603 20.3307 91.8487 20.3248 91.837 20.319C91.6949 20.2499 91.5319 20.2375 91.381 20.2844C91.2301 20.3312 91.1028 20.4338 91.0249 20.5712Z" fill="#BDD0FB"/>
<path opacity="0.3" d="M134.057 20.5712C134.171 20.6275 134.265 20.7176 134.327 20.8292C134.489 21.1208 134.648 21.4276 134.799 21.7316C134.838 21.8048 134.862 21.8851 134.869 21.9677C134.877 22.0502 134.867 22.1334 134.842 22.2124C134.817 22.2913 134.776 22.3643 134.722 22.4272C134.668 22.4901 134.602 22.5415 134.527 22.5784C134.453 22.6154 134.372 22.6371 134.29 22.6423C134.207 22.6475 134.124 22.636 134.046 22.6087C133.967 22.5813 133.895 22.5386 133.834 22.4829C133.772 22.4273 133.723 22.36 133.688 22.2848C133.542 21.9933 133.396 21.7083 133.239 21.4284C133.176 21.3127 133.151 21.1799 133.168 21.049C133.185 20.9181 133.243 20.796 133.334 20.7005C133.425 20.605 133.544 20.5409 133.674 20.5177C133.804 20.4944 133.938 20.5132 134.057 20.5712Z" fill="#BDD0FB"/>
</g>
<g opacity="0.3">
<path opacity="0.3" d="M161.826 35.1352C161.901 35.1714 161.961 35.2309 161.999 35.3047C162.037 35.3784 162.05 35.4625 162.035 35.5441C161.981 35.8648 161.915 36.1884 161.841 36.5055C161.83 36.5546 161.809 36.6009 161.78 36.6418C161.75 36.6828 161.713 36.7176 161.67 36.7442C161.628 36.7708 161.58 36.7887 161.53 36.7969C161.481 36.8051 161.43 36.8034 161.381 36.792C161.332 36.7805 161.285 36.7596 161.244 36.7302C161.203 36.7009 161.169 36.6637 161.142 36.621C161.115 36.5782 161.097 36.5306 161.089 36.4809C161.081 36.4312 161.083 36.3804 161.094 36.3313C161.167 36.0288 161.227 35.7205 161.279 35.4144C161.289 35.3554 161.312 35.2996 161.348 35.2513C161.383 35.2031 161.429 35.1638 161.482 35.1366C161.535 35.1095 161.594 35.0952 161.654 35.0949C161.714 35.0947 161.773 35.1085 161.826 35.1352Z" fill="#BDD0FB"/>
<path opacity="0.3" d="M161.028 37.9691C160.981 37.9517 160.93 37.9437 160.88 37.9457C160.83 37.9476 160.78 37.9595 160.734 37.9807C160.689 38.0018 160.647 38.0317 160.613 38.0688C160.579 38.1058 160.552 38.1492 160.535 38.1965C160.349 38.6999 160.138 39.1935 159.902 39.6755C159.854 39.7765 159.803 39.8776 159.75 39.9787C159.703 40.0692 159.695 40.1744 159.726 40.2713C159.757 40.3682 159.825 40.4488 159.915 40.4955C160.007 40.5384 160.11 40.5452 160.206 40.5145C160.302 40.4838 160.383 40.4178 160.432 40.33C160.486 40.2241 160.539 40.1181 160.591 40.0122C160.839 39.5068 161.06 38.9891 161.255 38.4611C161.288 38.3722 161.286 38.2742 161.251 38.1862C161.216 38.0981 161.149 38.0262 161.064 37.9844C161.052 37.9786 161.04 37.9735 161.028 37.9691ZM158.754 41.6522C158.388 42.1889 157.99 42.7028 157.561 43.1909C157.528 43.2287 157.503 43.2727 157.486 43.3204C157.47 43.368 157.463 43.4184 157.467 43.4687C157.47 43.5189 157.483 43.5681 157.505 43.6133C157.527 43.6585 157.558 43.6988 157.596 43.7321C157.634 43.7654 157.678 43.7909 157.726 43.8071C157.773 43.8234 157.824 43.8301 157.874 43.8269C157.924 43.8237 157.973 43.8106 158.019 43.7884C158.064 43.7662 158.104 43.7353 158.137 43.6975C158.587 43.1858 159.004 42.6468 159.388 42.0837C159.416 42.0421 159.436 41.9953 159.446 41.946C159.457 41.8966 159.457 41.8458 159.448 41.7963C159.438 41.7468 159.419 41.6996 159.391 41.6575C159.364 41.6154 159.328 41.5792 159.286 41.5509C159.271 41.5407 159.255 41.5315 159.239 41.5232C159.156 41.4829 159.062 41.4738 158.972 41.4975C158.883 41.5211 158.806 41.5761 158.754 41.6522ZM156.187 44.5678C155.702 44.9986 155.19 45.3991 154.656 45.7668C154.614 45.7955 154.579 45.8321 154.551 45.8746C154.524 45.917 154.505 45.9644 154.496 46.0141C154.487 46.0638 154.488 46.1147 154.498 46.1641C154.509 46.2135 154.529 46.2603 154.558 46.3018C154.587 46.3434 154.623 46.3788 154.666 46.4062C154.708 46.4336 154.756 46.4524 154.805 46.4615C154.855 46.4705 154.906 46.4697 154.955 46.4591C155.005 46.4485 155.052 46.4282 155.093 46.3995C155.655 46.014 156.193 45.5939 156.703 45.1414C156.74 45.1081 156.771 45.0677 156.793 45.0224C156.815 44.9772 156.828 44.9281 156.831 44.8778C156.834 44.8276 156.828 44.7772 156.811 44.7297C156.795 44.6821 156.769 44.6382 156.736 44.6006C156.703 44.563 156.662 44.5322 156.617 44.5102C156.548 44.4757 156.469 44.463 156.393 44.4739C156.316 44.4849 156.244 44.5189 156.187 44.5714V44.5678ZM152.979 46.7669C152.402 47.0655 151.807 47.3284 151.198 47.5541C151.151 47.5715 151.108 47.5981 151.071 47.6323C151.034 47.6666 151.004 47.7077 150.983 47.7535C150.962 47.7992 150.95 47.8487 150.948 47.899C150.946 47.9493 150.954 47.9995 150.971 48.0468C150.989 48.094 151.016 48.1374 151.05 48.1743C151.084 48.2113 151.125 48.2411 151.171 48.2622C151.217 48.2832 151.266 48.2951 151.316 48.297C151.367 48.2989 151.417 48.2909 151.464 48.2735C152.103 48.0366 152.727 47.7611 153.332 47.4484C153.422 47.4016 153.49 47.3208 153.521 47.2238C153.552 47.1269 153.543 47.0216 153.496 46.9312C153.449 46.8408 153.369 46.7728 153.272 46.7419C153.175 46.7111 153.069 46.7201 152.979 46.7669ZM149.334 48.1168C148.702 48.2662 148.061 48.3767 147.415 48.4477C147.365 48.4532 147.317 48.4685 147.273 48.4927C147.229 48.517 147.19 48.5497 147.158 48.589C147.127 48.6283 147.103 48.6734 147.089 48.7217C147.075 48.7701 147.071 48.8207 147.076 48.8708C147.082 48.9209 147.097 48.9693 147.121 49.0135C147.145 49.0576 147.178 49.0966 147.217 49.1281C147.257 49.1596 147.302 49.183 147.35 49.1971C147.399 49.2112 147.449 49.2156 147.499 49.2101C148.176 49.1355 148.848 49.0199 149.511 48.8639C149.606 48.8373 149.688 48.7747 149.738 48.6893C149.789 48.6038 149.804 48.5021 149.781 48.4055C149.759 48.3089 149.699 48.2249 149.616 48.1711C149.533 48.1172 149.432 48.0978 149.334 48.1168ZM145.47 48.541C144.821 48.5322 144.174 48.4835 143.531 48.3952C143.481 48.3883 143.43 48.3912 143.381 48.4039C143.333 48.4166 143.287 48.4387 143.247 48.4691C143.206 48.4994 143.173 48.5374 143.147 48.5808C143.122 48.6242 143.105 48.6722 143.098 48.7221C143.091 48.772 143.094 48.8227 143.107 48.8715C143.119 48.9202 143.141 48.9659 143.172 49.0061C143.202 49.0463 143.24 49.0801 143.284 49.1056C143.327 49.1311 143.375 49.1478 143.425 49.1547C144.099 49.2481 144.779 49.2997 145.46 49.3092C145.559 49.3066 145.653 49.2657 145.723 49.1951C145.792 49.1246 145.832 49.0298 145.833 48.9307C145.835 48.8316 145.798 48.7357 145.73 48.6632C145.663 48.5907 145.569 48.5472 145.47 48.5417V48.541ZM141.622 48.0082C140.995 47.8398 140.378 47.6329 139.776 47.3886C139.682 47.3499 139.576 47.3503 139.482 47.3897C139.388 47.4291 139.313 47.5042 139.275 47.5985C139.236 47.6929 139.237 47.7987 139.276 47.8927C139.315 47.9868 139.39 48.0613 139.485 48.1C140.116 48.3559 140.762 48.5726 141.42 48.7487C141.512 48.7732 141.61 48.7626 141.694 48.719C141.779 48.6754 141.844 48.602 141.878 48.513C141.911 48.4239 141.91 48.3257 141.875 48.2372C141.84 48.1488 141.774 48.0765 141.688 48.0344C141.668 48.0248 141.646 48.0173 141.624 48.0118L141.622 48.0082ZM135.843 45.5802C135.814 45.6209 135.792 45.667 135.781 45.716C135.769 45.7649 135.767 45.8157 135.774 45.8654C135.782 45.9152 135.8 45.9629 135.826 46.0059C135.852 46.0489 135.887 46.0863 135.927 46.116C136.405 46.4649 136.901 46.788 137.414 47.0839C137.492 47.1291 137.57 47.1728 137.648 47.2166C137.737 47.266 137.842 47.278 137.939 47.2501C138.037 47.2221 138.12 47.1564 138.169 47.0675C138.219 46.9786 138.231 46.8737 138.203 46.7759C138.175 46.6781 138.109 46.5954 138.02 46.546C137.947 46.5052 137.874 46.4636 137.801 46.4206C137.312 46.1387 136.838 45.8312 136.381 45.4993C136.363 45.4858 136.343 45.474 136.323 45.4643C136.242 45.425 136.15 45.4154 136.062 45.4373C135.975 45.4591 135.898 45.511 135.845 45.5839L135.843 45.5802Z" fill="#BDD0FB"/>
</g>
<g opacity="0.3">
<path opacity="0.3" d="M152.776 17.7708C152.17 17.4846 151.548 17.2349 150.912 17.023C150.816 16.9909 150.71 16.9985 150.619 17.0441C150.528 17.0898 150.459 17.1697 150.427 17.2664C150.395 17.3631 150.402 17.4685 150.448 17.5595C150.494 17.6506 150.574 17.7198 150.67 17.7518C151.277 17.9535 151.87 18.1916 152.448 18.4647C152.539 18.5089 152.645 18.5148 152.741 18.4813C152.837 18.4477 152.916 18.3774 152.96 18.2858C153.004 18.1941 153.01 18.0887 152.976 17.9927C152.943 17.8966 152.872 17.8179 152.781 17.7737L152.776 17.7708ZM154.01 18.8576C153.983 18.9001 153.965 18.9476 153.956 18.9972C153.948 19.0469 153.949 19.0977 153.96 19.1468C153.971 19.1958 153.992 19.2423 154.021 19.2833C154.051 19.3244 154.087 19.3593 154.13 19.386C154.671 19.727 155.19 20.0999 155.687 20.5027C155.726 20.5345 155.771 20.5582 155.819 20.5726C155.867 20.587 155.918 20.5918 155.968 20.5866C156.018 20.5814 156.067 20.5664 156.111 20.5424C156.155 20.5185 156.195 20.486 156.226 20.4469C156.258 20.4078 156.282 20.3628 156.296 20.3146C156.311 20.2663 156.315 20.2156 156.31 20.1655C156.305 20.1154 156.29 20.0668 156.266 20.0224C156.242 19.9781 156.21 19.939 156.171 19.9072C155.65 19.4864 155.105 19.0969 154.538 18.741L154.502 18.7205C154.417 18.6791 154.321 18.6702 154.23 18.6955C154.139 18.7207 154.061 18.7784 154.01 18.8576ZM148.973 16.5076C148.316 16.3756 147.652 16.2836 146.984 16.2321C146.885 16.2285 146.788 16.2634 146.714 16.3294C146.64 16.3955 146.595 16.4876 146.587 16.5864C146.579 16.6853 146.61 16.7833 146.673 16.8599C146.736 16.9365 146.826 16.9858 146.925 16.9974C147.561 17.0462 148.194 17.1336 148.82 17.2591C148.911 17.2774 149.006 17.2619 149.087 17.2153C149.168 17.1688 149.229 17.0945 149.259 17.0063C149.289 16.9181 149.285 16.822 149.25 16.736C149.214 16.65 149.148 16.58 149.064 16.539C149.035 16.5243 149.003 16.5137 148.97 16.5076H148.973ZM157.108 21.2571C157.072 21.292 157.043 21.3338 157.023 21.3799C157.002 21.4261 156.992 21.4758 156.991 21.5261C156.99 21.5765 156.999 21.6265 157.017 21.6734C157.035 21.7203 157.063 21.7631 157.098 21.7994C157.54 22.2598 157.954 22.7466 158.337 23.2572C158.399 23.3346 158.489 23.3849 158.588 23.3973C158.687 23.4096 158.786 23.3832 158.866 23.3235C158.946 23.2638 158.999 23.1756 159.015 23.0774C159.03 22.9792 159.007 22.8787 158.95 22.7972C158.548 22.2608 158.113 21.7496 157.648 21.2666C157.617 21.2345 157.58 21.2079 157.54 21.1878C157.47 21.1534 157.39 21.1416 157.312 21.154C157.234 21.1663 157.162 21.2024 157.106 21.2571H157.108ZM144.97 16.1978C144.301 16.2285 143.634 16.2993 142.974 16.41C142.873 16.4268 142.784 16.4828 142.725 16.5656C142.666 16.6484 142.642 16.7513 142.659 16.8517C142.676 16.952 142.732 17.0415 142.814 17.1006C142.897 17.1596 143 17.1834 143.1 17.1665C143.731 17.0607 144.367 16.9933 145.005 16.9646C145.104 16.956 145.196 16.9096 145.261 16.835C145.326 16.7604 145.36 16.6635 145.356 16.5645C145.351 16.4654 145.309 16.372 145.237 16.3037C145.165 16.2354 145.069 16.1974 144.97 16.1978ZM141.017 16.8597C140.374 17.0493 139.744 17.2773 139.128 17.5427C139.039 17.5854 138.969 17.6612 138.934 17.754C138.9 17.8469 138.902 17.9496 138.942 18.0407C138.981 18.1317 139.054 18.2039 139.145 18.2422C139.237 18.2805 139.34 18.2819 139.432 18.246C140.019 17.9934 140.621 17.7761 141.234 17.5951C141.332 17.5661 141.414 17.4996 141.462 17.4101C141.511 17.3207 141.522 17.2156 141.493 17.1181C141.464 17.0205 141.397 16.9385 141.308 16.8901C141.218 16.8416 141.113 16.8307 141.016 16.8597H141.017ZM137.335 18.4487C136.756 18.7866 136.198 19.1593 135.665 19.5646C135.625 19.5951 135.591 19.6332 135.566 19.6767C135.54 19.7202 135.524 19.7683 135.517 19.8182C135.51 19.8681 135.513 19.9189 135.526 19.9676C135.539 20.0163 135.561 20.0621 135.592 20.1022C135.622 20.1423 135.66 20.176 135.704 20.2014C135.747 20.2267 135.795 20.2433 135.845 20.2501C135.895 20.2569 135.946 20.2538 135.995 20.241C136.043 20.2282 136.089 20.2059 136.129 20.1754C136.638 19.7887 137.17 19.4333 137.722 19.1112C137.81 19.0599 137.874 18.9758 137.9 18.8774C137.925 18.7789 137.911 18.6743 137.86 18.5864C137.808 18.4986 137.724 18.4347 137.626 18.4089C137.527 18.383 137.423 18.3973 137.335 18.4487Z" fill="#BDD0FB"/>
<path opacity="0.3" d="M159.902 24.3374C159.971 24.3706 160.028 24.424 160.066 24.4905C160.229 24.7755 160.385 25.0663 160.528 25.3549C160.574 25.446 160.581 25.5513 160.549 25.6477C160.516 25.7442 160.447 25.8238 160.356 25.8692C160.265 25.9145 160.16 25.9218 160.063 25.8895C159.967 25.8571 159.887 25.7878 159.842 25.6968C159.705 25.4213 159.556 25.1435 159.404 24.8724C159.363 24.8012 159.347 24.7187 159.356 24.6372C159.366 24.5556 159.401 24.4793 159.457 24.4194C159.513 24.3595 159.587 24.3192 159.668 24.3044C159.749 24.2896 159.832 24.3012 159.906 24.3374H159.902Z" fill="#BDD0FB"/>
</g>
<g opacity="0.3">
<path opacity="0.3" d="M177.42 191.085C177.26 191.034 177.087 191.049 176.938 191.125C176.788 191.202 176.676 191.335 176.625 191.495C176.418 192.141 176.18 192.788 175.917 193.418C175.853 193.571 175.852 193.742 175.914 193.896C175.975 194.05 176.095 194.173 176.246 194.24L176.257 194.244C176.334 194.276 176.416 194.293 176.499 194.293C176.582 194.293 176.665 194.277 176.742 194.246C176.818 194.214 176.888 194.168 176.947 194.109C177.006 194.05 177.053 193.981 177.085 193.904C177.361 193.241 177.612 192.561 177.829 191.88C177.877 191.732 177.868 191.571 177.804 191.428C177.74 191.286 177.625 191.172 177.482 191.109C177.462 191.1 177.441 191.092 177.42 191.085ZM174.431 196.394C174.085 196.982 173.711 197.56 173.318 198.113C173.232 198.25 173.201 198.415 173.233 198.574C173.265 198.733 173.356 198.873 173.489 198.967C173.621 199.06 173.784 199.099 173.944 199.076C174.105 199.053 174.25 198.969 174.35 198.842C174.763 198.259 175.157 197.651 175.521 197.033C175.606 196.888 175.63 196.716 175.588 196.554C175.546 196.391 175.441 196.252 175.296 196.167C175.275 196.154 175.252 196.143 175.229 196.133C175.087 196.07 174.927 196.062 174.779 196.11C174.632 196.159 174.507 196.259 174.429 196.394H174.431ZM171.21 200.686C170.743 201.18 170.249 201.661 169.742 202.113C169.616 202.225 169.54 202.382 169.53 202.55C169.52 202.718 169.577 202.882 169.689 203.008C169.8 203.134 169.957 203.21 170.125 203.22C170.293 203.23 170.458 203.173 170.583 203.061C171.119 202.584 171.638 202.078 172.13 201.558C172.245 201.436 172.307 201.273 172.302 201.105C172.297 200.938 172.226 200.779 172.103 200.664C172.051 200.614 171.99 200.574 171.924 200.545C171.805 200.491 171.672 200.476 171.543 200.502C171.415 200.527 171.298 200.591 171.208 200.686H171.21ZM167.109 204.15C166.543 204.528 165.954 204.886 165.36 205.214C165.284 205.253 165.217 205.306 165.163 205.371C165.108 205.436 165.068 205.511 165.043 205.592C165.018 205.673 165.01 205.758 165.019 205.842C165.027 205.927 165.053 206.008 165.094 206.082C165.135 206.157 165.19 206.222 165.256 206.274C165.323 206.327 165.399 206.365 165.481 206.387C165.563 206.41 165.648 206.416 165.732 206.404C165.816 206.393 165.897 206.365 165.97 206.322C166.597 205.977 167.217 205.6 167.813 205.202C167.947 205.106 168.039 204.962 168.069 204.8C168.099 204.638 168.065 204.471 167.973 204.334C167.882 204.197 167.74 204.101 167.579 204.066C167.418 204.032 167.249 204.062 167.11 204.15H167.109ZM162.339 206.614C161.705 206.857 161.051 207.076 160.397 207.264C160.238 207.313 160.105 207.422 160.026 207.567C159.948 207.713 159.929 207.884 159.975 208.043C160.021 208.203 160.127 208.337 160.272 208.419C160.416 208.501 160.586 208.522 160.746 208.48C161.435 208.281 162.124 208.05 162.788 207.795C162.944 207.735 163.071 207.615 163.139 207.462C163.207 207.309 163.212 207.135 163.152 206.979C163.092 206.822 162.973 206.696 162.819 206.627C162.666 206.559 162.492 206.554 162.336 206.614H162.339ZM157.143 207.962C156.47 208.058 155.784 208.127 155.102 208.165C154.936 208.177 154.781 208.253 154.671 208.378C154.561 208.503 154.504 208.667 154.514 208.833C154.524 208.999 154.598 209.155 154.722 209.266C154.846 209.378 155.008 209.436 155.175 209.429C155.89 209.388 156.612 209.315 157.32 209.214C157.402 209.202 157.481 209.174 157.553 209.132C157.624 209.089 157.687 209.033 157.736 208.967C157.786 208.9 157.822 208.825 157.843 208.744C157.864 208.664 157.868 208.58 157.856 208.498C157.845 208.416 157.817 208.337 157.774 208.265C157.732 208.194 157.676 208.132 157.61 208.082C157.543 208.032 157.468 207.996 157.387 207.975C157.307 207.955 157.223 207.95 157.141 207.962H157.143ZM134.983 200.17C134.921 200.225 134.871 200.292 134.835 200.367C134.799 200.442 134.778 200.523 134.773 200.606C134.769 200.689 134.78 200.772 134.808 200.851C134.835 200.929 134.878 201.001 134.934 201.063C135.411 201.597 135.918 202.116 136.44 202.607C136.563 202.716 136.724 202.774 136.889 202.766C137.054 202.759 137.209 202.688 137.322 202.568C137.435 202.448 137.497 202.288 137.494 202.124C137.491 201.959 137.424 201.802 137.307 201.686C136.811 201.219 136.329 200.726 135.876 200.22C135.815 200.152 135.741 200.099 135.657 200.062C135.546 200.014 135.424 199.998 135.305 200.018C135.185 200.037 135.073 200.09 134.983 200.17ZM151.775 208.125C151.098 208.069 150.414 207.983 149.744 207.869C149.58 207.846 149.415 207.888 149.281 207.985C149.148 208.082 149.058 208.227 149.031 208.39C149.003 208.553 149.04 208.72 149.134 208.855C149.228 208.991 149.371 209.085 149.532 209.117C150.238 209.236 150.958 209.326 151.671 209.385C151.82 209.397 151.968 209.355 152.09 209.268C152.211 209.181 152.298 209.054 152.335 208.909C152.371 208.765 152.356 208.611 152.29 208.477C152.225 208.343 152.114 208.236 151.977 208.176C151.914 208.148 151.847 208.131 151.778 208.124L151.775 208.125ZM139.003 203.941C138.906 204.078 138.868 204.248 138.897 204.413C138.925 204.579 139.018 204.726 139.155 204.823C139.738 205.235 140.349 205.624 140.967 205.989C141.112 206.074 141.285 206.098 141.448 206.055C141.61 206.013 141.749 205.907 141.834 205.762C141.919 205.617 141.943 205.444 141.9 205.282C141.858 205.119 141.752 204.98 141.607 204.896C141.019 204.551 140.441 204.178 139.884 203.785C139.849 203.761 139.812 203.74 139.773 203.723C139.64 203.666 139.491 203.656 139.351 203.696C139.212 203.735 139.09 203.821 139.006 203.94L139.003 203.941ZM146.511 207.085C145.864 206.879 145.217 206.643 144.588 206.382C144.433 206.316 144.259 206.314 144.104 206.377C143.948 206.439 143.824 206.561 143.758 206.715C143.692 206.869 143.69 207.043 143.753 207.199C143.815 207.354 143.937 207.479 144.091 207.544L144.104 207.549C144.765 207.824 145.447 208.074 146.128 208.29C146.282 208.34 146.45 208.329 146.597 208.259C146.744 208.189 146.857 208.065 146.915 207.913C146.972 207.761 146.969 207.593 146.906 207.443C146.843 207.293 146.724 207.174 146.575 207.109C146.556 207.1 146.536 207.091 146.515 207.084L146.511 207.085Z" fill="#BDD0FB"/>
<path opacity="0.3" d="M133.015 196.499C133.133 196.55 133.233 196.637 133.3 196.747C133.47 197.026 133.648 197.305 133.831 197.577C133.88 197.646 133.915 197.724 133.934 197.807C133.952 197.89 133.954 197.976 133.939 198.059C133.924 198.142 133.892 198.222 133.845 198.293C133.799 198.364 133.739 198.425 133.668 198.472C133.598 198.519 133.518 198.551 133.435 198.567C133.352 198.583 133.266 198.582 133.183 198.564C133.1 198.547 133.022 198.512 132.953 198.464C132.883 198.415 132.824 198.353 132.779 198.281C132.588 197.994 132.4 197.698 132.22 197.406C132.15 197.291 132.118 197.157 132.13 197.023C132.141 196.888 132.195 196.761 132.284 196.66C132.373 196.559 132.491 196.488 132.623 196.459C132.754 196.43 132.892 196.443 133.015 196.497V196.499Z" fill="#BDD0FB"/>
</g>
<g opacity="0.3">
<path opacity="0.3" d="M130.172 177.429C130.309 177.489 130.421 177.597 130.486 177.732C130.552 177.867 130.567 178.022 130.529 178.167C130.447 178.483 130.369 178.805 130.299 179.125C130.282 179.207 130.248 179.283 130.201 179.352C130.154 179.42 130.093 179.478 130.023 179.523C129.953 179.568 129.875 179.598 129.794 179.613C129.712 179.628 129.628 179.626 129.547 179.609C129.466 179.591 129.389 179.558 129.321 179.51C129.253 179.463 129.194 179.403 129.15 179.333C129.105 179.263 129.074 179.185 129.059 179.103C129.045 179.021 129.046 178.938 129.064 178.857C129.137 178.519 129.218 178.179 129.305 177.848C129.326 177.767 129.363 177.692 129.413 177.626C129.463 177.559 129.526 177.504 129.597 177.462C129.669 177.42 129.748 177.392 129.831 177.381C129.913 177.369 129.997 177.374 130.077 177.395C130.109 177.404 130.141 177.415 130.172 177.429Z" fill="#BDD0FB"/>
<path opacity="0.3" d="M162.75 160.603C162.593 160.543 162.419 160.548 162.266 160.616C162.113 160.684 161.993 160.811 161.933 160.967C161.873 161.124 161.878 161.298 161.946 161.451C162.015 161.604 162.141 161.724 162.298 161.784C162.919 162.021 163.537 162.289 164.15 162.582C164.225 162.618 164.306 162.639 164.389 162.643C164.472 162.648 164.555 162.636 164.633 162.609C164.712 162.581 164.784 162.538 164.846 162.483C164.908 162.428 164.958 162.36 164.994 162.286C165.03 162.211 165.051 162.13 165.055 162.047C165.06 161.964 165.048 161.881 165.02 161.802C164.993 161.724 164.95 161.652 164.895 161.59C164.839 161.528 164.772 161.478 164.698 161.442C164.434 161.315 164.168 161.193 163.901 161.077C163.522 160.908 163.134 160.749 162.75 160.603ZM166.82 163.321C166.728 163.461 166.695 163.631 166.728 163.795C166.762 163.959 166.859 164.103 166.999 164.196C167.559 164.565 168.109 164.962 168.634 165.376C168.699 165.427 168.774 165.465 168.854 165.488C168.934 165.51 169.017 165.517 169.1 165.507C169.266 165.487 169.418 165.402 169.522 165.271C169.626 165.139 169.673 164.972 169.653 164.805C169.634 164.639 169.549 164.487 169.417 164.383C168.864 163.946 168.285 163.529 167.696 163.144C167.666 163.124 167.635 163.107 167.602 163.092C167.465 163.032 167.312 163.022 167.169 163.064C167.026 163.106 166.902 163.197 166.82 163.321ZM159.457 159.596C158.772 159.436 158.072 159.304 157.371 159.203C157.289 159.192 157.205 159.196 157.125 159.217C157.044 159.237 156.969 159.273 156.902 159.323C156.836 159.373 156.78 159.435 156.737 159.506C156.695 159.578 156.667 159.657 156.655 159.739C156.643 159.821 156.648 159.905 156.668 159.985C156.688 160.066 156.725 160.141 156.774 160.208C156.824 160.274 156.886 160.33 156.958 160.373C157.029 160.415 157.108 160.443 157.19 160.455C157.854 160.551 158.52 160.674 159.17 160.827C159.252 160.849 159.338 160.855 159.422 160.843C159.506 160.831 159.587 160.802 159.659 160.759C159.732 160.715 159.795 160.657 159.845 160.589C159.895 160.52 159.931 160.442 159.95 160.359C159.969 160.277 159.971 160.191 159.957 160.108C159.942 160.024 159.911 159.944 159.865 159.873C159.819 159.802 159.759 159.741 159.689 159.693C159.619 159.645 159.54 159.612 159.457 159.596ZM171.081 166.68C170.96 166.797 170.89 166.956 170.887 167.124C170.883 167.292 170.947 167.454 171.063 167.575C171.528 168.057 171.977 168.565 172.398 169.085C172.45 169.15 172.515 169.203 172.588 169.243C172.661 169.282 172.741 169.307 172.823 169.316C172.906 169.324 172.989 169.316 173.069 169.293C173.149 169.269 173.223 169.23 173.287 169.178C173.352 169.125 173.405 169.061 173.445 168.988C173.484 168.915 173.509 168.835 173.518 168.752C173.526 168.67 173.519 168.586 173.495 168.507C173.471 168.427 173.432 168.353 173.38 168.288C172.937 167.741 172.464 167.206 171.975 166.698C171.918 166.638 171.849 166.59 171.773 166.557C171.697 166.523 171.615 166.505 171.531 166.504C171.448 166.502 171.366 166.517 171.288 166.547C171.211 166.578 171.14 166.623 171.081 166.68ZM153.937 158.947C153.234 158.942 152.52 158.968 151.817 159.02C151.653 159.037 151.503 159.118 151.398 159.245C151.293 159.371 151.241 159.534 151.254 159.698C151.267 159.862 151.343 160.015 151.466 160.124C151.59 160.232 151.751 160.289 151.915 160.281C152.584 160.228 153.261 160.204 153.929 160.208C154.075 160.209 154.216 160.16 154.33 160.069C154.443 159.977 154.522 159.85 154.553 159.707C154.583 159.565 154.563 159.416 154.497 159.287C154.43 159.157 154.321 159.054 154.188 158.996C154.108 158.962 154.023 158.946 153.937 158.947ZM148.409 159.524C147.72 159.67 147.03 159.854 146.357 160.061C146.275 160.083 146.198 160.121 146.131 160.174C146.065 160.226 146.009 160.291 145.968 160.365C145.927 160.44 145.901 160.521 145.892 160.606C145.884 160.69 145.892 160.776 145.917 160.857C145.942 160.938 145.983 161.013 146.037 161.078C146.092 161.143 146.159 161.197 146.234 161.235C146.31 161.274 146.393 161.297 146.477 161.303C146.562 161.309 146.647 161.297 146.727 161.27C147.366 161.074 148.023 160.905 148.677 160.76C148.758 160.742 148.835 160.709 148.903 160.661C148.972 160.614 149.03 160.554 149.075 160.484C149.12 160.414 149.15 160.336 149.165 160.254C149.18 160.173 149.178 160.089 149.161 160.008C149.143 159.927 149.11 159.85 149.063 159.782C149.015 159.713 148.955 159.655 148.885 159.61C148.815 159.565 148.737 159.535 148.656 159.52C148.574 159.505 148.49 159.507 148.409 159.524ZM143.138 161.292C142.498 161.588 141.863 161.915 141.251 162.263C141.107 162.347 141.002 162.484 140.959 162.645C140.916 162.805 140.938 162.977 141.02 163.122C141.103 163.266 141.239 163.373 141.399 163.418C141.559 163.463 141.731 163.443 141.876 163.363C142.46 163.032 143.06 162.721 143.669 162.44C143.817 162.367 143.931 162.239 143.986 162.083C144.042 161.927 144.034 161.756 143.964 161.606C143.895 161.456 143.769 161.339 143.615 161.281C143.46 161.222 143.289 161.226 143.138 161.292ZM138.378 164.168C137.818 164.597 137.27 165.055 136.749 165.529C136.628 165.643 136.557 165.799 136.551 165.965C136.545 166.131 136.604 166.292 136.716 166.415C136.827 166.537 136.983 166.611 137.148 166.62C137.314 166.629 137.476 166.573 137.601 166.464C138.095 166.014 138.616 165.579 139.147 165.172C139.213 165.121 139.268 165.058 139.31 164.986C139.351 164.914 139.378 164.835 139.389 164.753C139.4 164.671 139.395 164.587 139.373 164.507C139.352 164.426 139.315 164.351 139.264 164.285C139.214 164.219 139.151 164.164 139.079 164.123C139.007 164.081 138.928 164.054 138.846 164.043C138.763 164.032 138.68 164.038 138.599 164.059C138.519 164.08 138.444 164.117 138.378 164.168ZM134.364 168.021C133.914 168.562 133.481 169.129 133.076 169.707C133.022 169.774 132.982 169.852 132.959 169.935C132.935 170.019 132.93 170.106 132.942 170.192C132.954 170.278 132.983 170.36 133.029 170.434C133.074 170.508 133.134 170.571 133.205 170.621C133.275 170.671 133.356 170.706 133.441 170.723C133.525 170.74 133.613 170.74 133.698 170.722C133.782 170.705 133.863 170.67 133.933 170.62C134.004 170.569 134.063 170.505 134.108 170.431C134.492 169.883 134.904 169.344 135.332 168.828C135.439 168.699 135.491 168.533 135.475 168.366C135.46 168.199 135.379 168.045 135.251 167.937C135.205 167.899 135.154 167.868 135.1 167.844C134.974 167.789 134.834 167.777 134.701 167.809C134.568 167.841 134.448 167.915 134.361 168.021H134.364ZM131.298 172.657C131.06 173.118 130.834 173.592 130.627 174.066C130.554 174.237 130.481 174.409 130.408 174.582C130.375 174.658 130.358 174.741 130.358 174.824C130.357 174.907 130.374 174.99 130.405 175.067C130.437 175.144 130.484 175.213 130.544 175.272C130.603 175.33 130.673 175.377 130.751 175.408C130.827 175.439 130.909 175.456 130.993 175.456C131.076 175.456 131.158 175.439 131.234 175.407C131.311 175.376 131.381 175.329 131.44 175.27C131.498 175.211 131.545 175.142 131.576 175.065C131.644 174.901 131.714 174.738 131.786 174.574C131.984 174.124 132.198 173.673 132.424 173.235C132.501 173.086 132.515 172.913 132.464 172.753C132.413 172.594 132.3 172.461 132.151 172.384C132.139 172.378 132.128 172.372 132.115 172.367C131.967 172.301 131.8 172.294 131.647 172.348C131.495 172.402 131.369 172.513 131.295 172.657H131.298Z" fill="#BDD0FB"/>
<path opacity="0.3" d="M175.082 170.869C175.201 170.921 175.301 171.009 175.368 171.12C175.545 171.412 175.72 171.715 175.886 172.018C175.967 172.165 175.986 172.338 175.939 172.499C175.893 172.66 175.784 172.796 175.637 172.877C175.49 172.958 175.317 172.977 175.156 172.93C174.995 172.883 174.859 172.774 174.778 172.627C174.62 172.34 174.454 172.052 174.286 171.775C174.216 171.66 174.185 171.525 174.197 171.391C174.208 171.257 174.263 171.131 174.351 171.029C174.44 170.928 174.559 170.858 174.69 170.829C174.822 170.8 174.959 170.814 175.082 170.869Z" fill="#BDD0FB"/>
</g>
<g opacity="0.3">
<path opacity="0.3" d="M203.946 184.538C204.023 184.572 204.087 184.63 204.129 184.703C204.17 184.777 204.186 184.862 204.175 184.946C204.133 185.274 204.08 185.606 204.018 185.933C204.009 185.984 203.99 186.033 203.962 186.077C203.935 186.12 203.898 186.158 203.856 186.188C203.813 186.217 203.765 186.238 203.714 186.249C203.663 186.26 203.611 186.26 203.56 186.251C203.509 186.241 203.46 186.221 203.417 186.192C203.374 186.164 203.337 186.127 203.308 186.084C203.279 186.04 203.259 185.992 203.249 185.941C203.239 185.89 203.24 185.838 203.25 185.787C203.31 185.476 203.36 185.159 203.401 184.846C203.414 184.743 203.468 184.65 203.55 184.587C203.632 184.523 203.736 184.495 203.839 184.508C203.875 184.513 203.912 184.523 203.946 184.538Z" fill="#BDD0FB"/>
<path opacity="0.3" d="M203.252 187.455C203.203 187.44 203.152 187.434 203.1 187.438C203.049 187.442 202.999 187.456 202.954 187.479C202.908 187.503 202.867 187.535 202.834 187.574C202.801 187.613 202.776 187.658 202.76 187.707C202.591 188.227 202.397 188.737 202.177 189.237C202.131 189.342 202.082 189.447 202.031 189.552C202.009 189.598 201.997 189.649 201.995 189.7C201.993 189.751 202.001 189.802 202.018 189.851C202.036 189.899 202.063 189.943 202.098 189.981C202.133 190.018 202.174 190.049 202.221 190.071C202.315 190.111 202.422 190.113 202.518 190.078C202.614 190.043 202.694 189.973 202.74 189.881C202.79 189.771 202.841 189.662 202.886 189.552C203.116 189.028 203.32 188.493 203.497 187.948C203.526 187.856 203.521 187.756 203.481 187.668C203.442 187.58 203.371 187.51 203.282 187.471C203.277 187.464 203.264 187.46 203.252 187.455ZM201.09 191.298C200.74 191.859 200.356 192.399 199.941 192.913C199.907 192.953 199.881 192.999 199.865 193.049C199.849 193.099 199.843 193.151 199.848 193.203C199.853 193.255 199.868 193.306 199.892 193.352C199.917 193.398 199.951 193.439 199.991 193.472C200.032 193.505 200.079 193.529 200.129 193.543C200.179 193.558 200.232 193.562 200.284 193.556C200.336 193.55 200.386 193.533 200.431 193.507C200.477 193.481 200.516 193.446 200.548 193.405C200.984 192.865 201.387 192.299 201.754 191.711C201.808 191.623 201.826 191.517 201.802 191.416C201.779 191.315 201.716 191.228 201.628 191.173C201.612 191.163 201.596 191.154 201.579 191.146C201.493 191.109 201.396 191.104 201.306 191.131C201.217 191.159 201.14 191.218 201.09 191.298ZM198.599 194.375C198.122 194.833 197.617 195.262 197.087 195.659C197.008 195.722 196.956 195.814 196.942 195.915C196.929 196.016 196.956 196.118 197.017 196.199C197.078 196.281 197.168 196.335 197.269 196.351C197.37 196.367 197.472 196.343 197.555 196.284C198.111 195.869 198.641 195.419 199.141 194.938C199.216 194.866 199.259 194.768 199.261 194.664C199.263 194.561 199.224 194.46 199.152 194.386C199.08 194.311 198.982 194.268 198.878 194.266C198.774 194.264 198.674 194.303 198.599 194.375ZM195.428 196.746C194.853 197.074 194.259 197.366 193.648 197.621C193.556 197.663 193.484 197.74 193.447 197.834C193.41 197.928 193.411 198.033 193.45 198.127C193.489 198.22 193.562 198.295 193.656 198.335C193.749 198.375 193.854 198.378 193.948 198.342C194.589 198.075 195.212 197.768 195.815 197.424C195.905 197.373 195.971 197.288 195.998 197.188C196.026 197.088 196.012 196.982 195.961 196.892C195.909 196.802 195.824 196.736 195.725 196.709C195.625 196.682 195.518 196.695 195.428 196.746ZM191.772 198.275C191.134 198.453 190.487 198.592 189.833 198.691C189.73 198.707 189.638 198.762 189.576 198.846C189.515 198.929 189.489 199.034 189.505 199.136C189.52 199.239 189.576 199.331 189.659 199.392C189.743 199.454 189.847 199.479 189.95 199.464C190.636 199.359 191.314 199.213 191.982 199.026C192.077 198.995 192.157 198.928 192.204 198.839C192.251 198.75 192.262 198.647 192.235 198.55C192.208 198.454 192.145 198.371 192.058 198.32C191.972 198.269 191.869 198.253 191.772 198.275ZM187.858 198.868C187.197 198.885 186.536 198.862 185.878 198.798C185.827 198.794 185.775 198.799 185.726 198.814C185.677 198.829 185.632 198.854 185.592 198.886C185.553 198.919 185.52 198.959 185.496 199.004C185.472 199.05 185.457 199.099 185.453 199.15C185.448 199.201 185.453 199.253 185.468 199.302C185.483 199.351 185.508 199.396 185.541 199.436C185.573 199.475 185.614 199.508 185.659 199.532C185.704 199.556 185.754 199.571 185.805 199.575C186.495 199.643 187.189 199.667 187.882 199.648C187.97 199.645 188.055 199.613 188.123 199.555C188.19 199.498 188.236 199.419 188.253 199.332C188.27 199.246 188.257 199.155 188.216 199.077C188.175 198.998 188.109 198.936 188.028 198.9C187.975 198.876 187.918 198.863 187.861 198.864L187.858 198.868ZM183.922 198.484C183.276 198.34 182.64 198.155 182.018 197.931C181.969 197.913 181.918 197.905 181.866 197.907C181.815 197.91 181.764 197.922 181.718 197.944C181.671 197.966 181.629 197.996 181.594 198.035C181.56 198.073 181.533 198.117 181.515 198.166C181.498 198.214 181.49 198.266 181.493 198.317C181.495 198.369 181.508 198.419 181.53 198.466C181.553 198.512 181.584 198.554 181.622 198.588C181.66 198.623 181.705 198.649 181.754 198.666C182.407 198.902 183.074 199.096 183.751 199.25C183.852 199.272 183.958 199.254 184.045 199.198C184.133 199.143 184.195 199.055 184.217 198.954C184.24 198.853 184.222 198.747 184.166 198.659C184.111 198.572 184.023 198.51 183.922 198.487V198.484ZM177.944 196.254C177.916 196.296 177.896 196.344 177.886 196.394C177.875 196.445 177.875 196.496 177.885 196.547C177.895 196.597 177.915 196.645 177.944 196.688C177.972 196.73 178.009 196.767 178.051 196.795C178.552 197.13 179.07 197.438 179.604 197.718C179.685 197.761 179.766 197.803 179.848 197.844C179.893 197.868 179.943 197.882 179.995 197.886C180.046 197.89 180.097 197.884 180.146 197.868C180.195 197.852 180.24 197.826 180.279 197.792C180.318 197.758 180.35 197.717 180.372 197.671C180.419 197.578 180.427 197.471 180.394 197.372C180.362 197.274 180.291 197.193 180.199 197.146C180.126 197.108 180.046 197.069 179.969 197.028C179.459 196.76 178.964 196.466 178.486 196.147C178.466 196.134 178.446 196.123 178.425 196.113C178.341 196.075 178.247 196.068 178.158 196.093C178.07 196.118 177.993 196.174 177.941 196.25L177.944 196.254Z" fill="#BDD0FB"/>
</g>
<g opacity="0.3">
<path opacity="0.3" d="M194.015 167.243C193.387 166.977 192.743 166.749 192.088 166.56C191.988 166.531 191.881 166.543 191.79 166.593C191.7 166.643 191.632 166.727 191.603 166.826C191.574 166.926 191.586 167.033 191.636 167.124C191.686 167.215 191.77 167.282 191.869 167.311C192.494 167.491 193.108 167.708 193.707 167.963C193.802 168.002 193.908 168.002 194.003 167.963C194.098 167.925 194.174 167.85 194.215 167.756C194.256 167.662 194.258 167.556 194.221 167.46C194.183 167.365 194.11 167.288 194.017 167.245L194.015 167.243ZM195.314 168.299C195.262 168.389 195.249 168.495 195.276 168.595C195.304 168.695 195.37 168.78 195.46 168.831C196.024 169.156 196.569 169.514 197.091 169.903C197.132 169.935 197.179 169.958 197.229 169.972C197.279 169.985 197.332 169.988 197.383 169.982C197.435 169.975 197.484 169.957 197.529 169.931C197.574 169.905 197.613 169.87 197.644 169.828C197.675 169.786 197.697 169.739 197.71 169.689C197.722 169.638 197.725 169.586 197.717 169.534C197.709 169.483 197.691 169.434 197.664 169.39C197.636 169.345 197.601 169.307 197.558 169.277C197.012 168.869 196.441 168.494 195.849 168.154C195.837 168.147 195.824 168.14 195.811 168.135C195.722 168.096 195.623 168.091 195.531 168.121C195.439 168.152 195.362 168.215 195.314 168.299ZM190.091 166.116C189.416 166.009 188.737 165.943 188.054 165.918C187.951 165.914 187.85 165.952 187.774 166.022C187.698 166.093 187.653 166.191 187.65 166.295C187.646 166.398 187.683 166.499 187.754 166.575C187.825 166.651 187.922 166.696 188.026 166.699C188.677 166.723 189.325 166.785 189.968 166.887C190.062 166.901 190.157 166.881 190.237 166.83C190.316 166.779 190.375 166.702 190.402 166.611C190.429 166.52 190.421 166.423 190.382 166.337C190.342 166.251 190.273 166.183 190.187 166.144C190.156 166.131 190.124 166.121 190.091 166.116ZM198.567 170.611C198.531 170.648 198.503 170.692 198.485 170.74C198.466 170.788 198.457 170.839 198.458 170.89C198.459 170.941 198.47 170.992 198.491 171.038C198.511 171.085 198.541 171.128 198.578 171.163C199.048 171.614 199.49 172.093 199.902 172.597C199.968 172.675 200.063 172.723 200.164 172.732C200.266 172.741 200.367 172.71 200.446 172.646C200.525 172.581 200.576 172.488 200.587 172.387C200.599 172.285 200.57 172.183 200.507 172.103C200.077 171.574 199.614 171.072 199.122 170.6C199.089 170.569 199.05 170.545 199.009 170.527C198.936 170.494 198.854 170.484 198.774 170.499C198.695 170.514 198.623 170.554 198.567 170.611ZM186.013 165.97C185.333 166.029 184.657 166.128 183.989 166.268C183.889 166.291 183.802 166.352 183.747 166.438C183.692 166.524 183.673 166.629 183.694 166.729C183.715 166.829 183.774 166.917 183.859 166.974C183.945 167.031 184.049 167.052 184.149 167.033C184.786 166.899 185.431 166.804 186.079 166.748C186.181 166.738 186.275 166.688 186.34 166.609C186.406 166.53 186.438 166.429 186.429 166.326C186.42 166.224 186.372 166.129 186.294 166.063C186.216 165.996 186.115 165.963 186.013 165.97ZM182.016 166.807C181.369 167.027 180.736 167.285 180.121 167.581C180.028 167.625 179.956 167.706 179.922 167.803C179.887 167.901 179.893 168.008 179.938 168.101C179.983 168.195 180.063 168.266 180.161 168.301C180.259 168.335 180.366 168.329 180.459 168.284C181.046 168.002 181.649 167.756 182.266 167.546C182.316 167.532 182.363 167.507 182.404 167.473C182.444 167.44 182.478 167.398 182.502 167.351C182.526 167.305 182.541 167.253 182.545 167.201C182.549 167.148 182.542 167.096 182.525 167.046C182.508 166.996 182.481 166.95 182.446 166.911C182.411 166.872 182.368 166.84 182.32 166.818C182.273 166.795 182.221 166.783 182.168 166.781C182.116 166.779 182.063 166.788 182.014 166.807H182.016ZM178.336 168.577C177.76 168.945 177.208 169.348 176.682 169.783C176.604 169.849 176.556 169.944 176.547 170.046C176.538 170.148 176.57 170.249 176.635 170.328C176.7 170.407 176.794 170.457 176.896 170.468C176.997 170.478 177.099 170.448 177.179 170.385C177.681 169.97 178.208 169.586 178.756 169.235C178.836 169.176 178.89 169.089 178.908 168.992C178.926 168.894 178.906 168.794 178.852 168.71C178.799 168.627 178.716 168.567 178.619 168.543C178.523 168.518 178.422 168.531 178.335 168.579L178.336 168.577Z" fill="#BDD0FB"/>
<path opacity="0.3" d="M201.54 173.63C201.611 173.66 201.672 173.711 201.714 173.775C201.891 174.058 202.062 174.348 202.224 174.636C202.249 174.681 202.266 174.73 202.272 174.782C202.278 174.833 202.274 174.885 202.26 174.935C202.246 174.985 202.222 175.031 202.19 175.071C202.158 175.112 202.118 175.146 202.072 175.171C202.027 175.195 201.977 175.211 201.926 175.217C201.874 175.222 201.822 175.218 201.773 175.203C201.723 175.188 201.677 175.164 201.637 175.131C201.597 175.098 201.564 175.058 201.539 175.013C201.388 174.738 201.226 174.461 201.056 174.191C201.011 174.12 200.991 174.037 200.997 173.954C201.003 173.87 201.036 173.791 201.09 173.728C201.145 173.664 201.219 173.62 201.3 173.602C201.382 173.584 201.467 173.592 201.544 173.626L201.54 173.63Z" fill="#BDD0FB"/>
</g>
<path d="M218.399 202.455C202.618 202.455 189.824 189.664 189.824 173.885C189.824 158.106 202.618 145.314 218.399 145.314C234.18 145.314 246.973 158.106 246.973 173.885C246.973 189.664 234.18 202.455 218.399 202.455Z" fill="#DBF3FF"/>
<path d="M203.978 158.685C203.978 158.685 190.005 172.006 175.581 168.184L174.071 170.011C174.071 170.011 191.931 180.789 207.572 168.544L203.978 158.685Z" fill="#9FDEFD"/>
<path d="M217.432 202.15C217.432 202.15 230.571 191.922 233.213 174.855C234.734 165.025 226.911 156.176 216.971 156.556C213.2 156.702 208.844 157.305 203.974 158.685C203.974 158.685 210.868 175.37 202.026 197.715C202.03 197.715 211.585 203.237 217.432 202.15Z" fill="#7AD4FF"/>
<path d="M220.227 146.604L222.873 156.461C222.994 156.91 222.949 157.386 222.747 157.804C222.545 158.222 222.199 158.553 221.773 158.738C220.242 159.4 217.794 160.031 215.621 158.665C215.271 158.442 214.978 158.141 214.767 157.784C214.556 157.427 214.433 157.025 214.407 156.611L213.86 148.4L220.227 146.604Z" fill="url(#paint1_linear_67_712)"/>
<path d="M222.426 74.9793C206.645 74.9793 193.851 62.188 193.851 46.409C193.851 30.63 206.645 17.8386 222.426 17.8386C238.207 17.8386 251 30.63 251 46.409C251 62.188 238.207 74.9793 222.426 74.9793Z" fill="#DBF3FF"/>
<path d="M77.9388 74.9793C62.1576 74.9793 49.3645 62.188 49.3645 46.409C49.3645 30.63 62.1576 17.8386 77.9388 17.8386C93.7199 17.8386 106.513 30.63 106.513 46.409C106.513 62.188 93.7199 74.9793 77.9388 74.9793Z" fill="#DBF3FF"/>
<path d="M83.9792 209.391C68.1981 209.391 55.4049 196.6 55.4049 180.821C55.4049 165.042 68.1981 152.251 83.9792 152.251C99.7604 152.251 112.554 165.042 112.554 180.821C112.554 196.6 99.7604 209.391 83.9792 209.391Z" fill="#DBF3FF"/>
<path d="M211.881 40.7119C210.423 40.3825 204.918 58.521 188.514 48.8405L187.239 51.8348C187.239 51.8348 201.013 66.2086 212.681 52.1993L211.881 40.7119Z" fill="url(#paint2_linear_67_712)"/>
<path d="M177.362 53.0601C177.404 52.7412 177.518 52.436 177.695 52.1671C177.871 51.8982 178.106 51.6726 178.382 51.5068L183.824 48.2268C183.824 48.2268 183.791 47.4666 182.391 47.1721C180.991 46.8776 181.055 45.3535 181.055 45.3535C181.055 45.3535 182.988 45.8834 185.835 46.7588C187.463 47.2596 188.521 48.4353 189.13 49.3551L187.951 51.568C184.538 53.2263 180.941 54.02 177.211 54.1855L177.362 53.0601Z" fill="url(#paint3_linear_67_712)"/>
<path d="M233.697 40.1653C234.198 40.3839 231.212 59.6748 234.458 72.3422C234.458 72.3422 228.918 75.2359 222.43 74.9793C222.43 74.9793 210.748 57.0304 210.442 54.9756C210.095 52.6483 211.884 40.7112 211.884 40.7112C211.884 40.7112 221.329 34.8196 233.697 40.1653Z" fill="#FFF3C8"/>
<path d="M218.668 48.2873C212.894 48.4834 212.435 43.5364 212.763 40.2374C214.658 39.3059 219.486 37.3824 225.864 38.0697C225.983 40.8854 225.597 48.0504 218.668 48.2873Z" fill="url(#paint4_linear_67_712)"/>
<path d="M216.953 29.4374C216.953 29.4374 219.822 35.4967 221.497 38.0515C221.735 38.4138 221.83 38.8512 221.765 39.2796C221.699 39.708 221.477 40.0969 221.142 40.3715C220.347 41.0173 219.057 41.6573 217.052 41.677C216.641 41.6794 216.241 41.5459 215.914 41.2972C215.587 41.0485 215.352 40.6987 215.245 40.3023L213.355 33.3778L216.953 29.4374Z" fill="url(#paint5_linear_67_712)"/>
<path d="M207.148 24.4475C207.148 24.4475 205.82 27.5139 207.38 32.1773C208.94 36.8408 211.49 37.2453 213.105 36.0929C214.72 34.9406 216.814 32.88 217.074 28.6583C217.334 24.4365 208.976 20.5712 207.148 24.4475Z" fill="url(#paint6_linear_67_712)"/>
<path d="M213.923 28.3813C213.923 28.3813 211.105 22.0705 206.879 26.0015L206.553 27.6262C206.553 27.6262 202.528 26.4796 203.851 22.833C205.174 19.1863 209.983 16.7103 214.288 19.0763C218.593 21.4422 220.056 24.2237 219.824 27.5438C219.591 30.8639 217.105 29.7305 217.105 29.7305C217.105 29.7305 216.626 27.2901 215.457 26.8565C214.287 26.4228 214.313 28.2705 214.313 28.2705L213.923 28.3813Z" fill="#3A464B"/>
<path d="M214.892 28.4585C214.892 28.4585 213.424 25.223 215.48 25.1056C217.536 24.9883 216.699 28.2246 216.29 29.4061L214.892 28.4585Z" fill="url(#paint7_linear_67_712)"/>
<path d="M216.059 21.4152C214.907 21.2753 214.444 19.8525 215.227 18.9968C217.756 16.2343 222.528 13.1693 229.328 17.8743C236.987 23.1704 241.131 25.567 243.012 25.0641C244.252 24.7339 245.322 25.9562 244.739 27.094C244.307 27.9352 243.427 28.8142 241.806 29.6145C229.286 35.7919 222.814 22.2374 216.059 21.4152Z" fill="#3A464B"/>
<path d="M83.5447 38.0901C83.5447 38.0901 94.4971 57.8904 110.188 59.3256L111.025 61.6843C111.025 61.6843 89.4022 65.9061 78.3252 48.0963L83.5447 38.0901Z" fill="#9FDEFD"/>
<path d="M100.551 167.135C100.551 167.135 103.983 176.151 97.7149 180.802C91.447 185.453 81.4117 173.905 81.4117 173.905L86.9593 188.108C86.9593 188.108 94.3732 192.846 102.101 184.969C109.829 177.093 104.473 166.382 104.473 166.382C104.473 166.382 109.769 163.839 106.628 158.701C106.58 158.623 106.51 158.561 106.426 158.524C106.343 158.486 106.25 158.474 106.16 158.49C106.07 158.506 105.987 158.548 105.922 158.612C105.856 158.675 105.811 158.757 105.792 158.846C105.482 160.344 104.664 162.976 102.651 164.025C99.7626 165.53 100.551 167.135 100.551 167.135Z" fill="#FFB8B8"/>
<path d="M128.526 59.2557L128.806 59.1689L128.611 59.2746C128.582 59.2707 128.554 59.2643 128.526 59.2557Z" fill="url(#paint8_linear_67_712)"/>
<path d="M99.7633 62.4096C99.3747 63.0714 99.5716 61.7266 100.157 59.2798C100.308 59.8008 100.351 60.3471 100.283 60.8853C100.215 61.4234 100.038 61.9421 99.7633 62.4096Z" fill="url(#paint9_linear_67_712)"/>
<path d="M89.9095 120.335C92.5128 120.475 94.4861 117.857 93.6157 115.352C92.3898 111.792 91.794 108.045 91.8552 104.28C92.001 94.2425 100.474 87.1649 111.44 89.4201C122.307 91.6549 124.351 101.442 122.767 106.051C121.939 108.456 119.065 112.561 116.502 115.939C114.708 118.302 116.21 121.749 119.093 121.903L148.128 123.464L149.647 97.7944C149.775 95.6405 152.106 94.4786 153.766 95.744C156.561 97.8731 160.977 99.7726 167.237 98.4285C179.134 95.873 179.177 84.5606 177.214 78.8672C175.559 74.0638 164.42 67.7247 155.907 73.3473C154.1 74.5405 151.751 73.1046 151.884 70.8538L153.499 38.4582C189.679 41.9277 217.972 72.402 217.972 109.487C217.971 113.538 217.629 117.581 216.947 121.574L189.156 121.905C187.901 121.93 187.267 123.295 188.105 124.148C189.709 125.779 191.293 128.441 191.007 132.478C190.446 140.372 183.32 143.37 175.447 140.04C167.605 136.723 165.554 127.889 173.303 121.713L148.351 122.214L148.184 141.799C148.166 143.945 145.56 145.285 143.676 144.1C134.038 138.047 124.883 145.428 124.406 151.248C123.852 158.005 127.63 164.726 135.924 163.91C139.515 163.556 142.395 162.548 144.507 161.52C146.441 160.578 148.685 161.865 148.668 163.89L148.531 180.821C147.89 180.838 147.247 180.847 146.601 180.847C110.614 180.847 80.8518 154.214 75.9449 119.585L89.9095 120.335Z" fill="#42C2FF"/>
<path d="M146.6 181.214C147.221 181.214 147.873 181.205 148.54 181.187L148.894 181.177L149.034 163.893C149.037 163.383 148.908 162.881 148.661 162.436C148.413 161.99 148.056 161.615 147.622 161.347C147.135 161.043 146.578 160.868 146.004 160.841C145.43 160.814 144.859 160.934 144.346 161.19C141.747 162.457 138.901 163.249 135.889 163.546C132.65 163.863 129.887 163 127.902 161.048C125.625 158.807 124.455 155.155 124.773 151.28C125.011 148.378 127.518 145.179 130.87 143.501C133.191 142.34 137.914 140.915 143.482 144.412C144.495 145.049 145.798 145.075 146.885 144.481C147.919 143.915 148.543 142.914 148.553 141.805L148.716 122.575L172.279 122.101C169.129 124.93 167.665 128.36 168.145 131.852C168.647 135.508 171.324 138.695 175.307 140.38C179.676 142.228 183.949 142.202 187.029 140.318C189.581 138.752 191.127 135.978 191.374 132.507C191.678 128.227 189.908 125.461 188.369 123.895C188.24 123.771 188.151 123.612 188.114 123.438C188.077 123.264 188.093 123.082 188.161 122.917C188.284 122.614 188.613 122.285 189.165 122.274L217.259 121.94L217.31 121.639C217.993 117.625 218.338 113.561 218.339 109.489C218.358 91.586 211.661 74.3264 199.572 61.1195C187.55 47.9651 171.199 39.7877 153.533 38.0938L153.151 38.0573L151.517 70.8356C151.444 72.0448 152.034 73.1629 153.048 73.7511C153.514 74.0262 154.049 74.1631 154.59 74.146C155.131 74.1288 155.656 73.9583 156.104 73.6542C160.887 70.4952 165.995 71.5164 168.614 72.4063C172.539 73.7402 176.009 76.5078 176.864 78.9882C178.01 82.3142 178.488 87.7225 176.062 92.0201C174.298 95.1449 171.302 97.1806 167.154 98.0699C160.877 99.4176 156.527 97.3898 153.983 95.4517C153.572 95.1308 153.081 94.9298 152.563 94.8709C152.045 94.812 151.521 94.8975 151.049 95.1179C150.028 95.5873 149.346 96.6048 149.276 97.7718L147.778 123.077L119.106 121.537C117.927 121.474 116.919 120.779 116.409 119.678C116.146 119.113 116.043 118.486 116.11 117.866C116.177 117.246 116.411 116.657 116.789 116.16C120.288 111.547 122.416 108.186 123.109 106.169C123.937 103.764 123.843 99.7077 121.769 96.0727C120.324 93.5391 117.37 90.2657 111.51 89.0601C106.092 87.9463 101.012 89.0156 97.206 92.0726C93.588 94.9787 91.5563 99.3119 91.4842 104.273C91.4214 108.082 92.0256 111.872 93.2695 115.473C93.4511 116 93.4999 116.563 93.4118 117.114C93.3237 117.664 93.1013 118.184 92.7643 118.628C92.4388 119.068 92.0097 119.421 91.5151 119.655C91.0205 119.889 90.4758 119.997 89.9292 119.97L75.5192 119.196L75.5819 119.638C77.9825 136.579 86.433 152.146 99.3762 163.478C112.448 174.917 129.229 181.22 146.6 181.214ZM148.167 180.463C147.63 180.475 147.104 180.481 146.6 180.481C111.599 180.481 81.486 154.502 76.3714 119.975L89.8899 120.704L89.9095 120.34L89.8899 120.704C90.5563 120.737 91.2206 120.605 91.824 120.32C92.4274 120.036 92.9514 119.607 93.3496 119.071C93.7592 118.531 94.0293 117.899 94.1361 117.23C94.2429 116.56 94.1831 115.875 93.962 115.235C92.7475 111.715 92.1583 108.011 92.2212 104.288C92.2897 99.5503 94.2244 95.4138 97.6697 92.6469C101.302 89.7314 106.166 88.7109 111.366 89.7817C116.959 90.9319 119.766 94.0369 121.134 96.4394C123.095 99.8754 123.192 103.684 122.419 105.935C121.763 107.85 119.612 111.234 116.207 115.721C115.749 116.323 115.464 117.039 115.383 117.791C115.302 118.543 115.427 119.303 115.746 119.989C116.373 121.34 117.616 122.194 119.071 122.272L147.969 123.825L147.816 141.799C147.809 142.639 147.328 143.403 146.529 143.84C145.676 144.307 144.656 144.289 143.868 143.793C137.997 140.105 132.997 141.618 130.538 142.846C126.912 144.661 124.3 148.026 124.039 151.221C123.703 155.311 124.954 159.181 127.385 161.571C129.53 163.681 132.494 164.616 135.957 164.276C139.058 163.97 141.988 163.155 144.665 161.851C145.067 161.649 145.513 161.554 145.962 161.575C146.411 161.595 146.847 161.731 147.229 161.968C147.559 162.168 147.831 162.45 148.019 162.787C148.206 163.123 148.303 163.503 148.3 163.889L148.167 180.463ZM216.637 121.211L189.154 121.539C188.392 121.554 187.753 121.976 187.483 122.638C187.361 122.935 187.331 123.262 187.396 123.577C187.461 123.892 187.618 124.18 187.847 124.405C189.281 125.863 190.929 128.444 190.645 132.452C190.411 135.728 189.03 138.231 186.648 139.69C183.772 141.453 179.742 141.457 175.593 139.703C171.851 138.12 169.339 135.147 168.872 131.751C168.391 128.242 170.046 124.779 173.534 121.999L174.38 121.324L148.594 121.843L150.016 97.8162C150.07 96.9059 150.573 96.1464 151.363 95.7841C151.715 95.6201 152.106 95.5568 152.492 95.601C152.878 95.6453 153.244 95.7954 153.55 96.0348C156.216 98.067 160.767 100.194 167.319 98.7864C171.681 97.8498 174.84 95.6937 176.711 92.3787C179.256 87.8691 178.761 82.2172 177.566 78.7484C176.628 76.0282 173.046 73.136 168.859 71.711C166.114 70.778 160.754 69.7102 155.709 73.0419C155.374 73.2696 154.982 73.3973 154.577 73.4102C154.172 73.4231 153.772 73.3206 153.424 73.1148C152.647 72.6673 152.2 71.8094 152.257 70.8749L153.853 38.8605C190.23 42.5415 217.613 72.8364 217.613 109.49C217.609 113.417 217.282 117.338 216.637 121.211Z" fill="white"/>
<path d="M144.506 161.52C142.392 162.548 139.514 163.556 135.923 163.91C127.63 164.726 123.852 158.006 124.405 151.248C124.882 145.428 134.038 138.047 143.675 144.1C145.56 145.285 148.165 143.945 148.184 141.799L148.35 122.214L173.302 121.713C165.553 127.889 167.604 136.723 175.447 140.04C183.32 143.37 190.445 140.372 191.006 132.478C191.293 128.441 189.708 125.779 188.105 124.148C187.266 123.295 187.901 121.93 189.155 121.905L216.946 121.574C211.309 154.614 182.96 179.907 148.53 180.821L148.668 163.89C148.684 161.865 146.44 160.578 144.506 161.52Z" fill="#FCE07E"/>
<path d="M148.53 181.187H148.542C182.654 180.282 211.575 155.238 217.31 121.637C217.32 121.584 217.317 121.529 217.303 121.478C217.288 121.426 217.263 121.378 217.228 121.337C217.194 121.296 217.15 121.263 217.101 121.24C217.052 121.218 216.999 121.207 216.945 121.208L189.154 121.539C188.392 121.554 187.753 121.976 187.483 122.638C187.361 122.935 187.331 123.262 187.396 123.577C187.461 123.892 187.618 124.18 187.847 124.405C189.281 125.863 190.929 128.444 190.645 132.453C190.411 135.728 189.03 138.231 186.648 139.69C183.772 141.453 179.742 141.457 175.593 139.703C171.851 138.12 169.339 135.147 168.872 131.751C168.391 128.242 170.046 124.779 173.534 121.999C173.596 121.952 173.641 121.888 173.664 121.814C173.686 121.74 173.685 121.66 173.659 121.587C173.634 121.514 173.586 121.451 173.522 121.407C173.459 121.363 173.383 121.341 173.305 121.343H173.298L148.346 121.844C148.251 121.846 148.159 121.885 148.092 121.953C148.025 122.021 147.988 122.113 147.988 122.209L147.821 141.794C147.814 142.634 147.333 143.398 146.534 143.835C145.681 144.301 144.661 144.284 143.873 143.788C138.002 140.1 133.002 141.613 130.544 142.841C126.918 144.656 124.306 148.021 124.044 151.216C123.708 155.306 124.959 159.176 127.39 161.566C129.535 163.676 132.499 164.611 135.962 164.271C139.063 163.965 141.993 163.15 144.67 161.846C145.072 161.644 145.518 161.549 145.967 161.57C146.416 161.59 146.852 161.726 147.234 161.963C147.564 162.163 147.836 162.445 148.024 162.782C148.212 163.118 148.308 163.498 148.305 163.884L148.167 180.814C148.166 180.863 148.175 180.911 148.193 180.955C148.211 181 148.238 181.041 148.272 181.075C148.306 181.109 148.346 181.137 148.391 181.155C148.435 181.174 148.483 181.183 148.531 181.183L148.53 181.187ZM216.511 121.946C210.683 154.862 182.353 179.379 148.9 180.443L149.034 163.893C149.037 163.383 148.908 162.881 148.661 162.436C148.413 161.99 148.056 161.615 147.622 161.347C147.135 161.043 146.578 160.869 146.004 160.841C145.43 160.814 144.859 160.934 144.346 161.191C141.747 162.457 138.901 163.249 135.889 163.546C132.65 163.863 129.887 163 127.902 161.048C125.625 158.807 124.455 155.155 124.773 151.281C125.01 148.378 127.518 145.179 130.87 143.501C133.191 142.34 137.914 140.915 143.482 144.412C144.495 145.049 145.798 145.075 146.885 144.481C147.919 143.915 148.543 142.914 148.553 141.805L148.716 122.575L172.279 122.102C169.129 124.93 167.665 128.36 168.145 131.852C168.647 135.508 171.324 138.696 175.307 140.38C179.676 142.228 183.949 142.202 187.029 140.318C189.581 138.752 191.127 135.978 191.374 132.507C191.678 128.227 189.908 125.461 188.369 123.895C188.24 123.772 188.151 123.612 188.114 123.438C188.077 123.264 188.093 123.082 188.161 122.917C188.284 122.614 188.613 122.285 189.165 122.274L216.511 121.946Z" fill="white"/>
<path d="M155.905 73.3474C164.418 67.7247 175.557 74.0639 177.213 78.8673C179.175 84.5606 179.132 95.873 167.235 98.4285C160.976 99.7726 156.56 97.8731 153.765 95.744C152.105 94.4787 149.774 95.6405 149.646 97.7944L148.127 123.464L119.091 121.903C116.208 121.749 114.707 118.302 116.5 115.939C119.063 112.561 121.938 108.459 122.766 106.051C124.35 101.442 122.305 91.6549 111.439 89.4202C100.473 87.165 91.9989 94.2425 91.8538 104.28C91.7926 108.045 92.3884 111.792 93.6143 115.352C94.4847 117.86 92.5114 120.475 89.9081 120.335L75.9428 119.585C75.468 116.24 75.2292 112.865 75.2284 109.487C75.2284 77.5108 96.262 50.4463 125.25 41.3745C125.278 41.3831 125.306 41.3894 125.335 41.3934L125.53 41.2877C132.354 39.1852 139.456 38.1191 146.597 38.1251C148.925 38.1251 151.225 38.2403 153.495 38.4582L151.881 70.8538C151.75 73.1046 154.1 74.5406 155.905 73.3474Z" fill="#FCE07E"/>
<path d="M148.129 123.83C148.222 123.83 148.312 123.794 148.38 123.73C148.448 123.666 148.488 123.578 148.494 123.485L150.013 97.8162C150.067 96.9058 150.57 96.1463 151.359 95.784C151.711 95.62 152.102 95.5567 152.488 95.6009C152.874 95.6452 153.24 95.7953 153.546 96.0347C156.213 98.0669 160.763 100.194 167.315 98.7863C171.677 97.8497 174.836 95.6936 176.707 92.3786C179.252 87.869 178.758 82.2172 177.562 78.7484C176.625 76.0281 173.042 73.1359 168.856 71.7109C166.11 70.7779 160.751 69.7101 155.705 73.0419C155.371 73.2695 154.978 73.3972 154.573 73.4101C154.169 73.423 153.769 73.3206 153.42 73.1148C152.644 72.6672 152.196 71.8093 152.254 70.8749L153.864 38.4764C153.869 38.3823 153.838 38.2899 153.776 38.2185C153.714 38.1472 153.628 38.1025 153.534 38.0937C151.217 37.8751 148.885 37.7592 146.6 37.7592C139.422 37.7536 132.283 38.8251 125.423 40.9379C125.4 40.9451 125.377 40.9546 125.356 40.9663L125.277 41.0093C125.231 41.006 125.185 41.0112 125.142 41.0246C110.728 45.5553 98.1084 54.5124 89.0763 66.6233C79.7788 79.0778 74.861 93.8998 74.861 109.486C74.8628 112.883 75.103 116.274 75.5798 119.637C75.5914 119.721 75.6319 119.798 75.6945 119.856C75.757 119.913 75.8376 119.947 75.9224 119.951L89.8877 120.701C90.5541 120.734 91.2184 120.602 91.8218 120.317C92.4252 120.033 92.9492 119.604 93.3475 119.068C93.7568 118.528 94.0268 117.896 94.1336 117.227C94.2404 116.557 94.1807 115.872 93.9598 115.232C92.7453 111.712 92.1562 108.007 92.219 104.285C92.2875 99.5473 94.2223 95.4108 97.6675 92.6439C101.3 89.7284 106.164 88.7079 111.364 89.7787C116.957 90.9289 119.764 94.0339 121.132 96.4364C123.093 99.8724 123.19 103.681 122.417 105.932C121.761 107.847 119.61 111.231 116.205 115.718C115.747 116.32 115.462 117.036 115.381 117.788C115.299 118.54 115.425 119.3 115.744 119.986C116.371 121.337 117.613 122.191 119.069 122.269L148.105 123.83H148.129ZM152.25 94.8532C151.837 94.8541 151.429 94.9446 151.054 95.1185C150.034 95.5879 149.352 96.6055 149.282 97.7724L147.784 123.078L119.112 121.538C117.933 121.474 116.925 120.779 116.415 119.679C116.152 119.113 116.049 118.487 116.116 117.867C116.182 117.247 116.417 116.657 116.795 116.161C120.294 111.548 122.422 108.187 123.115 106.17C123.943 103.765 123.849 99.7084 121.775 96.0734C120.33 93.5397 117.376 90.2663 111.515 89.0607C106.098 87.947 101.018 89.0163 97.2119 92.0732C93.5939 94.9793 91.5622 99.3126 91.49 104.274C91.4255 108.082 92.0277 111.872 93.2695 115.473C93.4511 116 93.5 116.563 93.4118 117.114C93.3237 117.664 93.1013 118.184 92.7643 118.628C92.4388 119.068 92.0097 119.421 91.5151 119.655C91.0205 119.889 90.4758 119.997 89.9292 119.97L76.2658 119.236C75.8215 116.005 75.5979 112.748 75.5965 109.487C75.5965 78.3067 95.552 51.103 125.266 41.7542L125.303 41.7593C125.375 41.7658 125.448 41.7508 125.511 41.7163L125.674 41.6281C132.454 39.5443 139.507 38.4878 146.6 38.4939C148.746 38.4939 150.936 38.5945 153.115 38.7927L151.518 70.8377C151.445 72.0469 152.034 73.1651 153.049 73.7533C153.515 74.0283 154.05 74.1652 154.591 74.1481C155.132 74.1309 155.657 73.9604 156.105 73.6563C160.888 70.4973 165.997 71.5185 168.615 72.4085C172.54 73.7423 176.009 76.5099 176.864 78.9904C178.01 82.3163 178.489 87.7247 176.063 92.0222C174.299 95.147 171.302 97.1828 167.154 98.072C160.878 99.4197 156.528 97.3919 153.984 95.4538C153.487 95.0686 152.878 94.8575 152.25 94.8532Z" fill="white"/>
<path d="M78.9237 75.1345C78.9237 75.1345 90.0838 42.5422 82.0911 36.2249C82.0911 36.2249 70.1109 34.2926 61.4002 37.5959V69.7079C61.4002 69.7079 69.4759 77.206 78.9237 75.1345Z" fill="#7AD4FF"/>
<path d="M79.7161 30.3456C79.7161 30.3456 78.1604 34.125 77.7638 37.0959C77.7063 37.5201 77.514 37.9146 77.2153 38.2213C76.9166 38.528 76.5272 38.7306 76.1046 38.7993C74.2443 39.1077 71.1613 39.2804 69.2849 37.569C69.0826 37.3814 68.9402 37.1384 68.8753 36.8703C68.8105 36.6021 68.8262 36.3209 68.9204 36.0616C69.6924 33.899 73.7099 24.895 75.8983 23.5145L79.7161 30.3456Z" fill="url(#paint10_linear_67_712)"/>
<path d="M74.5358 60.0363C73.2914 58.6792 77.8892 63.9804 77.8936 63.9949C80.0076 67.7728 84.7242 69.1307 84.7242 69.1307C84.7242 69.1307 86.5431 66.1065 88.8795 66.0081C90.5795 65.9352 92.7599 67.9339 93.8192 69.0243C93.8956 69.1035 93.9527 69.1994 93.9859 69.3044C94.0191 69.4094 94.0274 69.5206 94.0103 69.6294C93.9932 69.7382 93.9511 69.8415 93.8874 69.9313C93.8236 70.0211 93.7398 70.0948 93.6427 70.1468L89.2724 72.4945C89.2724 72.4945 76.0609 73.2365 69.2907 66.1984C70.4862 61.8148 72.8117 60.1938 74.5358 60.0363Z" fill="url(#paint11_linear_67_712)"/>
<path d="M61.3979 37.5959C67.8131 39.8715 68.0901 51.364 68.0901 51.364C68.0901 51.364 73.0523 57.4233 77.9206 63.1421C77.9592 63.1876 77.9848 63.2426 77.9946 63.3014C78.0045 63.3602 77.9983 63.4205 77.9766 63.476C77.9549 63.5316 77.9186 63.5802 77.8715 63.6167C77.8244 63.6533 77.7683 63.6765 77.7092 63.6837C75.9414 63.9155 73.1165 64.6699 71.9093 68.0571C71.8886 68.1125 71.8548 68.1621 71.8107 68.2016C71.7666 68.241 71.7135 68.2692 71.6561 68.2835C71.5986 68.2979 71.5386 68.298 71.4811 68.284C71.4236 68.2699 71.3704 68.2421 71.3261 68.2028C71.2999 68.1814 71.2721 68.1619 71.243 68.1445C52.4735 57.0887 61.3979 37.5959 61.3979 37.5959Z" fill="#9FDEFD"/>
<path d="M86.7341 20.8176C86.7341 21.0056 82.5307 32.7145 82.5307 32.7145L75.8969 30.1729L78.2297 18.4836C78.2297 18.4836 86.7341 17.6673 86.7341 20.8176Z" fill="url(#paint12_linear_67_712)"/>
<path d="M79.3939 21.3314L77.6829 27.3885C77.6611 27.4654 77.6501 27.5448 77.6501 27.6247C77.6501 28.1189 77.7711 29.8187 79.5032 29.5876C81.0749 29.3777 82.5118 29.21 83.4259 29.6401C83.6241 29.7331 83.7804 29.8968 83.8643 30.099C83.9481 30.3012 83.9535 30.5274 83.8794 30.7334C83.4974 31.7969 82.5912 34.1782 81.489 36.1272C81.3811 36.3184 81.2052 36.462 80.9963 36.5295C80.7873 36.597 80.5607 36.5835 80.3613 36.4917C79.1147 35.9246 76.5202 34.6556 74.6751 33.1453C74.5522 33.0456 74.4585 32.9145 74.4038 32.766C74.3492 32.6174 74.3356 32.4569 74.3646 32.3013C74.6562 30.7516 75.5215 26.0386 75.5594 24.6887C75.5951 23.4204 74.1743 22.4532 73.5466 22.0888C73.4453 22.0301 73.3569 21.9515 73.2868 21.8576C73.2168 21.7638 73.1665 21.6567 73.1391 21.5428C72.943 20.7265 72.7746 18.8802 75.1315 18.4735C75.2481 18.4536 75.3596 18.4104 75.4592 18.3465C75.5589 18.2826 75.6446 18.1993 75.7113 18.1015C75.778 18.0038 75.8243 17.8936 75.8474 17.7775C75.8705 17.6614 75.87 17.5419 75.8459 17.426C75.6469 16.4501 75.7103 15.0141 77.5641 14.485C79.4478 13.9478 80.6332 15.0812 81.236 15.9508C81.3548 16.1203 81.5296 16.2425 81.7296 16.2959C81.9297 16.3492 82.1421 16.3302 82.3295 16.2423C82.5482 16.1432 82.8201 16.1388 83.1088 16.3823C83.2025 16.4584 83.311 16.5141 83.4275 16.5458C83.544 16.5775 83.6658 16.5844 83.7851 16.5662C83.9044 16.548 84.0186 16.5051 84.1203 16.4401C84.2221 16.3752 84.3091 16.2897 84.3758 16.1891C84.9255 15.3808 85.9235 14.5739 87.6125 15.1206C90.6101 16.0907 90.4673 19.5464 89.3679 21.4247C88.2686 23.3031 85.0793 22.0676 83.5688 20.8227C82.4207 19.8751 80.6718 20.4422 79.8998 20.768C79.7786 20.818 79.6703 20.8946 79.5827 20.9921C79.4951 21.0897 79.4306 21.2056 79.3939 21.3314Z" fill="#3A464B"/>
<path d="M75.2896 26.9388C75.2896 26.9388 76.7294 23.54 75.5557 22.486C74.3821 21.432 72.7462 21.7943 72.7994 24.4183C72.8658 27.6823 75.2896 26.9388 75.2896 26.9388Z" fill="url(#paint13_linear_67_712)"/>
<path d="M86.565 154.864C86.565 154.864 88.7169 146.395 78.8836 148.365C78.8836 148.365 74.1656 147.451 73.793 151.917C73.793 151.917 70.6773 153.841 72.8009 157.779C72.8009 157.779 63.8226 154.004 59.631 161.847C55.4393 169.69 58.9479 174.176 62.7277 175.429C62.7277 175.429 59.593 176.887 60.9519 180.435C62.3107 183.982 69.6436 186.666 74.1466 182.536C74.1466 182.536 86.5453 184.547 86.5547 175.749C86.5547 175.749 92.4545 172.181 86.5875 164.737C80.7206 157.294 86.565 154.864 86.565 154.864Z" fill="#3A464B"/>
<path d="M86.5198 174.641C84.5741 173.995 78.8916 172.74 73.309 177.596C72.8439 177.999 72.4983 178.523 72.3099 179.109C72.1215 179.695 72.0974 180.322 72.2403 180.921C73.5423 186.338 77.0363 200.621 73.4562 207.391C73.4562 207.391 80.1097 211.576 86.2675 209.391C86.2675 209.391 89.0413 198.128 93.0209 192.667C95.7685 188.896 89.2455 178.094 87.5914 175.483C87.3421 175.087 86.9635 174.789 86.5198 174.641Z" fill="#FFF3C8"/>
<path d="M81.4146 163.805C81.4146 163.805 78.2705 171.929 77.9461 175.54C77.9461 175.54 81.1106 177.093 84.2059 174.72C84.2059 174.72 84.7643 166.53 85.2659 165.076L81.4146 163.805Z" fill="#FFB8B8"/>
<path d="M85.7762 152.731C85.7762 152.731 93.0552 163.577 88.4261 166.529C83.797 169.481 78.6153 161.773 78.6153 161.773C78.6153 161.773 77.0246 155.907 78.9251 153.989C80.8256 152.071 85.7762 152.731 85.7762 152.731Z" fill="#FFB8B8"/>
<path d="M82.3368 150.089C82.3368 150.089 85.8002 151.018 86.2427 152.61C86.6852 154.202 81.2076 155.505 79.6818 155.532L78.2675 161.863C78.2675 161.863 74.8165 155.767 76.3554 152.35C77.8943 148.933 82.3368 150.089 82.3368 150.089Z" fill="#3A464B"/>
<path d="M80.1097 161.035C80.1097 161.035 77.2557 157.526 76.015 159.722C74.7742 161.919 78.5592 163.707 79.9195 162.651L80.1097 161.035Z" fill="#FFB8B8"/>
<path d="M116.831 163.818C116.831 163.818 115.543 165.52 114.819 165.489C112.943 165.411 109.511 165.585 108.119 166.936C106.189 168.809 105.143 174.59 103.242 179.306C101.341 184.022 93.3059 189.391 88.2897 187.362C83.2735 185.333 80.5369 176.327 75.7692 176.042C71.0016 175.757 71.2152 184.23 75.2305 187.105C77.8352 188.969 90.5394 199.026 100.244 192.02C109.948 185.014 110.003 170.945 110.003 170.945C110.003 170.945 113.165 169.662 114.782 168.631C116.399 167.6 116.831 163.818 116.831 163.818Z" fill="#FFB8B8"/>
<path d="M235.171 46.3229C235.171 46.3229 235.338 49.9331 232.479 62.9416C229.458 76.6922 205.383 69.9674 205.383 69.9674L205.909 66.6007C205.909 66.6007 222.453 66.7873 224.663 63.4752C226.284 61.0458 226.355 54.8823 226.158 51.8224C226.06 50.3019 229.87 39.3518 233.697 40.1602C234.768 41.3832 235.226 43.4832 235.171 46.3229Z" fill="url(#paint14_linear_67_712)"/>
<path d="M206.042 71.1563C206.042 71.1563 206.878 67.7166 206.54 66.4965C206.203 65.2763 205.55 63.707 203.37 64.0561C201.19 64.4053 198.62 65.3222 198.62 65.3222C198.62 65.3222 198.75 66.9119 200.406 66.3988L199.379 67.194C199.379 67.194 199.524 68.4667 200.925 67.7866L199.969 68.8406C199.969 68.8406 200.571 69.8858 201.6 69.2152C202.629 68.5446 203.122 71.571 206.042 71.1563Z" fill="url(#paint15_linear_67_712)"/>
<path d="M179.879 174.669C179.879 174.669 206.414 178.567 217.19 166.466C228.269 158.04 235.73 168.669 224.751 175.509C224.751 175.509 204.381 194.245 180.343 177.362L179.879 174.669Z" fill="#9FDEFD"/>
<path d="M180.343 177.362C180.343 177.362 176.99 176.836 177.573 173.671C178.19 170.338 174.052 169.589 175.828 166.937C175.89 166.842 175.983 166.771 176.091 166.737C176.199 166.702 176.316 166.706 176.421 166.748C177.759 167.289 182.391 169.612 181.597 175.55L180.343 177.362Z" fill="url(#paint16_linear_67_712)"/>
<path d="M214.219 136.942C214.219 136.942 208.092 146.866 211.936 150.291C215.781 153.717 222.542 144.483 222.542 144.483C222.542 144.483 224.371 133.258 214.219 136.942Z" fill="url(#paint17_linear_67_712)"/>
<path d="M220.227 146.604C220.3 146.868 222.004 149.347 224.424 147.593C226.844 145.839 226.269 143.715 224.205 142.612C224.205 142.612 225.875 142.378 225.437 140.863C225 139.348 223.6 139.764 223.6 139.764C223.6 139.764 226.589 131.514 219.08 130.541C211.572 129.567 211.295 133.984 211.365 135.369C211.435 136.754 214.106 139.703 218.623 139.275C218.623 139.275 217.267 140.009 217.845 141.637C218.424 143.265 221.093 144.87 221.093 144.87L220.227 146.604Z" fill="#3A464B"/>
<path d="M218.667 146.165C218.667 146.165 220.578 143.104 221.865 144.853C223.523 147.103 219.168 147.54 219.168 147.54L218.667 146.165Z" fill="url(#paint18_linear_67_712)"/>
</g>
</svg>
