<svg width="241" height="222" viewBox="0 0 241 222" fill="none" xmlns="http://www.w3.org/2000/svg">
<path d="M223.909 0H141V123H223.909V0Z" fill="#E6E6E6"/>
<path d="M230.992 0H142.195V123H230.992V0Z" fill="#F5F5F5"/>
<path d="M225.344 113.307V9.70116C225.344 7.3432 223.351 5.4317 220.892 5.4317L152.32 5.4317C149.861 5.4317 147.868 7.3432 147.868 9.70116V113.307C147.868 115.665 149.861 117.576 152.32 117.576H220.892C223.351 117.576 225.344 115.665 225.344 113.307Z" fill="white"/>
<path d="M203.146 50.0855L198.505 45.6353L170.061 72.9122L174.702 77.3624L203.146 50.0855Z" fill="#F5F5F5"/>
<path d="M191.447 38.8681L186.806 34.4179L158.362 61.6948L163.002 66.145L191.447 38.8681Z" fill="#F5F5F5"/>
<path d="M214.845 61.3028L210.205 56.8527L181.76 84.1296L186.401 88.5797L214.845 61.3028Z" fill="#F5F5F5"/>
<path d="M231.842 222C260.316 171.748 205.703 146.012 198.673 199.077C198.317 192.229 197.94 185.271 195.66 178.802C192.197 165.382 173.383 155.657 164.396 169.242C159.646 177.659 165.946 189.467 160.482 197.443C157.037 177.369 127.824 182.078 130.9 202.22C133.209 211.896 143.456 217.528 151.635 221.905L231.842 222Z" fill="#F2F2F2"/>
<path d="M135.084 190.06C149.538 194.74 167.6 202.622 169.066 219.85C169.108 220.533 170.179 220.538 170.137 219.85C169.762 213.767 166.791 208.2 162.676 203.797C158.165 198.97 152.319 195.673 146.284 193.115C145.104 192.843 132.821 187.045 135.084 190.06Z" fill="white"/>
<path d="M171.601 164.862C181.603 181.526 186.363 200.803 185.263 220.197C185.223 220.884 186.294 220.882 186.334 220.197C187.187 204.954 184.466 189.722 178.387 175.711C177.705 174.457 172.198 161.252 171.601 164.862Z" fill="white"/>
<path d="M224.02 171C216.968 186.818 212.603 203.696 211.104 220.944C211.044 221.629 212.116 221.624 212.175 220.944C213.342 207.644 216.223 194.551 220.746 181.987C220.734 180.587 226.907 169.229 224.02 171V171Z" fill="white"/>
<path d="M99.9606 221.136C108.112 206.751 92.4779 199.383 90.4656 214.574C90.3637 212.613 90.2557 210.622 89.603 208.77C88.6119 204.928 83.226 202.144 80.6535 206.033C79.2937 208.443 81.0971 211.823 79.5332 214.106C78.5467 208.36 70.1842 209.708 71.0648 215.473C71.7258 218.243 74.6591 219.855 77.0006 221.109L99.9606 221.136Z" fill="#F2F2F2"/>
<path d="M72.2626 211.993C76.4001 213.332 81.5708 215.588 81.9902 220.52C82.0023 220.716 82.3089 220.717 82.2968 220.52C82.139 218.788 81.3842 217.164 80.1612 215.925C78.8285 214.59 77.2299 213.548 75.4687 212.867C75.131 212.789 71.6147 211.129 72.2626 211.993Z" fill="white"/>
<path d="M82.7158 204.779C85.5792 209.55 86.9417 215.068 86.6268 220.62C86.6154 220.816 86.9221 220.816 86.9334 220.62C87.1775 216.256 86.3986 211.896 84.6586 207.885C84.4632 207.526 82.8867 203.746 82.7158 204.779V204.779Z" fill="white"/>
<path d="M97.7213 206.536C95.7028 211.064 94.4533 215.896 94.0241 220.833C94.0069 221.029 94.3136 221.028 94.3307 220.833C94.6646 217.026 95.4893 213.278 96.7843 209.681C96.7806 209.281 98.5477 206.029 97.7213 206.536Z" fill="white"/>
<path d="M101.782 100.436C101.928 100.635 102.059 100.844 102.172 101.063L124.167 103.531L127.365 99.2185L134.519 103.185L128.222 113.659L101.276 106.603C100.59 107.261 99.7201 107.695 98.7813 107.847C97.8425 107.999 96.8794 107.863 96.0202 107.456C95.161 107.049 94.4464 106.39 93.9714 105.568C93.4964 104.746 93.2835 103.799 93.3611 102.853C93.4387 101.907 93.8031 101.007 94.4057 100.273C95.0084 99.5386 95.8208 99.0049 96.7349 98.7425C97.649 98.4802 98.6215 98.5018 99.523 98.8043C100.425 99.1069 101.212 99.6761 101.782 100.436Z" fill="#FFB8B8"/>
<path d="M132.956 106.936C132.779 106.858 132.614 106.755 132.466 106.631L123.626 99.2012C123.414 99.0226 123.241 98.802 123.118 98.5533C122.995 98.3046 122.926 98.0332 122.914 97.7563C122.902 97.4794 122.947 97.203 123.048 96.9445C123.148 96.6861 123.301 96.4512 123.497 96.2549L131.519 88.2185C131.855 87.8782 132.304 87.6701 132.782 87.6321C133.259 87.5941 133.735 87.7288 134.121 88.0116L140.188 92.4067C140.566 92.6812 140.837 93.0789 140.953 93.5313C141.069 93.9836 141.023 94.4622 140.823 94.8844L135.575 105.955C135.352 106.426 134.954 106.792 134.465 106.975C133.976 107.158 133.435 107.144 132.956 106.936H132.956Z" fill="#696FF2"/>
<path d="M167.434 212.014L162.154 213.447L154.101 193.812L161.893 191.697L167.434 212.014Z" fill="#FFB8B8"/>
<path d="M157.557 213.078L168.155 210.201L169.899 216.597L153.306 221.101L153.193 220.686C152.761 219.1 152.977 217.407 153.796 215.98C154.614 214.553 155.967 213.509 157.557 213.078Z" fill="#3A464B"/>
<path d="M122.3 216.034L116.829 216.033L114.226 194.977L122.302 194.978L122.3 216.034Z" fill="#FFB8B8"/>
<path d="M112.489 214.474H123.473V221.102H106.277V220.672C106.277 219.028 106.932 217.451 108.097 216.289C109.262 215.127 110.842 214.474 112.489 214.474Z" fill="#3A464B"/>
<path d="M138.294 73.8066C142.574 69.5356 142.574 62.6111 138.294 58.3401C134.013 54.0692 127.073 54.0692 122.792 58.3401C118.511 62.6111 118.511 69.5357 122.792 73.8066C127.073 78.0776 134.013 78.0776 138.294 73.8066Z" fill="#FFB8B8"/>
<path d="M121.966 201.021H114.489C113.977 201.02 113.486 200.825 113.113 200.476C112.741 200.127 112.515 199.649 112.482 199.14C110.254 163.803 111.558 138.454 116.584 119.368C116.606 119.284 116.633 119.202 116.665 119.122L117.065 118.123C117.213 117.75 117.47 117.431 117.803 117.206C118.136 116.982 118.528 116.862 118.93 116.863H134.306C134.595 116.863 134.882 116.926 135.145 117.046C135.408 117.167 135.642 117.343 135.83 117.563L137.919 119.994C137.96 120.042 137.998 120.09 138.034 120.141C147.452 133.243 155.891 158.859 165.665 193.29C165.809 193.791 165.752 194.327 165.505 194.786C165.259 195.245 164.842 195.59 164.345 195.747L156.309 198.312C155.848 198.457 155.35 198.432 154.906 198.241C154.461 198.051 154.1 197.707 153.888 197.274L133.037 154.123C132.891 153.822 132.651 153.575 132.354 153.42C132.057 153.264 131.717 153.209 131.386 153.261C131.054 153.313 130.749 153.47 130.514 153.71C130.279 153.949 130.128 154.257 130.082 154.589L123.955 199.288C123.888 199.768 123.65 200.207 123.284 200.525C122.919 200.843 122.451 201.019 121.966 201.021Z" fill="#3A464B"/>
<path d="M137.076 120.172C137.055 120.172 137.034 120.172 137.013 120.171L118.336 119.583C117.856 119.569 117.397 119.384 117.042 119.061C116.688 118.738 116.461 118.298 116.405 117.822C114.037 98.7013 120.53 93.5789 123.432 92.2644C123.674 92.1552 123.884 91.9854 124.042 91.7714C124.199 91.5574 124.298 91.3064 124.33 91.0429L124.581 89.0387C124.624 88.6848 124.761 88.3488 124.978 88.0655C129.527 82.1856 135.739 80.3028 139.037 79.704C139.304 79.656 139.579 79.6628 139.844 79.7239C140.108 79.785 140.358 79.8992 140.577 80.0596C140.796 80.2199 140.98 80.423 141.119 80.6565C141.257 80.8901 141.346 81.1492 141.38 81.4181L141.756 84.2959C141.795 84.5704 141.905 84.8301 142.075 85.049C151.562 97.4242 140.993 115.696 138.778 119.233C138.597 119.52 138.346 119.757 138.048 119.921C137.75 120.085 137.416 120.172 137.076 120.172Z" fill="#FCE07E"/>
<path d="M135.334 147.35C135.908 146.948 136.386 146.426 136.736 145.82C137.086 145.214 137.298 144.539 137.358 143.842C137.418 143.145 137.324 142.444 137.082 141.787C136.841 141.131 136.459 140.535 135.962 140.042L139.431 98.2428L129.102 99.6606L128.905 140.272C128.13 141.16 127.709 142.3 127.721 143.478C127.732 144.655 128.176 145.787 128.969 146.66C129.761 147.532 130.847 148.084 132.02 148.211C133.193 148.339 134.372 148.032 135.334 147.35H135.334Z" fill="#FFB8B8"/>
<path d="M140.106 104.262C139.912 104.262 139.72 104.234 139.534 104.179L128.446 100.925C128.179 100.847 127.932 100.714 127.719 100.536C127.507 100.358 127.334 100.137 127.211 99.8883C127.088 99.6397 127.018 99.3683 127.006 99.0914C126.994 98.8145 127.039 98.538 127.14 98.2795L131.243 87.7025C131.414 87.2557 131.741 86.8853 132.163 86.6588C132.585 86.4322 133.075 86.3646 133.543 86.4684L140.868 88.0573C141.326 88.1567 141.734 88.4122 142.022 88.7798C142.311 89.1473 142.462 89.6039 142.449 90.0706L142.108 102.312C142.094 102.833 141.877 103.328 141.503 103.692C141.129 104.056 140.628 104.26 140.106 104.262V104.262Z" fill="#FCE07E"/>
<path d="M232.583 221.941H73.5941C73.4834 221.941 73.3773 221.897 73.299 221.819C73.2208 221.741 73.1768 221.635 73.1768 221.525C73.1768 221.415 73.2208 221.309 73.299 221.231C73.3773 221.152 73.4834 221.109 73.5941 221.109H232.583C232.694 221.109 232.8 221.152 232.879 221.231C232.957 221.309 233.001 221.415 233.001 221.525C233.001 221.635 232.957 221.741 232.879 221.819C232.8 221.897 232.694 221.941 232.583 221.941Z" fill="#3F3D56"/>
<path d="M142.603 59.2717C141.789 56.8093 141.188 54.2818 140.807 51.7169C140.687 50.2236 141.07 48.6169 142.16 47.5866C144.2 45.6584 147.666 46.5768 149.799 48.4016C152.881 51.0389 154.419 55.0918 155 59.1018C155.581 63.1118 155.326 67.1896 155.465 71.2389C155.605 75.2882 156.186 79.4518 158.255 82.9381C160.324 86.4245 164.163 89.1005 168.213 88.8038C169.848 88.7157 171.4 88.0593 172.601 86.9487C173.19 86.3894 173.636 85.6973 173.902 84.9304C174.168 84.1636 174.246 83.3443 174.129 82.5412C176.199 86.2394 175.149 91.2517 172.062 94.1589C168.974 97.0662 164.225 97.888 160.166 96.6468C156.107 95.4055 152.766 92.2931 150.771 88.5544C148.775 84.8156 148.044 80.4967 148.15 76.2622C148.231 73.0104 148.785 69.7321 148.234 66.526C147.684 63.32 145.673 60.0647 142.502 59.3098L142.603 59.2717Z" fill="#3A464B"/>
<path d="M128.362 63.4868C127.822 65.2888 125.754 66.4 123.893 66.0952C122.033 65.7904 120.503 64.2618 119.938 62.4674C119.427 60.6345 119.636 58.6763 120.523 56.9921C121.011 55.9827 121.695 55.0793 122.534 54.3336C123.373 53.588 124.351 53.0147 125.412 52.6467C126.48 52.2938 127.616 52.202 128.727 52.379C129.837 52.556 130.888 52.9967 131.792 53.6639C131.888 53.259 132.091 52.8871 132.379 52.5864C132.668 52.2857 133.031 52.0671 133.432 51.953C134.239 51.7359 135.092 51.7484 135.893 51.9892C138.2 52.6453 140.199 54.0966 141.535 56.085C142.854 58.0673 143.727 60.3113 144.093 62.6625C144.722 66.1884 144.49 70.0412 142.505 73.0254C140.521 76.0095 136.46 77.7716 133.166 76.3489C132.96 75.3011 133.447 74.2462 134.01 73.3383C134.573 72.4305 135.24 71.546 135.457 70.5005C135.673 69.455 135.258 68.1761 134.245 67.8342C133.38 67.5425 132.458 68.0151 131.547 68.0721C131.029 68.1045 130.513 68.0006 130.048 67.7708C129.584 67.5411 129.188 67.1935 128.901 66.7629C128.614 66.3324 128.445 65.8341 128.412 65.3179C128.378 64.8018 128.482 64.286 128.711 63.8222L128.362 63.4868Z" fill="#3A464B"/>
<rect y="35.1818" width="110.818" height="6.27273" rx="3.13636" fill="#E1E1E1"/>
<rect y="35.1818" width="43.5306" height="6.27273" rx="3.13636" fill="#42C2FF"/>
<circle cx="43.3864" cy="38.8409" r="7.44436" fill="#FAF9FF" stroke="#42C2FF" stroke-width="0.793103"/>
<rect y="65.5" width="110.818" height="6.27273" rx="3.13636" fill="#E1E1E1"/>
<rect y="65.5" width="87.8182" height="6.27273" rx="3.13636" fill="#42C2FF"/>
<circle cx="87.2954" cy="69.1591" r="7.44436" fill="#FAF9FF" stroke="#42C2FF" stroke-width="0.793103"/>
</svg>
